<?xml version="1.0" encoding="UTF-8"?><svg xmlns="http://www.w3.org/2000/svg" xmlns:xlink="http://www.w3.org/1999/xlink" fill-opacity="1" color-rendering="auto" color-interpolation="auto" text-rendering="auto" stroke="black" stroke-linecap="square" width="997" stroke-miterlimit="10" shape-rendering="auto" stroke-opacity="1" fill="black" stroke-dasharray="none" font-weight="normal" stroke-width="1" height="602" font-family="'Dialog'" font-style="normal" stroke-linejoin="miter" font-size="12px" stroke-dashoffset="0" image-rendering="auto">
  <!--Generated by ySVG 2.5-->
  <defs id="genericDefs"/>
  <g>
    <g fill="white" text-rendering="geometricPrecision" shape-rendering="geometricPrecision" transform="matrix(1,0,0,1,-322,-217)" stroke="white">
      <circle r="35" clip-path="url(#clipPath2)" cx="629.36" cy="621.6234" stroke="none"/>
    </g>
    <g text-rendering="geometricPrecision" stroke-miterlimit="1.45" shape-rendering="geometricPrecision" transform="matrix(1,0,0,1,-322,-217)" stroke-linecap="butt">
      <circle fill="none" r="35" clip-path="url(#clipPath2)" cx="629.36" cy="621.6234"/>
      <text x="615.6959" xml:space="preserve" y="618.7933" clip-path="url(#clipPath2)" font-family="sans-serif" stroke="none">Goal</text>
      <text x="601.7096" xml:space="preserve" y="632.7621" clip-path="url(#clipPath2)" font-family="sans-serif" stroke="none">Selection</text>
    </g>
    <g fill="white" text-rendering="geometricPrecision" shape-rendering="geometricPrecision" transform="matrix(1,0,0,1,-322,-217)" stroke="white">
      <circle r="35" clip-path="url(#clipPath2)" cx="617.48" cy="411.2469" stroke="none"/>
    </g>
    <g text-rendering="geometricPrecision" stroke-miterlimit="1.45" stroke-width="3" shape-rendering="geometricPrecision" transform="matrix(1,0,0,1,-322,-217)" stroke-linecap="butt">
      <circle fill="none" r="35" clip-path="url(#clipPath2)" cx="617.48" cy="411.2469"/>
      <text x="606.0776" y="415.4012" clip-path="url(#clipPath2)" font-family="sans-serif" stroke="none" stroke-width="1" xml:space="preserve">End</text>
    </g>
    <g fill="white" text-rendering="geometricPrecision" shape-rendering="geometricPrecision" transform="matrix(1,0,0,1,-322,-217)" stroke="white">
      <ellipse rx="34.6504" ry="35" clip-path="url(#clipPath2)" cx="768.0426" cy="500.2469" stroke="none"/>
    </g>
    <g text-rendering="geometricPrecision" stroke-miterlimit="1.45" shape-rendering="geometricPrecision" transform="matrix(1,0,0,1,-322,-217)" stroke-linecap="butt">
      <ellipse rx="34.6504" fill="none" ry="35" clip-path="url(#clipPath2)" cx="768.0426" cy="500.2469"/>
      <text x="741.5172" xml:space="preserve" y="497.4168" clip-path="url(#clipPath2)" font-family="sans-serif" stroke="none">Primitive</text>
      <text x="740.3922" xml:space="preserve" y="511.3856" clip-path="url(#clipPath2)" font-family="sans-serif" stroke="none">Selection</text>
    </g>
    <g fill="white" text-rendering="geometricPrecision" shape-rendering="geometricPrecision" transform="matrix(1,0,0,1,-322,-217)" stroke="white">
      <circle r="35" clip-path="url(#clipPath2)" cx="859.3698" cy="252.2469" stroke="none"/>
    </g>
    <g text-rendering="geometricPrecision" stroke-miterlimit="1.45" shape-rendering="geometricPrecision" transform="matrix(1,0,0,1,-322,-217)" stroke-linecap="butt">
      <circle fill="none" r="35" clip-path="url(#clipPath2)" cx="859.3698" cy="252.2469"/>
      <text x="844.8033" xml:space="preserve" y="249.4168" clip-path="url(#clipPath2)" font-family="sans-serif" stroke="none">Back</text>
      <text x="834.8219" xml:space="preserve" y="263.3856" clip-path="url(#clipPath2)" font-family="sans-serif" stroke="none">tracking</text>
    </g>
    <g fill="white" text-rendering="geometricPrecision" shape-rendering="geometricPrecision" transform="matrix(1,0,0,1,-322,-217)" stroke="white">
      <circle r="35" clip-path="url(#clipPath2)" cx="892.0143" cy="460.2469" stroke="none"/>
    </g>
    <g text-rendering="geometricPrecision" stroke-miterlimit="1.45" shape-rendering="geometricPrecision" transform="matrix(1,0,0,1,-322,-217)" stroke-linecap="butt">
      <circle fill="none" r="35" clip-path="url(#clipPath2)" cx="892.0143" cy="460.2469"/>
      <text x="862.3805" xml:space="preserve" y="464.4012" clip-path="url(#clipPath2)" font-family="sans-serif" stroke="none">Exception</text>
    </g>
    <g fill="white" text-rendering="geometricPrecision" shape-rendering="geometricPrecision" transform="matrix(1,0,0,1,-322,-217)" stroke="white">
      <ellipse rx="36.6279" ry="35" clip-path="url(#clipPath2)" cx="753.3766" cy="390.2469" stroke="none"/>
    </g>
    <g text-rendering="geometricPrecision" stroke-miterlimit="1.45" shape-rendering="geometricPrecision" transform="matrix(1,0,0,1,-322,-217)" stroke-linecap="butt">
      <ellipse rx="36.6279" fill="none" ry="35" clip-path="url(#clipPath2)" cx="753.3766" cy="390.2469"/>
      <text x="726.8512" xml:space="preserve" y="387.4168" clip-path="url(#clipPath2)" font-family="sans-serif" stroke="none">Primitive</text>
      <text x="723.7487" xml:space="preserve" y="401.3856" clip-path="url(#clipPath2)" font-family="sans-serif" stroke="none">Execution</text>
    </g>
    <g fill="white" text-rendering="geometricPrecision" shape-rendering="geometricPrecision" transform="matrix(1,0,0,1,-322,-217)" stroke="white">
      <circle r="35" clip-path="url(#clipPath2)" cx="944.0143" cy="560.2469" stroke="none"/>
    </g>
    <g text-rendering="geometricPrecision" stroke-miterlimit="1.45" shape-rendering="geometricPrecision" transform="matrix(1,0,0,1,-322,-217)" stroke-linecap="butt">
      <circle fill="none" r="35" clip-path="url(#clipPath2)" cx="944.0143" cy="560.2469"/>
      <text x="930.6842" xml:space="preserve" y="557.4168" clip-path="url(#clipPath2)" font-family="sans-serif" stroke="none">Rule</text>
      <text x="916.3639" xml:space="preserve" y="571.3856" clip-path="url(#clipPath2)" font-family="sans-serif" stroke="none">Selection</text>
    </g>
    <g fill="white" text-rendering="geometricPrecision" shape-rendering="geometricPrecision" transform="matrix(1,0,0,1,-322,-217)" stroke="white">
      <circle r="35" clip-path="url(#clipPath2)" cx="875.5239" cy="356.2469" stroke="none"/>
    </g>
    <g text-rendering="geometricPrecision" stroke-miterlimit="1.45" stroke-width="3" shape-rendering="geometricPrecision" transform="matrix(1,0,0,1,-322,-217)" stroke-linecap="butt">
      <circle fill="none" r="35" clip-path="url(#clipPath2)" cx="875.5239" cy="356.2469"/>
      <text x="863.3159" y="360.4012" clip-path="url(#clipPath2)" font-family="sans-serif" stroke="none" stroke-width="1" xml:space="preserve">Halt</text>
    </g>
    <g fill="white" text-rendering="geometricPrecision" shape-rendering="geometricPrecision" transform="matrix(1,0,0,1,-322,-217)" stroke="white">
      <circle r="35" clip-path="url(#clipPath2)" cx="1031.3639" cy="621.6234" stroke="none"/>
    </g>
    <g text-rendering="geometricPrecision" stroke-miterlimit="1.45" shape-rendering="geometricPrecision" transform="matrix(1,0,0,1,-322,-217)" stroke-linecap="butt">
      <circle fill="none" r="35" clip-path="url(#clipPath2)" cx="1031.3639" cy="621.6234"/>
      <text x="1018.0338" xml:space="preserve" y="618.7933" clip-path="url(#clipPath2)" font-family="sans-serif" stroke="none">Rule</text>
      <text x="1001.736" xml:space="preserve" y="632.7621" clip-path="url(#clipPath2)" font-family="sans-serif" stroke="none">Execution</text>
    </g>
    <g fill="rgb(255,255,153)" text-rendering="geometricPrecision" shape-rendering="geometricPrecision" transform="matrix(1,0,0,1,-322,-217)" stroke="rgb(255,255,153)">
      <rect x="405.0059" width="67.0508" height="35.3872" y="405.0102" clip-path="url(#clipPath2)" stroke="none"/>
    </g>
    <g text-rendering="geometricPrecision" stroke-miterlimit="1.45" shape-rendering="geometricPrecision" transform="matrix(1,0,0,1,-322,-217)" stroke-linecap="butt">
      <rect fill="none" x="405.0059" width="67.0508" height="35.3872" y="405.0102" clip-path="url(#clipPath2)"/>
      <text x="412.0059" xml:space="preserve" y="426.8581" clip-path="url(#clipPath2)" font-family="sans-serif" stroke="none">Primitive</text>
    </g>
    <g fill="white" text-rendering="geometricPrecision" shape-rendering="geometricPrecision" transform="matrix(1,0,0,1,-322,-217)" stroke="white">
      <path d="M404.8177 491.3974 L476 491.3974 L468.0909 509.0911 L476 526.7847 L404.8177 526.7847 L396.9086 509.0911 Z" fill-rule="evenodd" clip-path="url(#clipPath2)" stroke="none"/>
    </g>
    <g text-rendering="geometricPrecision" stroke-miterlimit="1.45" shape-rendering="geometricPrecision" transform="matrix(1,0,0,1,-322,-217)" stroke-linecap="butt">
      <path fill="none" d="M404.8177 491.3974 L476 491.3974 L468.0909 509.0911 L476 526.7847 L404.8177 526.7847 L396.9086 509.0911 Z" fill-rule="evenodd" clip-path="url(#clipPath2)"/>
      <text x="411.8127" xml:space="preserve" y="513.2454" clip-path="url(#clipPath2)" font-family="sans-serif" stroke="none">Request</text>
    </g>
    <g fill="white" text-rendering="geometricPrecision" shape-rendering="geometricPrecision" transform="matrix(1,0,0,1,-322,-217)" stroke="white">
      <path d="M358.4634 318.623 L434.218 318.623 L442.6353 336.3166 L434.218 354.0102 L358.4634 354.0102 L366.8806 336.3166 Z" fill-rule="evenodd" clip-path="url(#clipPath2)" stroke="none"/>
    </g>
    <g text-rendering="geometricPrecision" stroke-miterlimit="1.45" shape-rendering="geometricPrecision" transform="matrix(1,0,0,1,-322,-217)" stroke-linecap="butt">
      <path fill="none" d="M358.4634 318.623 L434.218 318.623 L442.6353 336.3166 L434.218 354.0102 L358.4634 354.0102 L366.8806 336.3166 Z" fill-rule="evenodd" clip-path="url(#clipPath2)"/>
      <text x="371.4634" xml:space="preserve" y="340.4709" clip-path="url(#clipPath2)" font-family="sans-serif" stroke="none">Response</text>
    </g>
    <g fill="white" text-rendering="geometricPrecision" shape-rendering="geometricPrecision" transform="matrix(1,0,0,1,-322,-217)" stroke="white">
      <path d="M437.6353 318.623 L513.39 318.623 L521.8071 336.3166 L513.39 354.0102 L437.6353 354.0102 L446.0524 336.3166 Z" fill-rule="evenodd" clip-path="url(#clipPath2)" stroke="none"/>
    </g>
    <g text-rendering="geometricPrecision" stroke-miterlimit="1.45" stroke-dasharray="6,2" shape-rendering="geometricPrecision" transform="matrix(1,0,0,1,-322,-217)" stroke-linecap="butt">
      <path fill="none" d="M437.6353 318.623 L513.39 318.623 L521.8071 336.3166 L513.39 354.0102 L437.6353 354.0102 L446.0524 336.3166 Z" fill-rule="evenodd" clip-path="url(#clipPath2)"/>
      <text x="473.9995" y="340.4709" clip-path="url(#clipPath2)" font-family="sans-serif" stroke-dasharray="none" stroke="none" xml:space="preserve">...</text>
      <text x="385.6973" y="307.7773" clip-path="url(#clipPath2)" font-family="sans-serif" stroke-dasharray="none" stroke="none" xml:space="preserve">Response Stream</text>
    </g>
    <g text-rendering="geometricPrecision" shape-rendering="geometricPrecision" transform="matrix(1,0,0,1,872.855,380.8169)">
      <g clip-path="url(#clipPath3)">
        <svg xml:space="preserve" opacity="1" writing-mode="lr-tb" stop-color="rgb(0, 0, 0)" shape-rendering="auto" glyph-orientation-horizontal="0deg" color-profile="auto" lighting-color="rgb(255, 255, 255)" color="rgb(0, 0, 0)" font-weight="400" alignment-baseline="auto" font-style="normal" version="1.1" color-interpolation-filters="linearrgb" text-anchor="start" stroke-linecap="butt" color-interpolation="srgb" font-variant="normal" word-spacing="normal" fill-opacity="1" text-rendering="auto" clip-path="none" text-decoration="none" letter-spacing="normal" viewBox="0 0 40 48" glyph-orientation-vertical="auto" display="inline" font-size-adjust="none" overflow="hidden" fill="rgb(0, 0, 0)" font-stretch="normal" stroke-dasharray="none" stroke-miterlimit="4" stop-opacity="1" color-rendering="auto" font-size="12" pointer-events="visiblepainted" mask="none" direction="ltr" baseline-shift="baseline" enable-background="new 0 0 40 48" fill-rule="nonzero" image-rendering="auto" stroke-dashoffset="0" width="40px" marker-end="none" clip="auto" cursor="auto" stroke="none" filter="none" visibility="visible" kerning="auto" stroke-width="1" font-family="&quot;Arial&quot;,&quot;Helvetica&quot;,sans-serif" flood-opacity="1" clip-rule="nonzero" src="none" height="48px" unicode-bidi="normal" stroke-linejoin="miter" stroke-opacity="1" flood-color="rgb(0, 0, 0)" dominant-baseline="auto" marker-start="none" x="0px" marker-mid="none" y="0px">
<defs>
<clipPath clipPathUnits="userSpaceOnUse" id="clipPath1"><path d="M0 0 L997 0 L997 602 L0 602 L0 0 Z"/></clipPath><clipPath clipPathUnits="userSpaceOnUse" id="clipPath2"><path d="M322 217 L1319 217 L1319 819 L322 819 L322 217 Z"/></clipPath><clipPath clipPathUnits="userSpaceOnUse" id="clipPath3"><path d="M-872.855 -380.817 L124.145 -380.817 L124.145 221.1831 L-872.855 221.1831 L-872.855 -380.817 Z"/></clipPath><clipPath clipPathUnits="userSpaceOnUse" id="clipPath4"><path d="M225.2497 -5.4926 L225.2497 991.5074 L-376.7503 991.5074 L-376.7503 -5.4926 L225.2497 -5.4926 Z"/></clipPath></defs>
<linearGradient gradientTransform="matrix(1 0 0 1 -370.2002 -614.5742)" x1="370.2002" x2="409.4502" gradientUnits="userSpaceOnUse" y1="655.0938" y2="655.0938" id="svg1.SVGID_1_">
	<stop offset="0" style="stop-color:#4D4D4D"/>
	<stop offset="0.0558" style="stop-color:#5F5F5F"/>
	<stop offset="0.2103" style="stop-color:#8D8D8D"/>
	<stop offset="0.3479" style="stop-color:#AEAEAE"/>
	<stop offset="0.4623" style="stop-color:#C2C2C2"/>
	<stop offset="0.5394" style="stop-color:#C9C9C9"/>
	<stop offset="0.6247" style="stop-color:#C5C5C5"/>
	<stop offset="0.7072" style="stop-color:#BABABA"/>
	<stop offset="0.7885" style="stop-color:#A6A6A6"/>
	<stop offset="0.869" style="stop-color:#8B8B8B"/>
	<stop offset="0.9484" style="stop-color:#686868"/>
	<stop offset="1" style="stop-color:#4D4D4D"/>
</linearGradient>
<path fill="url(#svg1.SVGID_1_)" d="M19.625,37.613C8.787,37.613,0,35.738,0,33.425v10c0,2.313,8.787,4.188,19.625,4.188  c10.839,0,19.625-1.875,19.625-4.188v-10C39.25,35.738,30.464,37.613,19.625,37.613z"/>
<linearGradient gradientTransform="matrix(1 0 0 1 -370.2002 -614.5742)" x1="370.2002" x2="409.4502" gradientUnits="userSpaceOnUse" y1="649.0938" y2="649.0938" id="svg1.SVGID_2_">
	<stop offset="0" style="stop-color:#B3B3B3"/>
	<stop offset="0.0171" style="stop-color:#B6B6B6"/>
	<stop offset="0.235" style="stop-color:#D7D7D7"/>
	<stop offset="0.4168" style="stop-color:#EBEBEB"/>
	<stop offset="0.5394" style="stop-color:#F2F2F2"/>
	<stop offset="0.6579" style="stop-color:#EEEEEE"/>
	<stop offset="0.7724" style="stop-color:#E3E3E3"/>
	<stop offset="0.8853" style="stop-color:#CFCFCF"/>
	<stop offset="0.9965" style="stop-color:#B4B4B4"/>
	<stop offset="1" style="stop-color:#B3B3B3"/>
</linearGradient>
<path fill="url(#svg1.SVGID_2_)" d="M19.625,37.613c10.839,0,19.625-1.875,19.625-4.188l-1.229-2c0,2.168-8.235,3.927-18.396,3.927  c-9.481,0-17.396-1.959-18.396-3.927l-1.229,2C0,35.738,8.787,37.613,19.625,37.613z"/>
<linearGradient gradientTransform="matrix(1 0 0 1 -370.2002 -614.5742)" x1="371.4297" x2="408.2217" gradientUnits="userSpaceOnUse" y1="646" y2="646" id="svg1.SVGID_3_">
	<stop offset="0" style="stop-color:#C9C9C9"/>
	<stop offset="1" style="stop-color:#808080"/>
</linearGradient>
<ellipse rx="18.396" fill="url(#svg1.SVGID_3_)" ry="3.926" cx="19.625" cy="31.425"/>
<linearGradient gradientTransform="matrix(1 0 0 1 -370.2002 -614.5742)" x1="370.2002" x2="409.4502" gradientUnits="userSpaceOnUse" y1="641.0938" y2="641.0938" id="svg1.SVGID_4_">
	<stop offset="0" style="stop-color:#4D4D4D"/>
	<stop offset="0.0558" style="stop-color:#5F5F5F"/>
	<stop offset="0.2103" style="stop-color:#8D8D8D"/>
	<stop offset="0.3479" style="stop-color:#AEAEAE"/>
	<stop offset="0.4623" style="stop-color:#C2C2C2"/>
	<stop offset="0.5394" style="stop-color:#C9C9C9"/>
	<stop offset="0.6247" style="stop-color:#C5C5C5"/>
	<stop offset="0.7072" style="stop-color:#BABABA"/>
	<stop offset="0.7885" style="stop-color:#A6A6A6"/>
	<stop offset="0.869" style="stop-color:#8B8B8B"/>
	<stop offset="0.9484" style="stop-color:#686868"/>
	<stop offset="1" style="stop-color:#4D4D4D"/>
</linearGradient>
<path fill="url(#svg1.SVGID_4_)" d="M19.625,23.613C8.787,23.613,0,21.738,0,19.425v10c0,2.313,8.787,4.188,19.625,4.188  c10.839,0,19.625-1.875,19.625-4.188v-10C39.25,21.738,30.464,23.613,19.625,23.613z"/>
<linearGradient gradientTransform="matrix(1 0 0 1 -370.2002 -614.5742)" x1="370.2002" x2="409.4502" gradientUnits="userSpaceOnUse" y1="635.0938" y2="635.0938" id="svg1.SVGID_5_">
	<stop offset="0" style="stop-color:#B3B3B3"/>
	<stop offset="0.0171" style="stop-color:#B6B6B6"/>
	<stop offset="0.235" style="stop-color:#D7D7D7"/>
	<stop offset="0.4168" style="stop-color:#EBEBEB"/>
	<stop offset="0.5394" style="stop-color:#F2F2F2"/>
	<stop offset="0.6579" style="stop-color:#EEEEEE"/>
	<stop offset="0.7724" style="stop-color:#E3E3E3"/>
	<stop offset="0.8853" style="stop-color:#CFCFCF"/>
	<stop offset="0.9965" style="stop-color:#B4B4B4"/>
	<stop offset="1" style="stop-color:#B3B3B3"/>
</linearGradient>
<path fill="url(#svg1.SVGID_5_)" d="M19.625,23.613c10.839,0,19.625-1.875,19.625-4.188l-1.229-2c0,2.168-8.235,3.926-18.396,3.926  c-9.481,0-17.396-1.959-18.396-3.926l-1.229,2C0,21.738,8.787,23.613,19.625,23.613z"/>
<linearGradient gradientTransform="matrix(1 0 0 1 -370.2002 -614.5742)" x1="371.4297" x2="408.2217" gradientUnits="userSpaceOnUse" y1="632" y2="632" id="svg1.SVGID_6_">
	<stop offset="0" style="stop-color:#C9C9C9"/>
	<stop offset="1" style="stop-color:#808080"/>
</linearGradient>
<ellipse rx="18.396" fill="url(#svg1.SVGID_6_)" ry="3.926" cx="19.625" cy="17.426"/>
<linearGradient gradientTransform="matrix(1 0 0 1 -370.2002 -614.5742)" x1="370.2002" x2="409.4502" gradientUnits="userSpaceOnUse" y1="627.5938" y2="627.5938" id="svg1.SVGID_7_">
	<stop offset="0" style="stop-color:#4D4D4D"/>
	<stop offset="0.0558" style="stop-color:#5F5F5F"/>
	<stop offset="0.2103" style="stop-color:#8D8D8D"/>
	<stop offset="0.3479" style="stop-color:#AEAEAE"/>
	<stop offset="0.4623" style="stop-color:#C2C2C2"/>
	<stop offset="0.5394" style="stop-color:#C9C9C9"/>
	<stop offset="0.6247" style="stop-color:#C5C5C5"/>
	<stop offset="0.7072" style="stop-color:#BABABA"/>
	<stop offset="0.7885" style="stop-color:#A6A6A6"/>
	<stop offset="0.869" style="stop-color:#8B8B8B"/>
	<stop offset="0.9484" style="stop-color:#686868"/>
	<stop offset="1" style="stop-color:#4D4D4D"/>
</linearGradient>
<path fill="url(#svg1.SVGID_7_)" d="M19.625,10.113C8.787,10.113,0,8.238,0,5.925v10c0,2.313,8.787,4.188,19.625,4.188  c10.839,0,19.625-1.875,19.625-4.188v-10C39.25,8.238,30.464,10.113,19.625,10.113z"/>
<linearGradient gradientTransform="matrix(1 0 0 1 -370.2002 -614.5742)" x1="370.2002" x2="409.4502" gradientUnits="userSpaceOnUse" y1="621.5938" y2="621.5938" id="svg1.SVGID_8_">
	<stop offset="0" style="stop-color:#B3B3B3"/>
	<stop offset="0.0171" style="stop-color:#B6B6B6"/>
	<stop offset="0.235" style="stop-color:#D7D7D7"/>
	<stop offset="0.4168" style="stop-color:#EBEBEB"/>
	<stop offset="0.5394" style="stop-color:#F2F2F2"/>
	<stop offset="0.6579" style="stop-color:#EEEEEE"/>
	<stop offset="0.7724" style="stop-color:#E3E3E3"/>
	<stop offset="0.8853" style="stop-color:#CFCFCF"/>
	<stop offset="0.9965" style="stop-color:#B4B4B4"/>
	<stop offset="1" style="stop-color:#B3B3B3"/>
</linearGradient>
<path fill="url(#svg1.SVGID_8_)" d="M19.625,10.113c10.839,0,19.625-1.875,19.625-4.188l-1.229-2c0,2.168-8.235,3.926-18.396,3.926  c-9.481,0-17.396-1.959-18.396-3.926L0,5.925C0,8.238,8.787,10.113,19.625,10.113z"/>
<linearGradient gradientTransform="matrix(1 0 0 1 -370.2002 -614.5742)" x1="371.4297" x2="408.2217" gradientUnits="userSpaceOnUse" y1="618.5" y2="618.5" id="svg1.SVGID_9_">
	<stop offset="0" style="stop-color:#C9C9C9"/>
	<stop offset="1" style="stop-color:#808080"/>
</linearGradient>
<ellipse rx="18.396" fill="url(#svg1.SVGID_9_)" ry="3.926" cx="19.625" cy="3.926"/>
<path fill="#FFFFFF" d="M31.291,46.792c0,0-4.313,0.578-7.249,0.694  C20.917,47.613,15,47.613,15,47.613l-2.443-10.279l-0.119-2.283l-1.231-1.842L9.789,23.024l-0.082-0.119L9.3,20.715l-1.45-1.44  L5.329,8.793c0,0,5.296,0.882,7.234,1.07s8.375,0.25,8.375,0.25l3,9.875l-0.25,1.313l1.063,2.168l2.312,9.644l-0.375,1.875  l1.627,2.193L31.291,46.792z" enable-background="new    " opacity="0.24"/>
</svg>
      </g>
    </g>
    <g text-rendering="geometricPrecision" stroke-miterlimit="1.45" shape-rendering="geometricPrecision" font-family="sans-serif" transform="matrix(1,0,0,1,-322,-217)" stroke-linecap="butt">
      <text x="1247.403" xml:space="preserve" y="625.7777" clip-path="url(#clipPath2)" stroke="none">KB</text>
    </g>
    <g fill="white" text-rendering="geometricPrecision" shape-rendering="geometricPrecision" transform="matrix(1,0,0,1,-322,-217)" stroke="white">
      <path d="M1172.394 532.4297 L1248.1488 532.4297 L1256.5659 550.1234 L1248.1488 567.817 L1172.394 567.817 L1180.8113 550.1234 Z" fill-rule="evenodd" clip-path="url(#clipPath2)" stroke="none"/>
    </g>
    <g text-rendering="geometricPrecision" stroke-miterlimit="1.45" shape-rendering="geometricPrecision" transform="matrix(1,0,0,1,-322,-217)" stroke-linecap="butt">
      <path fill="none" d="M1172.394 532.4297 L1248.1488 532.4297 L1256.5659 550.1234 L1248.1488 567.817 L1172.394 567.817 L1180.8113 550.1234 Z" fill-rule="evenodd" clip-path="url(#clipPath2)"/>
      <text x="1200.8159" xml:space="preserve" y="554.2776" clip-path="url(#clipPath2)" font-family="sans-serif" stroke="none">Goal</text>
    </g>
    <g fill="white" text-rendering="geometricPrecision" shape-rendering="geometricPrecision" transform="matrix(1,0,0,1,-322,-217)" stroke="white">
      <path d="M1220.313 675.4299 L1296.0676 675.4299 L1287.6505 693.1235 L1296.0676 710.8172 L1220.313 710.8172 L1211.8958 693.1235 Z" fill-rule="evenodd" clip-path="url(#clipPath2)" stroke="none"/>
    </g>
    <g text-rendering="geometricPrecision" stroke-miterlimit="1.45" shape-rendering="geometricPrecision" transform="matrix(1,0,0,1,-322,-217)" stroke-linecap="butt">
      <path fill="none" d="M1220.313 675.4299 L1296.0676 675.4299 L1287.6505 693.1235 L1296.0676 710.8172 L1220.313 710.8172 L1211.8958 693.1235 Z" fill-rule="evenodd" clip-path="url(#clipPath2)"/>
      <text x="1240.6516" xml:space="preserve" y="697.2778" clip-path="url(#clipPath2)" font-family="sans-serif" stroke="none">Rule</text>
    </g>
    <g fill="white" text-rendering="geometricPrecision" shape-rendering="geometricPrecision" transform="matrix(1,0,0,1,-322,-217)" stroke="white">
      <path d="M1141.2611 675.4299 L1217.0157 675.4299 L1208.5986 693.1235 L1217.0157 710.8172 L1141.2611 710.8172 L1132.8439 693.1235 Z" fill-rule="evenodd" clip-path="url(#clipPath2)" stroke="none"/>
    </g>
    <g text-rendering="geometricPrecision" stroke-miterlimit="1.45" stroke-dasharray="6,2" shape-rendering="geometricPrecision" transform="matrix(1,0,0,1,-322,-217)" stroke-linecap="butt">
      <path fill="none" d="M1141.2611 675.4299 L1217.0157 675.4299 L1208.5986 693.1235 L1217.0157 710.8172 L1141.2611 710.8172 L1132.8439 693.1235 Z" fill-rule="evenodd" clip-path="url(#clipPath2)"/>
      <text x="1169.2081" y="697.2778" clip-path="url(#clipPath2)" font-family="sans-serif" stroke-dasharray="none" stroke="none" xml:space="preserve">...</text>
    </g>
    <g text-rendering="geometricPrecision" stroke-miterlimit="1.45" shape-rendering="geometricPrecision" font-family="sans-serif" transform="matrix(-0,-1,1,-0,5.4926,225.2497)" stroke-linecap="butt">
      <text x="2" xml:space="preserve" y="13.1387" clip-path="url(#clipPath4)" stroke="none">World</text>
    </g>
    <g fill="rgb(255,204,0)" text-rendering="geometricPrecision" shape-rendering="geometricPrecision" transform="matrix(1,0,0,1,-322,-217)" stroke="rgb(255,204,0)">
      <rect x="649.986" width="161.8438" height="30" y="729" clip-path="url(#clipPath2)" stroke="none"/>
    </g>
    <g text-rendering="geometricPrecision" stroke-miterlimit="1.45" shape-rendering="geometricPrecision" transform="matrix(1,0,0,1,-322,-217)" stroke-linecap="butt">
      <rect fill="none" x="649.986" width="161.8438" height="30" y="729" clip-path="url(#clipPath2)"/>
      <text x="656.986" xml:space="preserve" y="748.1543" clip-path="url(#clipPath2)" font-family="sans-serif" stroke="none">Execution-Context Stack</text>
    </g>
    <g fill="rgb(255,204,0)" text-rendering="geometricPrecision" shape-rendering="geometricPrecision" transform="matrix(1,0,0,1,-322,-217)" stroke="rgb(255,204,0)">
      <rect x="866.2852" y="729" clip-path="url(#clipPath2)" width="132.4297" rx="4" ry="4" height="30" stroke="none"/>
    </g>
    <g text-rendering="geometricPrecision" stroke-miterlimit="1.45" shape-rendering="geometricPrecision" transform="matrix(1,0,0,1,-322,-217)" stroke-linecap="butt">
      <rect x="866.2852" y="729" clip-path="url(#clipPath2)" fill="none" width="132.4297" rx="4" ry="4" height="30"/>
      <text x="873.2852" xml:space="preserve" y="748.1543" clip-path="url(#clipPath2)" font-family="sans-serif" stroke="none">Choice-Point Queue</text>
      <text x="802.7791" xml:space="preserve" y="808.1543" clip-path="url(#clipPath2)" font-family="sans-serif" stroke="none">All locations</text>
      <path fill="none" d="M599.7847 640.326 L598.5807 643.4484 L597.9308 646.3757 L597.5725 649.4109 L597.5218 652.4669 L597.7746 655.4548 L599.1349 661.1628 L601.5415 666.407 L604.8828 671.0597 L609.0471 674.993 L613.9225 678.0791 L619.3974 680.1902 L622.3247 680.8402 L625.36 681.1985 L628.4159 681.2491 L631.4039 680.9963 L637.1118 679.6361 L642.356 677.2294 L647.0087 673.8881 L650.942 669.7239 L654.0281 664.8484 L656.1393 659.3735 L656.7892 656.4462 L657.1475 653.4109 L657.1701 652.049 L657.1539 651.9503" clip-path="url(#clipPath2)"/>
      <path d="M656.1572 644.0126 L652.6912 656.5421 L657.2784 652.9425 L662.6133 655.2962 Z" clip-path="url(#clipPath2)" stroke="none"/>
      <path fill="none" d="M552.7462 621.6234 L584.3825 621.6234" stroke-width="3" clip-path="url(#clipPath2)"/>
      <path d="M594.3825 621.6234 L579.3825 615.3734 L583.1325 621.6234 L579.3825 627.8734 Z" stroke-width="3" clip-path="url(#clipPath2)" stroke="none"/>
      <path fill="none" d="M617.8407 588.5507 L612.632 569.8062 L607.7075 543.7034 L605.076 517.4711 L604.7375 491.1093 L606.692 464.618 L608.4968 453.3064" clip-path="url(#clipPath2)"/>
      <path d="M609.7573 445.4063 L602.929 456.4686 L608.3393 454.2939 L612.8041 458.0442 Z" clip-path="url(#clipPath2)" stroke="none"/>
      <path fill="none" d="M655.6677 598.5986 L735.822 528.4468" clip-path="url(#clipPath2)"/>
      <path d="M741.8419 523.178 L729.519 527.3187 L735.0695 529.1054 L736.1049 534.8437 Z" clip-path="url(#clipPath2)" stroke="none"/>
      <path fill="none" d="M632.3994 379.5852 L635.741 373.1538 L646.1545 356.0592 L657.4235 340.2659 L669.5478 325.7738 L682.5275 312.5831 L696.3625 300.6937 L711.053 290.1055 L726.5988 280.8187 L742.9999 272.8331 L760.2565 266.1488 L778.3684 260.7659 L797.3357 256.6842 L816.4118 254.0085 L816.5115 254.0014" clip-path="url(#clipPath2)"/>
      <path d="M824.4873 253.3789 L812.1346 249.3277 L815.5146 254.0792 L812.9127 259.2974 Z" clip-path="url(#clipPath2)" stroke="none"/>
      <path fill="none" d="M826.131 263.2441 L823.804 264.014 L789.761 278.0977 L757.2407 294.4979 L726.2432 313.2146 L696.7683 334.2479 L668.8162 357.5977 L646.3707 379.3951 L646.3042 379.4698" clip-path="url(#clipPath2)"/>
      <path d="M640.687 385.166 L652.6729 380.1325 L647.0063 378.7578 L645.5527 373.111 Z" clip-path="url(#clipPath2)" stroke="none"/>
      <path fill="none" d="M908.8875 490.8715 L910.8079 491.7941 L913.688 492.8412 L916.7032 493.6062 L919.8395 494.0721 L923.0067 494.2197 L926.1128 494.0504 L929.1408 493.5784 L932.0738 492.8174 L937.5865 490.485 L942.5149 487.1649 L946.7229 482.9692 L950.0745 478.0097 L951.3867 475.2785 L952.4338 472.3983 L953.1988 469.3831 L953.6647 466.2469 L953.8123 463.0797 L953.643 459.9736 L953.171 456.9456 L952.41 454.0126 L950.0776 448.4999 L946.7575 443.5715 L942.5618 439.3635 L937.6023 436.0118 L934.8711 434.6996 L931.9909 433.6526 L928.9757 432.8876 L925.8395 432.4217 L922.6723 432.2741 L922.3912 432.2894 L922.2931 432.3088" clip-path="url(#clipPath2)"/>
      <path d="M914.3771 433.4649 L926.9736 436.6783 L923.2826 432.1643 L925.5286 426.7833 Z" clip-path="url(#clipPath2)" stroke="none"/>
      <path fill="none" d="M801.0499 489.5969 L851.0917 473.4507" clip-path="url(#clipPath2)"/>
      <path d="M858.7053 470.9942 L845.7497 469.9206 L850.1401 473.7578 L848.8204 479.4375 Z" clip-path="url(#clipPath2)" stroke="none"/>
      <path fill="none" d="M868.3416 486.0533 L864.9296 489.7729 L836.2028 516.6263 L805.8341 540.8071 L773.8233 562.3155 L740.1705 581.1512 L704.8757 597.3145 L670.7173 609.7905 L670.621 609.8174" clip-path="url(#clipPath2)"/>
      <path d="M662.9833 612.1979 L675.9276 613.4008 L671.5757 609.5199 L672.9521 603.8538 Z" clip-path="url(#clipPath2)" stroke="none"/>
      <path fill="none" d="M763.4179 465.56 L759.0629 432.8961" clip-path="url(#clipPath2)"/>
      <path d="M758.0056 424.9663 L754.6354 437.5218 L759.1951 433.8873 L764.5477 436.2002 Z" clip-path="url(#clipPath2)" stroke="none"/>
      <path fill="none" d="M843.9688 283.6463 L839.5291 291.8604 L827.9443 310.3888 L815.25 328.0649 L801.446 344.8888 L786.5325 360.8604 L786.2485 361.1284" clip-path="url(#clipPath2)"/>
      <path d="M780.4299 366.6187 L792.5892 362.0197 L786.9758 360.442 L785.7263 354.7466 Z" clip-path="url(#clipPath2)" stroke="none"/>
      <path fill="none" d="M734.9157 420.4554 L719.0993 446.3366 L687.0041 503.5959 L657.091 562.0249 L647.5076 582.6212" clip-path="url(#clipPath2)"/>
      <path d="M644.1327 589.8744 L653.7284 581.1038 L647.9295 581.7145 L644.6618 576.8852 Z" clip-path="url(#clipPath2)" stroke="none"/>
      <path fill="none" d="M767.392 357.8903 L771.5809 349.3765 L782.7565 330.5339 L795.3145 312.7531 L809.2548 296.0339 L824.5775 280.3765 L825.8941 279.2261" clip-path="url(#clipPath2)"/>
      <path d="M831.9185 273.9624 L819.5921 278.0927 L825.1411 279.8841 L826.1717 285.6232 Z" clip-path="url(#clipPath2)" stroke="none"/>
      <path fill="none" d="M785.7682 406.6019 L853.6165 440.8593" clip-path="url(#clipPath2)"/>
      <path d="M860.7578 444.4651 L852.2994 434.5931 L852.7238 440.4086 L847.7922 443.5198 Z" clip-path="url(#clipPath2)" stroke="none"/>
      <path fill="none" d="M800.873 511.4409 L903.3151 546.3699" clip-path="url(#clipPath2)"/>
      <path d="M910.887 548.9517 L901.1426 540.3466 L902.3686 546.0472 L897.9155 549.8115 Z" clip-path="url(#clipPath2)" stroke="none"/>
      <path fill="none" d="M927.8785 529.2166 L911.8685 498.4282" clip-path="url(#clipPath2)"/>
      <path d="M908.1777 491.3304 L909.2778 504.2838 L912.3299 499.3154 L918.15 499.6703 Z" clip-path="url(#clipPath2)" stroke="none"/>
      <path fill="none" d="M957.1801 527.7969 L962.0317 513.8876 L967.9764 491.55 L971.8784 469.7738 L973.7376 448.559 L973.5541 427.9055 L971.3279 407.8134 L967.059 388.2827 L960.7473 369.3134 L952.3929 350.9055 L941.9959 333.059 L929.5561 315.7738 L915.0736 299.05 L898.5483 282.8876 L893.3948 278.5575" clip-path="url(#clipPath2)"/>
      <path d="M887.2698 273.4112 L893.2408 284.9587 L894.1604 279.2007 L899.6737 277.3025 Z" clip-path="url(#clipPath2)" stroke="none"/>
      <path fill="none" d="M910.6083 570.7032 L905.5353 572.2911 L866.8127 583.0861 L827.8464 592.632 L788.6365 600.9286 L749.1829 607.9761 L709.4856 613.7744 L672.2126 618.0196 L672.113 618.0278" clip-path="url(#clipPath2)"/>
      <path d="M664.1473 618.7678 L676.5583 622.6364 L673.1087 617.9353 L675.6333 612.6792 Z" clip-path="url(#clipPath2)" stroke="none"/>
      <path fill="none" d="M886.5331 425.6787 L882.2579 398.7163" clip-path="url(#clipPath2)"/>
      <path d="M881.0051 390.815 L877.946 403.45 L882.4146 399.704 L887.8227 401.8839 Z" clip-path="url(#clipPath2)" stroke="none"/>
      <path fill="none" d="M972.6545 580.3711 L996.1802 596.9014" clip-path="url(#clipPath2)"/>
      <path d="M1002.7259 601.5008 L995.7819 590.5107 L995.362 596.3265 L990.0328 598.6928 Z" clip-path="url(#clipPath2)" stroke="none"/>
      <path fill="none" d="M892.5284 263.4994 L894.2665 264.0892 L925.9437 277.4307 L954.4012 292.2713 L979.639 308.6111 L1001.6573 326.4501 L1020.4561 345.7882 L1036.035 366.6255 L1048.3945 388.962 L1057.5343 412.7976 L1063.4546 438.1324 L1066.1552 464.9663 L1065.6361 493.2994 L1061.8975 523.1317 L1054.9392 554.4631 L1046.5878 581.402 L1046.5514 581.4952" clip-path="url(#clipPath2)"/>
      <path d="M1044.063 589.0983 L1052.5475 579.2488 L1046.8624 580.5447 L1043.0436 576.1384 Z" clip-path="url(#clipPath2)" stroke="none"/>
      <path fill="none" d="M997.0866 628.6368 L981.1134 631.9051 L930.8629 639.2491 L880.6124 643.6556 L830.3619 645.1244 L780.1115 643.6556 L729.861 639.2491 L679.6105 631.9051 L671.4749 630.2405" clip-path="url(#clipPath2)"/>
      <path d="M663.6373 628.6368 L674.3914 635.9408 L672.4546 630.4409 L676.396 626.1438 Z" clip-path="url(#clipPath2)" stroke="none"/>
      <path fill="none" d="M1038.2314 587.2892 L1041.9142 560.528 L1043.7555 531.5792 L1043.3075 503.6964 L1040.5702 476.8795 L1035.5437 451.1286 L1028.228 426.4436 L1018.623 402.8246 L1006.7287 380.2715 L992.5452 358.7845 L976.0724 338.3633 L957.3104 319.0081 L936.2592 300.7189 L912.9186 283.4956 L896.8345 273.356" clip-path="url(#clipPath2)"/>
      <path d="M890.067 269.0897 L897.5518 279.7188 L897.6804 273.8893 L902.8846 271.2595 Z" clip-path="url(#clipPath2)" stroke="none"/>
      <path fill="none" stroke-dasharray="6,2" d="M733.5787 503.5327 L685.2969 508.1359 L602.4503 512.2396 L519.5028 512.558 L473.688 510.6454" clip-path="url(#clipPath2)"/>
      <path stroke-dasharray="6,2" d="M469.6915 510.4786 L481.4308 516.9739 L469.6915 510.4786 L481.9313 504.9843 Z" clip-path="url(#clipPath2)" stroke="none"/>
      <path fill="none" stroke-miterlimit="10" d="M469.6915 510.4786 L481.4308 516.9739 L469.6915 510.4786 L481.9313 504.9843 Z" clip-path="url(#clipPath2)" stroke-linecap="square"/>
      <path fill="none" stroke-dasharray="6,2" d="M436.8792 491.4171 L437.986 445.384" clip-path="url(#clipPath2)"/>
      <path stroke-dasharray="6,2" d="M438.0821 441.3851 L431.7954 453.2374 L438.0821 441.3851 L443.7919 453.5259 Z" clip-path="url(#clipPath2)" stroke="none"/>
      <path fill="none" stroke-miterlimit="10" d="M438.0821 441.3851 L431.7954 453.2374 L438.0821 441.3851 L443.7919 453.5259 Z" clip-path="url(#clipPath2)" stroke-linecap="square"/>
      <path fill="none" stroke-dasharray="6,2" d="M438.9235 405.0099 L439.8892 361.4557" clip-path="url(#clipPath2)"/>
      <path stroke-dasharray="6,2" d="M439.9778 357.4567 L433.7133 369.3207 L439.9778 357.4567 L445.7104 369.5868 Z" clip-path="url(#clipPath2)" stroke="none"/>
      <path fill="none" stroke-miterlimit="10" d="M439.9778 357.4567 L433.7133 369.3207 L439.9778 357.4567 L445.7104 369.5868 Z" clip-path="url(#clipPath2)" stroke-linecap="square"/>
      <path fill="none" stroke-dasharray="6,2" d="M519.1552 330.7975 L552.2261 329.0402 L587.4557 330.5917 L622.0036 335.6031 L655.8696 344.0743 L689.0538 356.0053 L717.7853 369.6106 L717.8713 369.6616" clip-path="url(#clipPath2)"/>
      <path stroke-dasharray="6,2" d="M721.4625 371.4231 L713.3312 360.7516 L721.4625 371.4231 L708.0465 371.5252 Z" clip-path="url(#clipPath2)" stroke="none"/>
      <path fill="none" stroke-miterlimit="10" d="M721.4625 371.4231 L713.3312 360.7516 L721.4625 371.4231 L708.0465 371.5252 Z" clip-path="url(#clipPath2)" stroke-linecap="square"/>
      <path fill="none" stroke-dasharray="6,2" d="M977.4506 549.9294 L977.4833 549.9193 L1011.0493 542.1809 L1044.712 537.0317 L1078.4718 534.4717 L1112.3285 534.5008 L1146.2821 537.1191 L1171.8986 541.0368" clip-path="url(#clipPath2)"/>
      <path stroke-dasharray="6,2" d="M1175.8525 541.6415 L1164.8975 533.8964 L1175.8525 541.6415 L1163.0834 545.7585 Z" clip-path="url(#clipPath2)" stroke="none"/>
      <path fill="none" stroke-miterlimit="10" d="M1175.8525 541.6415 L1164.8975 533.8964 L1175.8525 541.6415 L1163.0834 545.7585 Z" clip-path="url(#clipPath2)" stroke-linecap="square"/>
      <path fill="none" stroke-dasharray="6,2" d="M1214.48 567.8238 L1214.48 592.7971" clip-path="url(#clipPath2)"/>
      <path stroke-dasharray="6,2" d="M1214.48 596.7971 L1220.48 584.7971 L1214.48 596.7971 L1208.48 584.7971 Z" clip-path="url(#clipPath2)" stroke="none"/>
      <path fill="none" stroke-miterlimit="10" d="M1214.48 596.7971 L1220.48 584.7971 L1214.48 596.7971 L1208.48 584.7971 Z" clip-path="url(#clipPath2)" stroke-linecap="square"/>
      <path fill="none" stroke-dasharray="6,2" d="M1215.3733 645.4288 L1216.4525 674.187" clip-path="url(#clipPath2)"/>
      <path stroke-dasharray="6,2" d="M1216.6025 678.1842 L1222.1483 665.9676 L1216.6025 678.1842 L1210.1567 666.4176 Z" clip-path="url(#clipPath2)" stroke="none"/>
      <path fill="none" stroke-miterlimit="10" d="M1216.6025 678.1842 L1222.1483 665.9676 L1216.6025 678.1842 L1210.1567 666.4176 Z" clip-path="url(#clipPath2)" stroke-linecap="square"/>
      <path fill="none" stroke-dasharray="6,2" d="M1136.8943 701.5999 L1125.6321 702.1671 L1114.7041 701.624 L1104.3347 699.9592 L1094.524 697.1729 L1085.2719 693.265 L1076.5782 688.2354 L1068.4434 682.0842 L1060.8669 674.8115 L1053.8491 666.4171 L1048.0918 657.9352 L1048.0433 657.8477" clip-path="url(#clipPath2)"/>
      <path stroke-dasharray="6,2" d="M1046.0234 654.3952 L1046.9043 667.7827 L1046.0234 654.3952 L1057.2618 661.723 Z" clip-path="url(#clipPath2)" stroke="none"/>
      <path fill="none" stroke-miterlimit="10" d="M1046.0234 654.3952 L1046.9043 667.7827 L1046.0234 654.3952 L1057.2618 661.723 Z" clip-path="url(#clipPath2)" stroke-linecap="square"/>
      <path fill="none" d="M1124.1865 293.64 L1280.3192 293.64" clip-path="url(#clipPath2)"/>
      <path d="M1288.3192 293.64 L1276.3192 288.64 L1279.3192 293.64 L1276.3192 298.64 Z" clip-path="url(#clipPath2)" stroke="none"/>
      <text x="1160.1292" xml:space="preserve" y="291.2931" clip-path="url(#clipPath2)" font-family="sans-serif" stroke="none">state transition</text>
      <path fill="none" stroke-dasharray="6,2" d="M1124.1865 340.4 L1283.3192 340.4" clip-path="url(#clipPath2)"/>
      <path stroke-dasharray="6,2" d="M1287.3192 340.4 L1275.3192 334.4 L1287.3192 340.4 L1275.3192 346.4 Z" clip-path="url(#clipPath2)" stroke="none"/>
      <path fill="none" stroke-miterlimit="10" d="M1287.3192 340.4 L1275.3192 334.4 L1287.3192 340.4 L1275.3192 346.4 Z" clip-path="url(#clipPath2)" stroke-linecap="square"/>
      <text x="1177.9773" xml:space="preserve" y="338.0531" clip-path="url(#clipPath2)" font-family="sans-serif" stroke="none">data flow</text>
      <path fill="none" stroke-dasharray="6,2" d="M405.0073 412.6908 L355.4721 412.6908" clip-path="url(#clipPath2)"/>
      <path stroke-dasharray="6,2" d="M351.4721 412.6908 L363.4721 418.6908 L351.4721 412.6908 L363.4721 406.6908 Z" clip-path="url(#clipPath2)" stroke="none"/>
      <path fill="none" stroke-miterlimit="10" d="M351.4721 412.6908 L363.4721 418.6908 L351.4721 412.6908 L363.4721 406.6908 Z" clip-path="url(#clipPath2)" stroke-linecap="square"/>
      <path fill="none" stroke-dasharray="6,2" d="M350.4823 432.5342 L399.989 432.5342" clip-path="url(#clipPath2)"/>
      <path stroke-dasharray="6,2" d="M403.989 432.5342 L391.989 426.5342 L403.989 432.5342 L391.989 438.5342 Z" clip-path="url(#clipPath2)" stroke="none"/>
      <path fill="none" stroke-miterlimit="10" d="M403.989 432.5342 L391.989 426.5342 L403.989 432.5342 L391.989 438.5342 Z" clip-path="url(#clipPath2)" stroke-linecap="square"/>
      <path fill="none" stroke-dasharray="6,2" d="M861.3033 744 L816.8608 744" clip-path="url(#clipPath2)"/>
      <path stroke-dasharray="6,2" d="M865.3033 744 L853.3033 738 L865.3033 744 L853.3033 750 Z" clip-path="url(#clipPath2)" stroke="none"/>
      <path fill="none" stroke-miterlimit="10" d="M865.3033 744 L853.3033 738 L865.3033 744 L853.3033 750 Z" clip-path="url(#clipPath2)" stroke-linecap="square"/>
      <path stroke-dasharray="6,2" d="M812.8608 744 L824.8608 750 L812.8608 744 L824.8608 738 Z" clip-path="url(#clipPath2)" stroke="none"/>
      <path fill="none" stroke-miterlimit="10" d="M812.8608 744 L824.8608 750 L812.8608 744 L824.8608 738 Z" clip-path="url(#clipPath2)" stroke-linecap="square"/>
      <path fill="none" stroke-dasharray="6,2" d="M926.483 763.5861 L926.4553 763.6822 L920.3893 776.5205 L911.5215 788.4006 L900.7787 797.3607 L888.1609 803.4006 L887.2461 803.5975" clip-path="url(#clipPath2)"/>
      <path stroke-dasharray="6,2" d="M927.8616 759.8312 L918.0934 769.0281 L927.8616 759.8312 L929.3583 773.1639 Z" clip-path="url(#clipPath2)" stroke="none"/>
      <path fill="none" stroke-miterlimit="10" d="M927.8616 759.8312 L918.0934 769.0281 L927.8616 759.8312 L929.3583 773.1639 Z" clip-path="url(#clipPath2)" stroke-linecap="square"/>
      <path stroke-dasharray="6,2" d="M883.3357 804.4393 L896.3297 807.7795 L883.3357 804.4393 L893.8043 796.0483 Z" clip-path="url(#clipPath2)" stroke="none"/>
      <path fill="none" stroke-miterlimit="10" d="M883.3357 804.4393 L896.3297 807.7795 L883.3357 804.4393 L893.8043 796.0483 Z" clip-path="url(#clipPath2)" stroke-linecap="square"/>
      <path fill="none" stroke-dasharray="6,2" d="M790.8167 807.7968 L784.4388 806.8476 L769.9827 801.0374 L757.4014 791.8476 L746.6953 779.2781 L738.0532 763.6705 L738.0193 763.5764" clip-path="url(#clipPath2)"/>
      <path stroke-dasharray="6,2" d="M794.7731 808.3856 L783.787 800.6845 L794.7731 808.3856 L782.0206 812.5538 Z" clip-path="url(#clipPath2)" stroke="none"/>
      <path fill="none" stroke-miterlimit="10" d="M794.7731 808.3856 L783.787 800.6845 L794.7731 808.3856 L782.0206 812.5538 Z" clip-path="url(#clipPath2)" stroke-linecap="square"/>
      <path stroke-dasharray="6,2" d="M736.6171 759.8303 L735.2047 773.1721 L736.6171 759.8303 L746.4431 768.9653 Z" clip-path="url(#clipPath2)" stroke="none"/>
      <path fill="none" stroke-miterlimit="10" d="M736.6171 759.8303 L735.2047 773.1721 L736.6171 759.8303 L746.4431 768.9653 Z" clip-path="url(#clipPath2)" stroke-linecap="square"/>
    </g>
  </g>
</svg>
