<?xml version="1.0" encoding="UTF-8" standalone="no"?><svg xmlns="http://www.w3.org/2000/svg" xmlns:xlink="http://www.w3.org/1999/xlink" contentScriptType="application/ecmascript" contentStyleType="text/css" height="264px" preserveAspectRatio="none" style="width:651px;height:264px;background:#FFFFFF;" version="1.1" viewBox="0 0 651 264" width="651px" zoomAndPan="magnify"><defs><filter height="300%" id="fgtbr0j5qtv4c" width="300%" x="-1" y="-1"><feGaussianBlur result="blurOut" stdDeviation="2.0"/><feColorMatrix in="blurOut" result="blurOut2" type="matrix" values="0 0 0 0 0 0 0 0 0 0 0 0 0 0 0 0 0 0 .4 0"/><feOffset dx="4.0" dy="4.0" in="blurOut2" result="blurOut3"/><feBlend in="SourceGraphic" in2="blurOut3" mode="normal"/></filter></defs><g><!--MD5=[6cd9f736112ee20bb06b06165711e212]
cluster Smile--><polygon fill="#FFFFFF" filter="url(#fgtbr0j5qtv4c)" points="234,174,282,174,289,196.2969,634,196.2969,634,257,234,257,234,174" style="stroke:#000000;stroke-width:1.5;"/><line style="stroke:#000000;stroke-width:1.5;" x1="234" x2="289" y1="196.2969" y2="196.2969"/><text fill="#000000" font-family="sans-serif" font-size="14" font-weight="bold" lengthAdjust="spacing" textLength="42" x="238" y="188.9951">Smile</text><!--MD5=[935b2239b908359b96d91221af8c29aa]
cluster 2P-Kt--><polygon fill="#FFFFFF" filter="url(#fgtbr0j5qtv4c)" points="16,174,65,174,72,196.2969,215,196.2969,215,257,16,257,16,174" style="stroke:#000000;stroke-width:1.5;"/><line style="stroke:#000000;stroke-width:1.5;" x1="16" x2="72" y1="196.2969" y2="196.2969"/><text fill="#000000" font-family="sans-serif" font-size="14" font-weight="bold" lengthAdjust="spacing" textLength="43" x="20" y="188.9951">2P-Kt</text><!--MD5=[f8b49f9524512fb09b13408ecf7ffd0b]
cluster Psyke--><polygon fill="#FFFFFF" filter="url(#fgtbr0j5qtv4c)" points="82,6,135,6,142,28.2969,517,28.2969,517,127,82,127,82,6" style="stroke:#000000;stroke-width:1.5;"/><line style="stroke:#000000;stroke-width:1.5;" x1="82" x2="142" y1="28.2969" y2="28.2969"/><text fill="#000000" font-family="sans-serif" font-size="14" font-weight="bold" lengthAdjust="spacing" textLength="47" x="86" y="20.9951">Psyke</text><!--MD5=[d6d03a24ddaddfc757d057c10e8a8b53]
class Regression--><rect codeLine="2" fill="#FEFECE" filter="url(#fgtbr0j5qtv4c)" height="48" id="Regression" style="stroke:#A80036;stroke-width:1.5;" width="113" x="242.5" y="201"/><ellipse cx="257.5" cy="217" fill="#B4A7E5" rx="11" ry="11" style="stroke:#A80036;stroke-width:1.0;"/><path d="M253.4219,212.7656 L253.4219,210.6094 L260.8125,210.6094 L260.8125,212.7656 L258.3438,212.7656 L258.3438,220.8438 L260.8125,220.8438 L260.8125,223 L253.4219,223 L253.4219,220.8438 L255.8906,220.8438 L255.8906,212.7656 L253.4219,212.7656 Z " fill="#000000"/><text fill="#000000" font-family="sans-serif" font-size="12" font-style="italic" lengthAdjust="spacing" textLength="70" x="271.5" y="221.1543">Regression</text><rect fill="#FFFFFF" height="15.9688" style="stroke:#000000;stroke-width:1.0;stroke-dasharray:2.0,2.0;" width="9" x="349.5" y="198"/><text fill="#000000" font-family="sans-serif" font-size="12" font-style="italic" lengthAdjust="spacing" textLength="7" x="350.5" y="210.1387">T</text><line style="stroke:#A80036;stroke-width:1.5;" x1="243.5" x2="354.5" y1="233" y2="233"/><line style="stroke:#A80036;stroke-width:1.5;" x1="243.5" x2="354.5" y1="241" y2="241"/><!--MD5=[e5192d39c070dac6a79b288c93719d10]
class Classifier--><rect codeLine="3" fill="#FEFECE" filter="url(#fgtbr0j5qtv4c)" height="48" id="Classifier" style="stroke:#A80036;stroke-width:1.5;" width="99" x="390.5" y="201"/><ellipse cx="405.5" cy="217" fill="#B4A7E5" rx="11" ry="11" style="stroke:#A80036;stroke-width:1.0;"/><path d="M401.4219,212.7656 L401.4219,210.6094 L408.8125,210.6094 L408.8125,212.7656 L406.3438,212.7656 L406.3438,220.8438 L408.8125,220.8438 L408.8125,223 L401.4219,223 L401.4219,220.8438 L403.8906,220.8438 L403.8906,212.7656 L401.4219,212.7656 Z " fill="#000000"/><text fill="#000000" font-family="sans-serif" font-size="12" font-style="italic" lengthAdjust="spacing" textLength="56" x="419.5" y="221.1543">Classifier</text><rect fill="#FFFFFF" height="15.9688" style="stroke:#000000;stroke-width:1.0;stroke-dasharray:2.0,2.0;" width="9" x="483.5" y="198"/><text fill="#000000" font-family="sans-serif" font-size="12" font-style="italic" lengthAdjust="spacing" textLength="7" x="484.5" y="210.1387">T</text><line style="stroke:#A80036;stroke-width:1.5;" x1="391.5" x2="488.5" y1="233" y2="233"/><line style="stroke:#A80036;stroke-width:1.5;" x1="391.5" x2="488.5" y1="241" y2="241"/><!--MD5=[1182380c4c765c1b1c19ec976452f089]
class DataFrame--><rect codeLine="4" fill="#FEFECE" filter="url(#fgtbr0j5qtv4c)" height="48" id="DataFrame" style="stroke:#A80036;stroke-width:1.5;" width="101" x="524.5" y="201"/><ellipse cx="539.5" cy="217" fill="#B4A7E5" rx="11" ry="11" style="stroke:#A80036;stroke-width:1.0;"/><path d="M535.4219,212.7656 L535.4219,210.6094 L542.8125,210.6094 L542.8125,212.7656 L540.3438,212.7656 L540.3438,220.8438 L542.8125,220.8438 L542.8125,223 L535.4219,223 L535.4219,220.8438 L537.8906,220.8438 L537.8906,212.7656 L535.4219,212.7656 Z " fill="#000000"/><text fill="#000000" font-family="sans-serif" font-size="12" font-style="italic" lengthAdjust="spacing" textLength="69" x="553.5" y="221.1543">DataFrame</text><line style="stroke:#A80036;stroke-width:1.5;" x1="525.5" x2="624.5" y1="233" y2="233"/><line style="stroke:#A80036;stroke-width:1.5;" x1="525.5" x2="624.5" y1="241" y2="241"/><!--MD5=[3d9a9201f4e3c24a3b32edb25b35db95]
class Clause--><rect codeLine="8" fill="#FEFECE" filter="url(#fgtbr0j5qtv4c)" height="48" id="Clause" style="stroke:#A80036;stroke-width:1.5;" width="74" x="133" y="201"/><ellipse cx="148" cy="217" fill="#B4A7E5" rx="11" ry="11" style="stroke:#A80036;stroke-width:1.0;"/><path d="M143.9219,212.7656 L143.9219,210.6094 L151.3125,210.6094 L151.3125,212.7656 L148.8438,212.7656 L148.8438,220.8438 L151.3125,220.8438 L151.3125,223 L143.9219,223 L143.9219,220.8438 L146.3906,220.8438 L146.3906,212.7656 L143.9219,212.7656 Z " fill="#000000"/><text fill="#000000" font-family="sans-serif" font-size="12" font-style="italic" lengthAdjust="spacing" textLength="42" x="162" y="221.1543">Clause</text><line style="stroke:#A80036;stroke-width:1.5;" x1="134" x2="206" y1="233" y2="233"/><line style="stroke:#A80036;stroke-width:1.5;" x1="134" x2="206" y1="241" y2="241"/><!--MD5=[edea06a7d58d16627e96798795365c36]
class Theory--><rect codeLine="9" fill="#FEFECE" filter="url(#fgtbr0j5qtv4c)" height="48" id="Theory" style="stroke:#A80036;stroke-width:1.5;" width="74" x="24" y="201"/><ellipse cx="39" cy="217" fill="#B4A7E5" rx="11" ry="11" style="stroke:#A80036;stroke-width:1.0;"/><path d="M34.9219,212.7656 L34.9219,210.6094 L42.3125,210.6094 L42.3125,212.7656 L39.8438,212.7656 L39.8438,220.8438 L42.3125,220.8438 L42.3125,223 L34.9219,223 L34.9219,220.8438 L37.3906,220.8438 L37.3906,212.7656 L34.9219,212.7656 Z " fill="#000000"/><text fill="#000000" font-family="sans-serif" font-size="12" font-style="italic" lengthAdjust="spacing" textLength="42" x="53" y="221.1543">Theory</text><line style="stroke:#A80036;stroke-width:1.5;" x1="25" x2="97" y1="233" y2="233"/><line style="stroke:#A80036;stroke-width:1.5;" x1="25" x2="97" y1="241" y2="241"/><!--MD5=[20080be7d9e2470b3df5c67a700ed6c2]
class Extractor--><rect codeLine="15" fill="#FEFECE" filter="url(#fgtbr0j5qtv4c)" height="86.4141" id="Extractor" style="stroke:#A80036;stroke-width:1.5;" width="268" x="241" y="33"/><ellipse cx="256" cy="49" fill="#B4A7E5" rx="11" ry="11" style="stroke:#A80036;stroke-width:1.0;"/><path d="M251.9219,44.7656 L251.9219,42.6094 L259.3125,42.6094 L259.3125,44.7656 L256.8438,44.7656 L256.8438,52.8438 L259.3125,52.8438 L259.3125,55 L251.9219,55 L251.9219,52.8438 L254.3906,52.8438 L254.3906,44.7656 L251.9219,44.7656 Z " fill="#000000"/><text fill="#000000" font-family="sans-serif" font-size="12" font-style="italic" lengthAdjust="spacing" textLength="57" x="270" y="53.1543">Extractor</text><rect fill="#FFFFFF" height="15.9688" style="stroke:#000000;stroke-width:1.0;stroke-dasharray:2.0,2.0;" width="177" x="335" y="30"/><text fill="#000000" font-family="sans-serif" font-size="12" font-style="italic" lengthAdjust="spacing" textLength="175" x="336" y="42.1387">T, P : ToDoubleFunction&lt;T&gt;</text><line style="stroke:#A80036;stroke-width:1.5;" x1="242" x2="508" y1="65" y2="65"/><ellipse cx="252" cy="76" rx="3" ry="3" style="stroke:#038048;stroke-width:1.0;fill:none;"/><text fill="#000000" font-family="sans-serif" font-size="11" lengthAdjust="spacing" textLength="66" x="261" y="79.2104">predictor: P</text><ellipse cx="252" cy="88.8047" rx="3" ry="3" style="stroke:#038048;stroke-width:1.0;fill:none;"/><text fill="#000000" font-family="sans-serif" font-size="11" lengthAdjust="spacing" textLength="159" x="261" y="92.0151">discretization: Discretization</text><line style="stroke:#A80036;stroke-width:1.5;" x1="242" x2="508" y1="98.6094" y2="98.6094"/><ellipse cx="252" cy="109.6094" fill="#84BE84" rx="3" ry="3" style="stroke:#038048;stroke-width:1.0;"/><text fill="#000000" font-family="sans-serif" font-size="11" lengthAdjust="spacing" textLength="156" x="261" y="112.8198">extract(DataFrame): Theory</text><!--MD5=[5cea65e35c00b3ed9238677b07778542]
class Discretization--><rect codeLine="21" fill="#FEFECE" filter="url(#fgtbr0j5qtv4c)" height="48" id="Discretization" style="stroke:#A80036;stroke-width:1.5;" width="116" x="90" y="52"/><ellipse cx="105" cy="68" fill="#ADD1B2" rx="11" ry="11" style="stroke:#A80036;stroke-width:1.0;"/><path d="M107.9688,73.6406 Q107.3906,73.9375 106.75,74.0781 Q106.1094,74.2344 105.4063,74.2344 Q102.9063,74.2344 101.5781,72.5938 Q100.2656,70.9375 100.2656,67.8125 Q100.2656,64.6875 101.5781,63.0313 Q102.9063,61.375 105.4063,61.375 Q106.1094,61.375 106.75,61.5313 Q107.4063,61.6875 107.9688,61.9844 L107.9688,64.7031 Q107.3438,64.125 106.75,63.8594 Q106.1563,63.5781 105.5313,63.5781 Q104.1875,63.5781 103.5,64.6563 Q102.8125,65.7188 102.8125,67.8125 Q102.8125,69.9063 103.5,70.9844 Q104.1875,72.0469 105.5313,72.0469 Q106.1563,72.0469 106.75,71.7813 Q107.3438,71.5 107.9688,70.9219 L107.9688,73.6406 Z " fill="#000000"/><text fill="#000000" font-family="sans-serif" font-size="12" lengthAdjust="spacing" textLength="84" x="119" y="72.1543">Discretization</text><line style="stroke:#A80036;stroke-width:1.5;" x1="91" x2="205" y1="84" y2="84"/><line style="stroke:#A80036;stroke-width:1.5;" x1="91" x2="205" y1="92" y2="92"/><!--MD5=[82eb9be5699e10ed4ac311270b68a918]
reverse link Theory to Clause--><path codeLine="11" d="M111.1133,225 C118.3746,225 125.6359,225 132.8972,225 " fill="none" id="Theory-backto-Clause" style="stroke:#A80036;stroke-width:1.0;"/><polygon fill="#A80036" points="98.043,225,104.043,229,110.043,225,104.043,221,98.043,225" style="stroke:#A80036;stroke-width:1.0;"/><text fill="#000000" font-family="sans-serif" font-size="13" lengthAdjust="spacing" textLength="0" x="110.0956" y="220.5337"/><text fill="#000000" font-family="sans-serif" font-size="13" lengthAdjust="spacing" textLength="7" x="117.9035" y="220.6034">*</text><!--MD5=[f9a5e9cf0621170c47fd4ed6abffc2bc]
link Discretization to Extractor--><path codeLine="23" d="M206.0801,76 C213.2069,76 220.3337,76 227.4606,76 " fill="none" id="Discretization-to-Extractor" style="stroke:#A80036;stroke-width:1.0;"/><polygon fill="#A80036" points="240.7219,76,234.7219,72,228.7219,76,234.7219,80,240.7219,76" style="stroke:#A80036;stroke-width:1.0;"/><text fill="#000000" font-family="sans-serif" font-size="13" lengthAdjust="spacing" textLength="8" x="214.0341" y="72.1145">1</text><text fill="#000000" font-family="sans-serif" font-size="13" lengthAdjust="spacing" textLength="0" x="232.8433" y="72.6252"/><!--MD5=[db71bafc3ed2a758accf0954d6e049c9]
link Extractor to Regression--><path codeLine="26" d="M353.0177,119.097 C340.33,143.9715 324.7262,174.563 313.5571,196.4604 " fill="none" id="Extractor-to-Regression" style="stroke:#A80036;stroke-width:1.0;"/><polygon fill="#A80036" points="311.2437,200.9959,318.8963,194.7961,313.5156,196.5419,311.7698,191.1611,311.2437,200.9959" style="stroke:#A80036;stroke-width:1.0;"/><text fill="#000000" font-family="sans-serif" font-size="13" lengthAdjust="spacing" textLength="55" x="338" y="162.0669">may use</text><!--MD5=[bc0b5fa943d422a7a80ed6e8f3e9fe54]
link Extractor to Classifier--><path codeLine="27" d="M393.8007,119.097 C404.6066,143.8675 417.8857,174.3071 427.4297,196.1851 " fill="none" id="Extractor-to-Classifier" style="stroke:#A80036;stroke-width:1.0;"/><polygon fill="#A80036" points="429.5284,200.9959,429.596,191.1473,427.5291,196.413,422.2634,194.3461,429.5284,200.9959" style="stroke:#A80036;stroke-width:1.0;"/><text fill="#000000" font-family="sans-serif" font-size="13" lengthAdjust="spacing" textLength="55" x="414" y="162.0669">may use</text><!--MD5=[a948defa09a330c8d420f7b00467392f]
link DataFrame to Extractor--><path codeLine="29" d="M544.7088,200.6602 C525.7228,185.5564 500.641,165.8778 478,149 C466.1592,140.1733 453.4157,130.9356 441.0651,122.1149 " fill="none" id="DataFrame-to-Extractor" style="stroke:#A80036;stroke-width:1.0;"/><polygon fill="#A80036" points="436.8936,119.1407,441.8996,127.6224,440.9648,122.0433,446.5439,121.1085,436.8936,119.1407" style="stroke:#A80036;stroke-width:1.0;"/><text fill="#000000" font-family="sans-serif" font-size="13" lengthAdjust="spacing" textLength="48" x="500" y="162.0669">input of</text><!--MD5=[0042e1cd7ea1f958bbcbb6476abcba93]
link Extractor to Theory--><path codeLine="30" d="M246.669,119.0593 C193.3767,138.0288 138.5206,159.2981 115,174 C104.6666,180.459 94.6039,189.099 86.02,197.4296 " fill="none" id="Extractor-to-Theory" style="stroke:#A80036;stroke-width:1.0;"/><polygon fill="#A80036" points="82.4353,200.9737,91.6478,197.4908,85.991,197.4584,86.0233,191.8017,82.4353,200.9737" style="stroke:#A80036;stroke-width:1.0;"/><text fill="#000000" font-family="sans-serif" font-size="13" lengthAdjust="spacing" textLength="58" x="164" y="162.0669">output of</text><!--MD5=[5d528c06783d05c8fdd42ffe8d8d2d20]
@startuml
package Smile {
  interface Regression<T>
  interface Classifier<T>
  interface DataFrame
}

package 2P-Kt {
  interface Clause
  interface Theory
  
  Theory " " *-right- "*" Clause
}

package Psyke {
  interface Extractor<T, P : ToDoubleFunction<T>> {
    + predictor: P
    + discretization: Discretization
    + extract(DataFrame): Theory
  }
  
  class Discretization
  
  Discretization "1" -right-* " " Extractor
}

Extractor - -> Regression: may use
Extractor - -> Classifier: may use

DataFrame - -> Extractor: input of
Extractor - -> Theory: output of
@enduml

PlantUML version 1.2021.7(Sun May 23 12:40:07 UTC 2021)
(GPL source distribution)
Java Runtime: OpenJDK Runtime Environment
JVM: OpenJDK 64-Bit Server VM
Default Encoding: UTF-8
Language: en
Country: US
--></g></svg>