<?xml version="1.0" encoding="UTF-8"?><svg xmlns="http://www.w3.org/2000/svg" xmlns:xlink="http://www.w3.org/1999/xlink" fill-opacity="1" color-rendering="auto" color-interpolation="auto" text-rendering="auto" stroke="black" stroke-linecap="square" width="521" stroke-miterlimit="10" shape-rendering="auto" stroke-opacity="1" fill="black" stroke-dasharray="none" font-weight="normal" stroke-width="1" height="248" font-family="'Dialog'" font-style="normal" stroke-linejoin="miter" font-size="12px" stroke-dashoffset="0" image-rendering="auto">
  <!--Generated by ySVG 2.5-->
  <defs id="genericDefs"/>
  <g>
    <defs id="defs1">
      <clipPath clipPathUnits="userSpaceOnUse" id="clipPath1">
        <path d="M0 0 L521 0 L521 248 L0 248 L0 0 Z"/>
      </clipPath>
      <clipPath clipPathUnits="userSpaceOnUse" id="clipPath2">
        <path d="M362 299 L883 299 L883 547 L362 547 L362 299 Z"/>
      </clipPath>
    </defs>
    <g fill="rgb(255,255,153)" text-rendering="geometricPrecision" shape-rendering="geometricPrecision" transform="matrix(1,0,0,1,-362,-299)" stroke="rgb(255,255,153)">
      <rect x="515.5312" width="74.9375" height="35.3872" y="401.3064" clip-path="url(#clipPath2)" stroke="none"/>
    </g>
    <g text-rendering="geometricPrecision" stroke-miterlimit="1.45" shape-rendering="geometricPrecision" transform="matrix(1,0,0,1,-362,-299)" stroke-linecap="butt">
      <rect fill="none" x="515.5312" width="74.9375" height="35.3872" y="401.3064" clip-path="url(#clipPath2)"/>
      <text x="527.7314" xml:space="preserve" y="423.5352" clip-path="url(#clipPath2)" font-family="sans-serif" stroke="none">Primitive</text>
    </g>
    <g fill="white" text-rendering="geometricPrecision" shape-rendering="geometricPrecision" transform="matrix(1,0,0,1,-362,-299)" stroke="white">
      <path d="M377.1502 401.3064 L448.3325 401.3064 L456.2416 419 L448.3325 436.6936 L377.1502 436.6936 L385.0593 419 Z" fill-rule="evenodd" clip-path="url(#clipPath2)" stroke="none"/>
    </g>
    <g text-rendering="geometricPrecision" stroke-miterlimit="1.45" shape-rendering="geometricPrecision" transform="matrix(1,0,0,1,-362,-299)" stroke-linecap="butt">
      <path fill="none" d="M377.1502 401.3064 L448.3325 401.3064 L456.2416 419 L448.3325 436.6936 L377.1502 436.6936 L385.0593 419 Z" fill-rule="evenodd" clip-path="url(#clipPath2)"/>
      <text x="393.4137" xml:space="preserve" y="423.5352" clip-path="url(#clipPath2)" font-family="sans-serif" stroke="none">Request</text>
    </g>
    <g fill="white" text-rendering="geometricPrecision" shape-rendering="geometricPrecision" transform="matrix(1,0,0,1,-362,-299)" stroke="white">
      <path d="M626.0055 401.3064 L701.7601 401.3064 L710.1774 419 L701.7601 436.6936 L626.0055 436.6936 L634.4227 419 Z" fill-rule="evenodd" clip-path="url(#clipPath2)" stroke="none"/>
    </g>
    <g text-rendering="geometricPrecision" stroke-miterlimit="1.45" shape-rendering="geometricPrecision" transform="matrix(1,0,0,1,-362,-299)" stroke-linecap="butt">
      <path fill="none" d="M626.0055 401.3064 L701.7601 401.3064 L710.1774 419 L701.7601 436.6936 L626.0055 436.6936 L634.4227 419 Z" fill-rule="evenodd" clip-path="url(#clipPath2)"/>
      <text x="640.3092" xml:space="preserve" y="423.5352" clip-path="url(#clipPath2)" font-family="sans-serif" stroke="none">Response</text>
    </g>
    <g fill="white" text-rendering="geometricPrecision" shape-rendering="geometricPrecision" transform="matrix(1,0,0,1,-362,-299)" stroke="white">
      <path d="M704.6136 401.3064 L780.3683 401.3064 L788.7855 419 L780.3683 436.6936 L704.6136 436.6936 L713.0309 419 Z" fill-rule="evenodd" clip-path="url(#clipPath2)" stroke="none"/>
    </g>
    <g text-rendering="geometricPrecision" stroke-miterlimit="1.45" shape-rendering="geometricPrecision" transform="matrix(1,0,0,1,-362,-299)" stroke-linecap="butt">
      <path fill="none" d="M704.6136 401.3064 L780.3683 401.3064 L788.7855 419 L780.3683 436.6936 L704.6136 436.6936 L713.0309 419 Z" fill-rule="evenodd" clip-path="url(#clipPath2)"/>
      <text x="718.9174" xml:space="preserve" y="423.5352" clip-path="url(#clipPath2)" font-family="sans-serif" stroke="none">Response</text>
    </g>
    <g fill="white" text-rendering="geometricPrecision" shape-rendering="geometricPrecision" transform="matrix(1,0,0,1,-362,-299)" stroke="white">
      <path d="M783.2219 401.3064 L858.9766 401.3064 L867.3937 419 L858.9766 436.6936 L783.2219 436.6936 L791.639 419 Z" fill-rule="evenodd" clip-path="url(#clipPath2)" stroke="none"/>
    </g>
    <g text-rendering="geometricPrecision" stroke-miterlimit="1.45" stroke-dasharray="6,2" shape-rendering="geometricPrecision" transform="matrix(1,0,0,1,-362,-299)" stroke-linecap="butt">
      <path fill="none" d="M783.2219 401.3064 L858.9766 401.3064 L867.3937 419 L858.9766 436.6936 L783.2219 436.6936 L791.639 419 Z" fill-rule="evenodd" clip-path="url(#clipPath2)"/>
      <text x="819.6125" y="423.5352" clip-path="url(#clipPath2)" font-family="sans-serif" stroke-dasharray="none" stroke="none" xml:space="preserve">...</text>
      <text x="689.2487" y="456.2288" clip-path="url(#clipPath2)" font-family="sans-serif" stroke-dasharray="none" stroke="none" xml:space="preserve">Response Stream</text>
      <text x="536.2158" y="334.2048" clip-path="url(#clipPath2)" font-family="sans-serif" stroke-dasharray="none" stroke="none" xml:space="preserve">World</text>
    </g>
    <g fill="white" text-rendering="geometricPrecision" shape-rendering="geometricPrecision" transform="matrix(1,0,0,1,-362,-299)" stroke="white">
      <circle r="6.808" clip-path="url(#clipPath2)" cx="553" cy="466.3336" stroke="none"/>
    </g>
    <g text-rendering="geometricPrecision" stroke-miterlimit="1.45" shape-rendering="geometricPrecision" transform="matrix(1,0,0,1,-362,-299)" stroke-linecap="butt">
      <circle fill="none" r="6.808" clip-path="url(#clipPath2)" cx="553" cy="466.3336"/>
    </g>
    <g fill="rgb(255,255,153)" text-rendering="geometricPrecision" shape-rendering="geometricPrecision" transform="matrix(1,0,0,1,-362,-299)" stroke="rgb(255,255,153)">
      <rect x="527.1445" width="51.7109" height="35.3872" y="495.9736" clip-path="url(#clipPath2)" stroke="none"/>
    </g>
    <g text-rendering="geometricPrecision" stroke-miterlimit="1.45" shape-rendering="geometricPrecision" transform="matrix(1,0,0,1,-362,-299)" stroke-linecap="butt">
      <rect fill="none" x="527.1445" width="51.7109" height="35.3872" y="495.9736" clip-path="url(#clipPath2)"/>
      <text x="535.4453" xml:space="preserve" y="518.2024" clip-path="url(#clipPath2)" font-family="sans-serif" stroke="none">Solver</text>
      <path fill="none" d="M456.2627 419 L507.5312 419" clip-path="url(#clipPath2)"/>
      <path d="M515.5312 419 L503.5312 414 L506.5312 419 L503.5312 424 Z" clip-path="url(#clipPath2)" stroke="none"/>
      <path fill="none" d="M590.4688 419 L626.3968 419" clip-path="url(#clipPath2)"/>
      <path d="M634.3968 419 L622.3968 414 L625.3968 419 L622.3968 424 Z" clip-path="url(#clipPath2)" stroke="none"/>
      <path fill="none" d="M533.1908 401.2981 L532.2479 352.6902" clip-path="url(#clipPath2)"/>
      <path d="M532.0927 344.6917 L527.3264 356.7865 L532.2673 353.6901 L537.3245 356.5925 Z" clip-path="url(#clipPath2)" stroke="none"/>
      <path fill="none" d="M577.5893 344.6917 L576.4808 393.3066" clip-path="url(#clipPath2)"/>
      <path d="M576.2985 401.3046 L581.5707 389.4217 L576.5036 392.3069 L571.5733 389.1937 Z" clip-path="url(#clipPath2)" stroke="none"/>
      <path fill="none" d="M553 436.6936 L553 459.5256" clip-path="url(#clipPath2)"/>
      <path fill="none" d="M735.6826 466.6711 L734.0491 473.7929 L732.5684 478.2035 L730.1999 482.3947 L726.9435 486.3664 L722.7994 490.1187 L717.7676 493.6515 L711.8479 496.9649 L705.0404 500.0588 L697.3451 502.9333 L690.1104 505.3909 L672.9262 510.1511 L653.9305 513.3723 L633.1232 515.0545 L610.5045 515.1978 L586.8574 514.5684" clip-path="url(#clipPath2)"/>
      <path d="M578.8602 514.3555 L590.7228 519.6731 L587.857 514.595 L590.989 509.6766 Z" clip-path="url(#clipPath2)" stroke="none"/>
      <path fill="none" d="M553 495.9736 L553 473.1416" clip-path="url(#clipPath2)"/>
      <path d="M549 481.1416 L557 481.1416 Z" clip-path="url(#clipPath2)" stroke="none"/>
      <path fill="none" stroke-miterlimit="10" d="M549 481.1416 L557 481.1416 Z" clip-path="url(#clipPath2)" stroke-linecap="square"/>
      <text x="569.7949" xml:space="preserve" y="472.1968" clip-path="url(#clipPath2)" font-family="sans-serif" stroke="none">Signature</text>
      <path fill="none" d="M527.1326 516.5709 L525.6078 516.7421 L513.021 516.6822 L501.1739 515.5574 L490.0663 513.3678 L479.6983 510.1133 L470.0699 505.7939 L461.1812 500.4096 L453.0319 493.9605 L445.6223 486.4465 L438.9523 477.8676 L433.0218 468.2238 L427.831 457.5152 L423.3797 445.7417 L423.0546 444.4411" clip-path="url(#clipPath2)"/>
      <path d="M421.1147 436.6798 L419.1737 449.5341 L423.2971 445.4112 L428.8753 447.1093 Z" clip-path="url(#clipPath2)" stroke="none"/>
    </g>
  </g>
</svg>
