<?xml version="1.0" encoding="UTF-8"?><svg xmlns="http://www.w3.org/2000/svg" xmlns:xlink="http://www.w3.org/1999/xlink" fill-opacity="1" color-rendering="auto" color-interpolation="auto" text-rendering="auto" stroke="black" stroke-linecap="square" width="771" stroke-miterlimit="10" shape-rendering="auto" stroke-opacity="1" fill="black" stroke-dasharray="none" font-weight="normal" stroke-width="1" height="395" font-family="'Dialog'" font-style="normal" stroke-linejoin="miter" font-size="12px" stroke-dashoffset="0" image-rendering="auto">
  <!--Generated by ySVG 2.5-->
  <defs id="genericDefs"/>
  <g>
    <defs id="defs1">
      <linearGradient x1="673.7145" gradientUnits="userSpaceOnUse" x2="704.5518" y1="241.3201" y2="241.3201" id="linearGradient1" spreadMethod="reflect">
        <stop stop-opacity="1" stop-color="rgb(153,204,0)" offset="0%"/>
        <stop stop-opacity="1" stop-color="rgb(0,204,255)" offset="100%"/>
      </linearGradient>
      <clipPath clipPathUnits="userSpaceOnUse" id="clipPath1">
        <path d="M0 0 L771 0 L771 395 L0 395 L0 0 Z"/>
      </clipPath>
      <clipPath clipPathUnits="userSpaceOnUse" id="clipPath2">
        <path d="M385 236 L1156 236 L1156 631 L385 631 L385 236 Z"/>
      </clipPath>
      <clipPath clipPathUnits="userSpaceOnUse" id="clipPath3">
        <path d="M-709.5797 -104.5543 L62.2325 -104.5543 L62.2325 290.4457 L-709.5797 290.4457 L-709.5797 -104.5543 Z"/>
      </clipPath>
      <clipPath clipPathUnits="userSpaceOnUse" id="clipPath4">
        <path d="M381 232 L1152 232 L1152 627 L381 627 L381 232 Z"/>
      </clipPath>
    </defs>
    <g fill="white" text-rendering="geometricPrecision" shape-rendering="geometricPrecision" transform="translate(-385,-236)" stroke="white">
      <rect x="385" width="771" height="395" y="236" clip-path="url(#clipPath2)" stroke="none"/>
    </g>
    <g fill="rgb(255,204,0)" text-rendering="geometricPrecision" shape-rendering="geometricPrecision" transform="matrix(1,0,0,1,-385,-236)" stroke="rgb(255,204,0)">
      <rect x="658.2959" y="354.0903" clip-path="url(#clipPath2)" width="84.1437" rx="4" ry="4" height="39.6899" stroke="none"/>
    </g>
    <g text-rendering="geometricPrecision" stroke-miterlimit="1.45" shape-rendering="geometricPrecision" transform="matrix(1,0,0,1,-385,-236)" stroke-linecap="butt">
      <rect x="658.2959" y="354.0903" clip-path="url(#clipPath2)" fill="none" width="84.1437" rx="4" ry="4" height="39.6899"/>
      <text x="672.7408" xml:space="preserve" y="378.0896" clip-path="url(#clipPath2)" font-family="sans-serif" stroke="none">Extractor</text>
    </g>
    <g fill="white" text-rendering="geometricPrecision" shape-rendering="geometricPrecision" transform="matrix(1,0,0,1,-385,-236)" stroke="white">
      <rect x="420.7305" width="60.9922" height="30" y="358.9353" clip-path="url(#clipPath2)" stroke="none"/>
    </g>
    <g text-rendering="geometricPrecision" stroke-miterlimit="1.45" shape-rendering="geometricPrecision" transform="matrix(1,0,0,1,-385,-236)" stroke-linecap="butt">
      <rect fill="none" x="420.7305" width="60.9922" height="30" y="358.9353" clip-path="url(#clipPath2)"/>
      <text x="427.7305" xml:space="preserve" y="378.0896" clip-path="url(#clipPath2)" font-family="sans-serif" stroke="none">Dataset</text>
    </g>
    <g fill="white" text-rendering="geometricPrecision" shape-rendering="geometricPrecision" transform="matrix(1,0,0,1,-385,-236)" stroke="white">
      <rect x="549.8976" width="68.082" height="30" y="424.7709" clip-path="url(#clipPath2)" stroke="none"/>
    </g>
    <g text-rendering="geometricPrecision" stroke-miterlimit="1.45" shape-rendering="geometricPrecision" transform="matrix(1,0,0,1,-385,-236)" stroke-linecap="butt">
      <rect fill="none" x="549.8976" width="68.082" height="30" y="424.7709" clip-path="url(#clipPath2)"/>
      <text x="556.8976" xml:space="preserve" y="443.9252" clip-path="url(#clipPath2)" font-family="sans-serif" stroke="none">Predictor</text>
    </g>
    <g fill="white" text-rendering="geometricPrecision" shape-rendering="geometricPrecision" transform="matrix(1,0,0,1,-385,-236)" stroke="white">
      <rect x="790.2008" width="91.0859" height="30" y="358.9353" clip-path="url(#clipPath2)" stroke="none"/>
    </g>
    <g text-rendering="geometricPrecision" stroke-miterlimit="1.45" shape-rendering="geometricPrecision" transform="matrix(1,0,0,1,-385,-236)" stroke-linecap="butt">
      <rect fill="none" x="790.2008" width="91.0859" height="30" y="358.9353" clip-path="url(#clipPath2)"/>
      <text x="797.2009" xml:space="preserve" y="378.0896" clip-path="url(#clipPath2)" font-family="sans-serif" stroke="none">Logic Theory</text>
    </g>
    <g fill="rgb(255,204,0)" text-rendering="geometricPrecision" shape-rendering="geometricPrecision" transform="matrix(1,0,0,1,-385,-236)" stroke="rgb(255,204,0)">
      <rect x="390.9444" y="424.7709" clip-path="url(#clipPath2)" width="120.5645" rx="4" ry="4" height="30" stroke="none"/>
    </g>
    <g text-rendering="geometricPrecision" stroke-miterlimit="1.45" shape-rendering="geometricPrecision" transform="matrix(1,0,0,1,-385,-236)" stroke-linecap="butt">
      <rect x="390.9444" y="424.7709" clip-path="url(#clipPath2)" fill="none" width="120.5645" rx="4" ry="4" height="30"/>
      <text x="397.9444" xml:space="preserve" y="443.9252" clip-path="url(#clipPath2)" font-family="sans-serif" stroke="none">Machine Learning</text>
    </g>
    <g fill="rgb(153,204,0)" text-rendering="geometricPrecision" shape-rendering="geometricPrecision" transform="matrix(1,0,0,1,-385,-236)" stroke="rgb(153,204,0)">
      <rect x="499.0549" width="68.7793" height="30" y="504.6788" clip-path="url(#clipPath2)" stroke="none"/>
    </g>
    <g text-rendering="geometricPrecision" stroke-miterlimit="1.45" shape-rendering="geometricPrecision" transform="matrix(1,0,0,1,-385,-236)" stroke-linecap="butt">
      <rect fill="none" x="499.0549" width="68.7793" height="30" y="504.6788" clip-path="url(#clipPath2)"/>
      <text x="506.0549" xml:space="preserve" y="523.8331" clip-path="url(#clipPath2)" font-family="sans-serif" stroke="none">Classifier</text>
    </g>
    <g fill="rgb(0,204,255)" text-rendering="geometricPrecision" shape-rendering="geometricPrecision" transform="matrix(1,0,0,1,-385,-236)" stroke="rgb(0,204,255)">
      <rect x="594.8908" width="74.4336" height="30" y="504.6788" clip-path="url(#clipPath2)" stroke="none"/>
    </g>
    <g text-rendering="geometricPrecision" stroke-miterlimit="1.45" shape-rendering="geometricPrecision" transform="matrix(1,0,0,1,-385,-236)" stroke-linecap="butt">
      <rect fill="none" x="594.8908" width="74.4336" height="30" y="504.6788" clip-path="url(#clipPath2)"/>
      <text x="601.8908" xml:space="preserve" y="523.8331" clip-path="url(#clipPath2)" font-family="sans-serif" stroke="none">Regressor</text>
    </g>
    <g fill="white" text-rendering="geometricPrecision" shape-rendering="geometricPrecision" transform="matrix(1,0,0,1,-385,-236)" stroke="white">
      <rect x="493.9527" width="38.9023" height="30" y="595.7278" clip-path="url(#clipPath2)" stroke="none"/>
    </g>
    <g text-rendering="geometricPrecision" stroke-miterlimit="1.45" shape-rendering="geometricPrecision" transform="matrix(1,0,0,1,-385,-236)" stroke-linecap="butt">
      <rect fill="none" x="493.9527" width="38.9023" height="30" y="595.7278" clip-path="url(#clipPath2)"/>
      <text x="500.9527" xml:space="preserve" y="614.8821" clip-path="url(#clipPath2)" font-family="sans-serif" stroke="none">kNN</text>
    </g>
    <g fill="white" text-rendering="geometricPrecision" shape-rendering="geometricPrecision" transform="matrix(1,0,0,1,-385,-236)" stroke="white">
      <rect x="547.5507" width="31.9531" height="30" y="595.7278" clip-path="url(#clipPath2)" stroke="none"/>
    </g>
    <g text-rendering="geometricPrecision" stroke-miterlimit="1.45" shape-rendering="geometricPrecision" transform="matrix(1,0,0,1,-385,-236)" stroke-linecap="butt">
      <rect fill="none" x="547.5507" width="31.9531" height="30" y="595.7278" clip-path="url(#clipPath2)"/>
      <text x="554.5507" xml:space="preserve" y="614.8821" clip-path="url(#clipPath2)" font-family="sans-serif" stroke="none">NN</text>
    </g>
    <g fill="white" text-rendering="geometricPrecision" shape-rendering="geometricPrecision" transform="matrix(1,0,0,1,-385,-236)" stroke="white">
      <rect x="594.8908" width="30.5703" height="30" y="595.7278" clip-path="url(#clipPath2)" stroke="none"/>
    </g>
    <g text-rendering="geometricPrecision" stroke-miterlimit="1.45" shape-rendering="geometricPrecision" transform="matrix(1,0,0,1,-385,-236)" stroke-linecap="butt">
      <rect fill="none" x="594.8908" width="30.5703" height="30" y="595.7278" clip-path="url(#clipPath2)"/>
      <text x="601.8908" xml:space="preserve" y="614.8821" clip-path="url(#clipPath2)" font-family="sans-serif" stroke="none">DT</text>
    </g>
    <g fill="white" text-rendering="geometricPrecision" shape-rendering="geometricPrecision" transform="matrix(1,0,0,1,-385,-236)" stroke="white">
      <rect x="640.8482" width="20" height="30" y="595.7278" clip-path="url(#clipPath2)" stroke="none"/>
    </g>
    <g stroke-linecap="butt" transform="matrix(1,0,0,1,-385,-236)" fill="rgb(51,102,255)" text-rendering="geometricPrecision" shape-rendering="geometricPrecision" stroke-dasharray="6,2" stroke="rgb(51,102,255)" stroke-miterlimit="1.45">
      <rect fill="none" x="640.8482" width="20" height="30" y="595.7278" clip-path="url(#clipPath2)"/>
    </g>
    <g text-rendering="geometricPrecision" stroke-miterlimit="1.45" shape-rendering="geometricPrecision" font-family="sans-serif" transform="matrix(1,0,0,1,-385,-236)" stroke-linecap="butt">
      <text x="647.8481" xml:space="preserve" y="614.8821" clip-path="url(#clipPath2)" stroke="none">*</text>
    </g>
    <g fill="rgb(153,204,0)" text-rendering="geometricPrecision" shape-rendering="geometricPrecision" transform="matrix(1,0,0,1,-385,-236)" stroke="rgb(153,204,0)">
      <rect x="535.4159" y="241.3201" clip-path="url(#clipPath2)" width="56.2227" rx="4" ry="4" height="33.6995" stroke="none"/>
    </g>
    <g text-rendering="geometricPrecision" stroke-miterlimit="1.45" shape-rendering="geometricPrecision" transform="matrix(1,0,0,1,-385,-236)" stroke-linecap="butt">
      <rect x="535.4159" y="241.3201" clip-path="url(#clipPath2)" fill="none" width="56.2227" rx="4" ry="4" height="33.6995"/>
      <text x="542.4159" xml:space="preserve" y="262.3241" clip-path="url(#clipPath2)" font-family="sans-serif" stroke="none">Trepan</text>
    </g>
    <g fill="rgb(153,204,0)" text-rendering="geometricPrecision" shape-rendering="geometricPrecision" transform="matrix(1,0,0,1,-385,-236)" stroke="rgb(153,204,0)">
      <rect x="602.56" y="241.3201" clip-path="url(#clipPath2)" width="44.8145" rx="4" ry="4" height="33.6995" stroke="none"/>
    </g>
    <g text-rendering="geometricPrecision" stroke-miterlimit="1.45" shape-rendering="geometricPrecision" transform="matrix(1,0,0,1,-385,-236)" stroke-linecap="butt">
      <rect x="602.56" y="241.3201" clip-path="url(#clipPath2)" fill="none" width="44.8145" rx="4" ry="4" height="33.6995"/>
      <text x="609.56" xml:space="preserve" y="262.3241" clip-path="url(#clipPath2)" font-family="sans-serif" stroke="none">REAL</text>
    </g>
    <g fill="url(#linearGradient1)" text-rendering="geometricPrecision" shape-rendering="geometricPrecision" transform="matrix(1,0,0,1,-385,-236)" stroke="url(#linearGradient1)">
      <rect x="658.2959" y="241.3201" clip-path="url(#clipPath2)" width="46.2559" rx="4" ry="4" height="33.6995" stroke="none"/>
    </g>
    <g text-rendering="geometricPrecision" stroke-miterlimit="1.45" shape-rendering="geometricPrecision" transform="matrix(1,0,0,1,-385,-236)" stroke-linecap="butt">
      <rect x="658.2959" y="241.3201" clip-path="url(#clipPath2)" fill="none" width="46.2559" rx="4" ry="4" height="33.6995"/>
      <text x="665.2959" xml:space="preserve" y="262.3241" clip-path="url(#clipPath2)" font-family="sans-serif" stroke="none">CART</text>
    </g>
    <g fill="rgb(0,204,255)" text-rendering="geometricPrecision" shape-rendering="geometricPrecision" transform="matrix(1,0,0,1,-385,-236)" stroke="rgb(0,204,255)">
      <rect x="715.4732" y="241.3201" clip-path="url(#clipPath2)" width="34.5605" rx="4" ry="4" height="33.6995" stroke="none"/>
    </g>
    <g text-rendering="geometricPrecision" stroke-miterlimit="1.45" shape-rendering="geometricPrecision" transform="matrix(1,0,0,1,-385,-236)" stroke-linecap="butt">
      <rect x="715.4732" y="241.3201" clip-path="url(#clipPath2)" fill="none" width="34.5605" rx="4" ry="4" height="33.6995"/>
      <text x="722.4732" xml:space="preserve" y="262.3241" clip-path="url(#clipPath2)" font-family="sans-serif" stroke="none">Iter</text>
    </g>
    <g fill="rgb(0,204,255)" text-rendering="geometricPrecision" shape-rendering="geometricPrecision" transform="matrix(1,0,0,1,-385,-236)" stroke="rgb(0,204,255)">
      <rect x="760.9552" y="241.3201" clip-path="url(#clipPath2)" width="53.8672" rx="4" ry="4" height="33.6995" stroke="none"/>
    </g>
    <g text-rendering="geometricPrecision" stroke-miterlimit="1.45" shape-rendering="geometricPrecision" transform="matrix(1,0,0,1,-385,-236)" stroke-linecap="butt">
      <rect x="760.9552" y="241.3201" clip-path="url(#clipPath2)" fill="none" width="53.8672" rx="4" ry="4" height="33.6995"/>
      <text x="767.9552" xml:space="preserve" y="262.3241" clip-path="url(#clipPath2)" font-family="sans-serif" stroke="none">GridEx</text>
    </g>
    <g fill="white" text-rendering="geometricPrecision" shape-rendering="geometricPrecision" transform="matrix(1,0,0,1,-385,-236)" stroke="white">
      <rect x="825.7438" y="241.3201" clip-path="url(#clipPath2)" width="20" rx="4" ry="4" height="33.6995" stroke="none"/>
    </g>
    <g stroke-linecap="butt" transform="matrix(1,0,0,1,-385,-236)" fill="rgb(51,102,255)" text-rendering="geometricPrecision" shape-rendering="geometricPrecision" stroke-dasharray="6,2" stroke="rgb(51,102,255)" stroke-miterlimit="1.45">
      <rect x="825.7438" y="241.3201" clip-path="url(#clipPath2)" fill="none" width="20" rx="4" ry="4" height="33.6995"/>
    </g>
    <g text-rendering="geometricPrecision" stroke-miterlimit="1.45" shape-rendering="geometricPrecision" font-family="sans-serif" transform="matrix(1,0,0,1,-385,-236)" stroke-linecap="butt">
      <text x="832.7438" xml:space="preserve" y="262.3241" clip-path="url(#clipPath2)" stroke="none">*</text>
    </g>
    <g fill="rgb(255,204,0)" text-rendering="geometricPrecision" shape-rendering="geometricPrecision" transform="matrix(1,0,0,1,-385,-236)" stroke="rgb(255,204,0)">
      <rect x="935.4647" y="354.0903" clip-path="url(#clipPath2)" width="89.8379" rx="4" ry="4" height="39.6899" stroke="none"/>
    </g>
    <g text-rendering="geometricPrecision" stroke-miterlimit="1.45" shape-rendering="geometricPrecision" transform="matrix(1,0,0,1,-385,-236)" stroke-linecap="butt">
      <rect x="935.4647" y="354.0903" clip-path="url(#clipPath2)" fill="none" width="89.8379" rx="4" ry="4" height="39.6899"/>
      <text x="942.4647" xml:space="preserve" y="378.0896" clip-path="url(#clipPath2)" font-family="sans-serif" stroke="none">Presentation</text>
    </g>
    <g text-rendering="geometricPrecision" shape-rendering="geometricPrecision" transform="matrix(0.9989,0,0,1,708.8329,104.5543)">
      <g clip-path="url(#clipPath3)">
        <svg xml:space="preserve" opacity="1" writing-mode="lr-tb" stop-color="rgb(0, 0, 0)" shape-rendering="auto" glyph-orientation-horizontal="0deg" color-profile="auto" lighting-color="rgb(255, 255, 255)" color="rgb(0, 0, 0)" font-weight="400" alignment-baseline="auto" font-style="normal" version="1.1" color-interpolation-filters="linearrgb" text-anchor="start" stroke-linecap="butt" color-interpolation="srgb" font-variant="normal" word-spacing="normal" fill-opacity="1" text-rendering="auto" clip-path="none" text-decoration="none" letter-spacing="normal" viewBox="0 0 57 67" glyph-orientation-vertical="auto" display="inline" font-size-adjust="none" overflow="hidden" fill="rgb(0, 0, 0)" font-stretch="normal" stroke-dasharray="none" id="svg1.Ebene_1" stroke-miterlimit="4" stop-opacity="1" color-rendering="auto" font-size="12" pointer-events="visiblepainted" mask="none" direction="ltr" baseline-shift="baseline" enable-background="new 0 0 57 67" fill-rule="nonzero" image-rendering="auto" stroke-dashoffset="0" width="57px" marker-end="none" clip="auto" cursor="auto" stroke="none" filter="none" visibility="visible" kerning="auto" stroke-width="1" font-family="&quot;Arial&quot;,&quot;Helvetica&quot;,sans-serif" flood-opacity="1" clip-rule="nonzero" src="none" height="67px" unicode-bidi="normal" stroke-linejoin="miter" stroke-opacity="1" flood-color="rgb(0, 0, 0)" dominant-baseline="auto" marker-start="none" x="0px" marker-mid="none" y="0px">
<g>
	
		<radialGradient gradientTransform="matrix(1 0 0 -1 0.1201 -706.5371)" gradientUnits="userSpaceOnUse" r="11.4464" cx="28.0298" id="svg1.neck_x5F_white_1_" cy="-751.9429" fx="25.7969" fy="-753.1596">
		<stop offset="0" style="stop-color:#B38E5D"/>
		<stop offset="1" style="stop-color:#805126"/>
	</radialGradient>
	<path fill="url(#svg1.neck_x5F_white_1_)" id="svg1.neck_x5F_white_2_" d="M19.278,37.799h18.188   v13.23c-1.313,0.371-17.173,0.436-18.188,0.172V37.799z" stroke-miterlimit="10" stroke="#5B453B"/>
	
		<radialGradient gradientTransform="matrix(1 0 0 -1 0.1201 -706.5371)" gradientUnits="userSpaceOnUse" r="31.0533" cx="27.481" id="svg1.SVGID_1_" cy="-760.3003" fx="21.4231" fy="-763.6011">
		<stop offset="0" style="stop-color:#B38E5D"/>
		<stop offset="1" style="stop-color:#805126"/>
	</radialGradient>
	<path fill="url(#svg1.SVGID_1_)" d="M49.529,51.225c-4.396-4.396-10.951-5.884-12.063-6.109   V37.8H19.278c0,0,0.038,6.903,0,6.868c0,0-6.874,0.997-12.308,6.432C1.378,56.691,0.5,62.77,0.5,62.77   c0,1.938,1.575,3.492,3.523,3.492h48.51c1.947,0,3.521-1.558,3.521-3.492C56.055,62.768,54.211,55.906,49.529,51.225z" stroke-miterlimit="10" stroke="#5B453B"/>
	
		<radialGradient gradientTransform="matrix(1 0 0 -1 0.1201 -706.5371)" gradientUnits="userSpaceOnUse" r="23.424" cx="27.7827" id="svg1.face_x5F_white_1_" cy="-732.2632" fx="23.2131" fy="-734.753">
		<stop offset="0" style="stop-color:#B38E5D"/>
		<stop offset="1" style="stop-color:#805126"/>
	</radialGradient>
	<path fill="url(#svg1.face_x5F_white_1_)" id="svg1.face_x5F_white_2_" d="M43.676,23.357   c0.086,10.199-6.738,18.52-15.246,18.586c-8.503,0.068-15.467-8.146-15.553-18.344C12.794,13.4,19.618,5.079,28.123,5.012   C36.627,4.945,43.59,13.158,43.676,23.357z" stroke-miterlimit="10" stroke="#5B453B"/>
	
		<linearGradient gradientTransform="matrix(0.275 0 0 0.2733 -783.3976 -1542.678)" x1="2941.4297" x2="2965.0596" gradientUnits="userSpaceOnUse" y1="5674.7988" y2="5768.2505" id="svg1.face_highlight_1_">
		<stop offset="0" style="stop-color:#FFFFFF;stop-opacity:0.42"/>
		<stop offset="1" style="stop-color:#FFFFFF;stop-opacity:0.12"/>
	</linearGradient>
	<path fill="url(#svg1.face_highlight_1_)" id="svg1.face_highlight_2_" d="M27.958,6.333c-6.035,0.047-10.747,4.493-12.787,10.386   c-0.664,1.919-0.294,4.043,0.98,5.629c2.73,3.398,5.729,6.283,9.461,8.088c3.137,1.518,7.535,2.385,11.893,1.247   c2.274-0.592,3.988-2.459,4.375-4.766c0.183-1.094,0.293-2.289,0.283-3.553C42.083,13.952,36.271,6.268,27.958,6.333z"/>
	<path fill="#4B4B4B" d="M28.372,0.5   C17.537,0.5,8.269,7.748,9.153,26.125c0.563,6.563,5.862,12.042,9.366,13.531c-2.929-10.968-0.304-25.021-0.585-25.526   c-0.281-0.505,3.536,6.728,3.536,6.728l3.183-8.312c5.541,4.28,0.393,11.309,1.049,11.058c4.26-1.631,5.34-9.228,5.34-9.228   s2.729,3.657,2.701,5.504c-0.054,3.562,2.194-6.067,2.194-6.067l1.027,2.031c6.727,9.822,3.684,16.208,1.654,22.781   c15.665-0.703,12.289-10.48,9.658-18.407C43.59,6.092,39.206,0.5,28.372,0.5z" id="svg1.path9833_2_" stroke="#000000" stroke-linecap="round" stroke-linejoin="round"/>
	
		<radialGradient gradientTransform="matrix(1 0 0 -1 0.1201 -706.5371)" id="svg1.collar_x5F_body_2_" r="32.4004" cx="15.1587" gradientUnits="userSpaceOnUse" cy="-763.7056">
		<stop offset="0" style="stop-color:#B0E8FF"/>
		<stop offset="1" style="stop-color:#74AEEE"/>
	</radialGradient>
	<path fill="url(#svg1.collar_x5F_body_2_)" d="M0.5,62.768c0,1.938,1.575,3.494,3.523,3.494   h48.51c1.947,0,3.521-1.559,3.521-3.494c0,0-1.844-6.861-6.525-11.543c-4.815-4.813-11.244-6.146-11.244-6.146   c-1.771,1.655-5.61,2.802-10.063,2.802c-4.453,0-8.292-1.146-10.063-2.802c0,0-5.755,0.586-11.189,6.021   C1.378,56.689,0.5,62.768,0.5,62.768z" id="svg1.collar_x5F_body_1_" stroke="#5491CF"/>
	
		<radialGradient gradientTransform="matrix(1 0 0 -1 0.1201 -706.5371)" id="svg1.collar_x5F_r_2_" r="9.2834" cx="31.5" gradientUnits="userSpaceOnUse" cy="-753.832">
		<stop offset="0" style="stop-color:#80CCFF"/>
		<stop offset="1" style="stop-color:#74AEEE"/>
	</radialGradient>
	<path fill="url(#svg1.collar_x5F_r_2_)" d="M38.159,41.381c0,0-0.574,2.369-3.013,4.441   c-2.108,1.795-5.783,2.072-5.783,2.072l3.974,6.217c0,0,2.957-1.637,5.009-3.848c1.922-2.072,1.37-5.479,1.37-5.479L38.159,41.381z   " id="svg1.collar_x5F_r_1_" stroke="#5491CF"/>
	
		<radialGradient gradientTransform="matrix(1 0 0 -1 0.1201 -706.5371)" id="svg1.collar_x5F_l_2_" r="9.2837" cx="19.1377" gradientUnits="userSpaceOnUse" cy="-753.873">
		<stop offset="0" style="stop-color:#80CCFF"/>
		<stop offset="1" style="stop-color:#74AEEE"/>
	</radialGradient>
	<path fill="url(#svg1.collar_x5F_l_2_)" d="M18.63,41.422c0,0,0.576,2.369,3.012,4.441   c2.109,1.793,5.785,2.072,5.785,2.072l-3.974,6.217c0,0-2.957-1.637-5.007-3.85c-1.922-2.072-1.37-5.48-1.37-5.48L18.63,41.422z" id="svg1.collar_x5F_l_1_" stroke="#5491CF"/>
	
		<radialGradient gradientTransform="matrix(1 0 0 -1 0.04 66.1543)" id="svg1.Knob2_2_" r="0.9669" cx="27.8872" gradientUnits="userSpaceOnUse" cy="9.9414">
		<stop offset="0" style="stop-color:#80CCFF"/>
		<stop offset="1" style="stop-color:#74AEEE"/>
	</radialGradient>
	<circle fill="url(#svg1.Knob2_2_)" r="0.584" id="svg1.Knob2_1_" cx="28.258" cy="56.254" stroke="#5491CF"/>
	
		<radialGradient gradientTransform="matrix(1 0 0 -1 0.04 66.1543)" id="svg1.Knob1_2_" r="0.9669" cx="27.9253" gradientUnits="userSpaceOnUse" cy="3.6973">
		<stop offset="0" style="stop-color:#80CCFF"/>
		<stop offset="1" style="stop-color:#74AEEE"/>
	</radialGradient>
	<circle fill="url(#svg1.Knob1_2_)" r="0.584" id="svg1.Knob1_1_" cx="28.296" cy="62.499" stroke="#5491CF"/>
</g>
</svg>
      </g>
    </g>
    <g text-rendering="geometricPrecision" stroke-miterlimit="1.45" shape-rendering="geometricPrecision" transform="matrix(1,0,0,1,-385,-236)" stroke-linecap="butt">
      <path fill="none" d="M481.7306 373.9353 L650.279 373.9353" clip-path="url(#clipPath2)"/>
      <path d="M658.279 373.9353 L646.279 368.9353 L649.279 373.9353 L646.279 378.9353 Z" clip-path="url(#clipPath2)" stroke="none"/>
      <path fill="none" d="M610.4658 424.7709 L658.308 397.7182" clip-path="url(#clipPath2)"/>
      <path d="M665.2718 393.7805 L652.3651 395.3347 L657.4376 398.2104 L657.2872 404.0395 Z" clip-path="url(#clipPath2)" stroke="none"/>
      <path fill="none" d="M742.4414 373.9353 L782.2009 373.9353" clip-path="url(#clipPath2)"/>
      <path d="M790.2009 373.9353 L778.2009 368.9353 L781.2009 373.9353 L778.2009 378.9353 Z" clip-path="url(#clipPath2)" stroke="none"/>
      <path fill="none" d="M451.2266 388.9353 L451.2266 416.7287" clip-path="url(#clipPath2)"/>
      <path d="M451.2266 424.7287 L456.2266 412.7287 L451.2266 415.7287 L446.2266 412.7287 Z" clip-path="url(#clipPath2)" stroke="none"/>
      <path fill="none" d="M511.5237 439.7709 L541.8881 439.7709" clip-path="url(#clipPath2)"/>
      <path d="M549.8881 439.7709 L537.8881 434.7709 L540.8881 439.7709 L537.8881 444.7709 Z" clip-path="url(#clipPath2)" stroke="none"/>
      <path fill="none" d="M542.9231 504.6788 L566.4472 467.4514" clip-path="url(#clipPath2)"/>
      <path fill="white" d="M574.46 454.7709 L560.8408 465.0916 L570.9852 471.5019 Z" clip-path="url(#clipPath2)" stroke="none"/>
      <path fill="none" d="M574.46 454.7709 L560.8408 465.0916 L570.9852 471.5019 Z" clip-path="url(#clipPath2)"/>
      <path fill="none" d="M623.0655 504.6788 L600.7246 467.6173" clip-path="url(#clipPath2)"/>
      <path fill="white" d="M592.9807 454.7709 L596.1023 471.5714 L606.3795 465.3762 Z" clip-path="url(#clipPath2)" stroke="none"/>
      <path fill="none" d="M592.9807 454.7709 L596.1023 471.5714 L606.3795 465.3762 Z" clip-path="url(#clipPath2)"/>
      <path fill="none" d="M516.7055 595.7278 L526.9185 549.3281" clip-path="url(#clipPath2)"/>
      <path fill="white" d="M530.1429 534.6788 L520.8438 549.015 L532.5632 551.5945 Z" clip-path="url(#clipPath2)" stroke="none"/>
      <path fill="none" d="M530.1429 534.6788 L520.8438 549.015 L532.5632 551.5945 Z" clip-path="url(#clipPath2)"/>
      <path fill="none" d="M532.855 595.8082 L600.6495 543.8079" clip-path="url(#clipPath2)"/>
      <path fill="white" d="M612.5516 534.6788 L596.2044 539.6557 L603.5078 549.1774 Z" clip-path="url(#clipPath2)" stroke="none"/>
      <path fill="none" d="M612.5516 534.6788 L596.2044 539.6557 L603.5078 549.1774 Z" clip-path="url(#clipPath2)"/>
      <path fill="none" d="M558.5712 595.7278 L543.1063 548.9215" clip-path="url(#clipPath2)"/>
      <path fill="white" d="M538.4005 534.6788 L537.723 551.7534 L549.1171 547.9887 Z" clip-path="url(#clipPath2)" stroke="none"/>
      <path fill="none" d="M538.4005 534.6788 L537.723 551.7534 L549.1171 547.9887 Z" clip-path="url(#clipPath2)"/>
      <path fill="none" d="M574.8256 595.7278 L611.7845 546.6602" clip-path="url(#clipPath2)"/>
      <path fill="white" d="M620.8092 534.6788 L606.3903 543.8491 L615.9755 551.0688 Z" clip-path="url(#clipPath2)" stroke="none"/>
      <path fill="none" d="M620.8092 534.6788 L606.3903 543.8491 L615.9755 551.0688 Z" clip-path="url(#clipPath2)"/>
      <path fill="none" d="M597.5347 595.7278 L555.7521 546.1488" clip-path="url(#clipPath2)"/>
      <path fill="white" d="M546.0858 534.6788 L551.8085 550.78 L560.9846 543.0469 Z" clip-path="url(#clipPath2)" stroke="none"/>
      <path fill="none" d="M546.0858 534.6788 L551.8085 550.78 L560.9846 543.0469 Z" clip-path="url(#clipPath2)"/>
      <path fill="none" d="M613.7891 595.7278 L624.9818 549.2617" clip-path="url(#clipPath2)"/>
      <path fill="white" d="M628.4944 534.6788 L618.9144 548.8288 L630.5807 551.6389 Z" clip-path="url(#clipPath2)" stroke="none"/>
      <path fill="none" d="M628.4944 534.6788 L618.9144 548.8288 L630.5807 551.6389 Z" clip-path="url(#clipPath2)"/>
      <path fill="none" stroke-dasharray="6,2" d="M640.8381 596.6708 L566.5583 543.4186" clip-path="url(#clipPath2)" stroke="rgb(51,102,255)"/>
      <path fill="white" stroke-dasharray="6,2" d="M554.3675 534.6788 L563.8751 548.8776 L570.8669 539.1249 Z" clip-path="url(#clipPath2)" stroke="none"/>
      <path fill="none" d="M554.3675 534.6788 L563.8751 548.8776 L570.8669 539.1249 Z" clip-path="url(#clipPath2)" stroke="rgb(51,102,255)"/>
      <path fill="none" stroke-dasharray="6,2" d="M647.7607 595.7278 L638.2191 549.3708" clip-path="url(#clipPath2)" stroke="rgb(51,102,255)"/>
      <path fill="white" stroke-dasharray="6,2" d="M635.1951 534.6788 L632.5439 551.5599 L644.2975 549.1406 Z" clip-path="url(#clipPath2)" stroke="none"/>
      <path fill="none" d="M635.1951 534.6788 L632.5439 551.5599 L644.2975 549.1406 Z" clip-path="url(#clipPath2)" stroke="rgb(51,102,255)"/>
      <path fill="none" d="M583.472 275.0429 L665.4855 344.4253" clip-path="url(#clipPath2)"/>
      <path fill="white" d="M676.9372 354.1133 L668.5972 339.1987 L660.8468 348.3601 Z" clip-path="url(#clipPath2)" stroke="none"/>
      <path fill="none" d="M676.9372 354.1133 L668.5972 339.1987 L660.8468 348.3601 Z" clip-path="url(#clipPath2)"/>
      <path fill="none" d="M635.957 275.0429 L679.2708 341.5443" clip-path="url(#clipPath2)"/>
      <path fill="white" d="M687.4573 354.1133 L683.7526 337.4317 L673.6974 343.9809 Z" clip-path="url(#clipPath2)" stroke="none"/>
      <path fill="none" d="M687.4573 354.1133 L683.7526 337.4317 L673.6974 343.9809 Z" clip-path="url(#clipPath2)"/>
      <path fill="none" d="M684.1849 275.0429 L694.6977 339.2861" clip-path="url(#clipPath2)"/>
      <path fill="white" d="M697.1201 354.0892 L700.4575 337.3302 L688.6149 339.2682 Z" clip-path="url(#clipPath2)" stroke="none"/>
      <path fill="none" d="M697.1201 354.0892 L700.4575 337.3302 L688.6149 339.2682 Z" clip-path="url(#clipPath2)"/>
      <path fill="none" d="M728.0332 275.0429 L709.9541 339.6679" clip-path="url(#clipPath2)"/>
      <path fill="white" d="M705.913 354.1133 L716.0016 340.3214 L704.4454 337.0884 Z" clip-path="url(#clipPath2)" stroke="none"/>
      <path fill="none" d="M705.913 354.1133 L716.0016 340.3214 L704.4454 337.0884 Z" clip-path="url(#clipPath2)"/>
      <path fill="none" d="M775.1324 275.0429 L724.3995 342.148" clip-path="url(#clipPath2)"/>
      <path fill="white" d="M715.3535 354.1133 L729.7888 344.9687 L720.2165 337.7319 Z" clip-path="url(#clipPath2)" stroke="none"/>
      <path fill="none" d="M715.3535 354.1133 L729.7888 344.9687 L720.2165 337.7319 Z" clip-path="url(#clipPath2)"/>
      <path fill="none" stroke-dasharray="6,2" d="M835.7438 275.0296 L739.6143 345.2617" clip-path="url(#clipPath2)" stroke="rgb(51,102,255)"/>
      <path fill="white" stroke-dasharray="6,2" d="M727.5024 354.1107 L743.9613 349.5165 L736.8821 339.8271 Z" clip-path="url(#clipPath2)" stroke="none"/>
      <path fill="none" d="M727.5024 354.1107 L743.9613 349.5165 L736.8821 339.8271 Z" clip-path="url(#clipPath2)" stroke="rgb(51,102,255)"/>
      <path fill="none" d="M881.2616 373.9353 L927.4205 373.9353" clip-path="url(#clipPath2)"/>
      <path d="M935.4205 373.9353 L923.4205 368.9353 L926.4205 373.9353 L923.4205 378.9353 Z" clip-path="url(#clipPath2)" stroke="none"/>
      <path fill="none" d="M1025.3306 373.9353 L1096.7672 373.9353" clip-path="url(#clipPath2)"/>
      <path d="M1104.7672 373.9353 L1092.7672 368.9353 L1095.7672 373.9353 L1092.7672 378.9353 Z" clip-path="url(#clipPath2)" stroke="none"/>
    </g>
    <g fill="rgb(210,210,210)" text-rendering="geometricPrecision" shape-rendering="geometricPrecision" transform="matrix(1,0,0,1,-385,-236) translate(4,4)" stroke="rgb(210,210,210)">
      <rect x="748.3639" width="296.1681" height="127.7422" y="468.2178" clip-path="url(#clipPath4)" stroke="none"/>
    </g>
    <g fill="rgb(242,240,216)" text-rendering="geometricPrecision" shape-rendering="geometricPrecision" transform="matrix(1,0,0,1,-385,-236)" stroke="rgb(242,240,216)">
      <rect x="748.3639" width="296.1681" height="127.7422" y="468.2178" clip-path="url(#clipPath2)" stroke="none"/>
      <rect x="748.3639" y="468.2178" clip-path="url(#clipPath2)" fill="rgb(183,182,158)" width="296.1681" height="21.4609" stroke="none"/>
    </g>
    <g font-size="15px" stroke-linecap="butt" transform="matrix(1,0,0,1,-385,-236)" text-rendering="geometricPrecision" font-family="sans-serif" shape-rendering="geometricPrecision" stroke-miterlimit="1.45">
      <text x="987.1682" xml:space="preserve" y="484.1412" clip-path="url(#clipPath2)" stroke="none">Legend</text>
      <rect fill="none" x="748.3639" width="296.1681" height="127.7422" y="468.2178" clip-path="url(#clipPath2)"/>
    </g>
    <g fill="rgb(255,204,0)" text-rendering="geometricPrecision" shape-rendering="geometricPrecision" transform="matrix(1,0,0,1,-385,-236)" stroke="rgb(255,204,0)">
      <rect x="768.8161" y="504.6788" clip-path="url(#clipPath2)" width="72.7695" rx="4" ry="4" height="30" stroke="none"/>
    </g>
    <g text-rendering="geometricPrecision" stroke-miterlimit="1.45" shape-rendering="geometricPrecision" transform="matrix(1,0,0,1,-385,-236)" stroke-linecap="butt">
      <rect x="768.8161" y="504.6788" clip-path="url(#clipPath2)" fill="none" width="72.7695" rx="4" ry="4" height="30"/>
      <text x="775.8161" xml:space="preserve" y="523.8331" clip-path="url(#clipPath2)" font-family="sans-serif" stroke="none">Algorithm</text>
    </g>
    <g fill="white" text-rendering="geometricPrecision" shape-rendering="geometricPrecision" transform="matrix(1,0,0,1,-385,-236)" stroke="white">
      <rect x="763.3639" width="83.6738" height="30" y="550.96" clip-path="url(#clipPath2)" stroke="none"/>
    </g>
    <g text-rendering="geometricPrecision" stroke-miterlimit="1.45" shape-rendering="geometricPrecision" transform="matrix(1,0,0,1,-385,-236)" stroke-linecap="butt">
      <rect fill="none" x="763.3639" width="83.6738" height="30" y="550.96" clip-path="url(#clipPath2)"/>
      <text x="770.364" xml:space="preserve" y="570.1143" clip-path="url(#clipPath2)" font-family="sans-serif" stroke="none">Information</text>
      <path fill="none" d="M885.5453 519.6788 L991.5108 519.6788" clip-path="url(#clipPath2)"/>
      <path d="M999.5108 519.6788 L987.5108 514.6788 L990.5108 519.6788 L987.5108 524.6788 Z" clip-path="url(#clipPath2)" stroke="none"/>
      <text x="913.2492" xml:space="preserve" y="511.8491" clip-path="url(#clipPath2)" font-family="sans-serif" stroke="none">dataflow</text>
      <path fill="none" d="M885.5453 559.5496 L984.5108 559.5496" clip-path="url(#clipPath2)"/>
      <path fill="white" d="M999.5108 559.5496 L983.5108 553.5496 L983.5108 565.5496 Z" clip-path="url(#clipPath2)" stroke="none"/>
      <path fill="none" d="M999.5108 559.5496 L983.5108 553.5496 L983.5108 565.5496 Z" clip-path="url(#clipPath2)"/>
      <text x="905.1252" xml:space="preserve" y="551.7198" clip-path="url(#clipPath2)" font-family="sans-serif" stroke="none">sub-type of</text>
    </g>
  </g>
</svg>
