<?xml version="1.0" encoding="UTF-8" standalone="no"?>
<svg xmlns="http://www.w3.org/2000/svg" xmlns:xlink="http://www.w3.org/1999/xlink" contentScriptType="application/ecmascript" contentStyleType="text/css" height="687px" preserveAspectRatio="none" style="width:1156px;height:687px;background:#FFFFFF;" version="1.1" viewBox="0 0 1156 687" width="1156px" zoomAndPan="magnify"><defs><filter height="300%" id="f1pe2xkchbawjp" width="300%" x="-1" y="-1"><feGaussianBlur result="blurOut" stdDeviation="2.0"/><feColorMatrix in="blurOut" result="blurOut2" type="matrix" values="0 0 0 0 0 0 0 0 0 0 0 0 0 0 0 0 0 0 .4 0"/><feOffset dx="4.0" dy="4.0" in="blurOut2" result="blurOut3"/><feBlend in="SourceGraphic" in2="blurOut3" mode="normal"/></filter></defs><g><!--MD5=[4123373f8624e22da5cc2aec08dc20f6]
cluster sklearn.linear_model--><polygon fill="#FFFFFF" filter="url(#f1pe2xkchbawjp)" points="16,258,188,258,195,280.2969,400,280.2969,400,373,16,373,16,258" style="stroke:#000000;stroke-width:1.5;"/><line style="stroke:#000000;stroke-width:1.5;" x1="16" x2="195" y1="280.2969" y2="280.2969"/><text fill="#000000" font-family="sans-serif" font-size="14" font-weight="bold" lengthAdjust="spacing" textLength="166" x="20" y="272.9951">sklearn.linear_model</text><!--MD5=[c14b9c56ed5e7d5fd0c255121edb22a5]
cluster sklearn.svm--><polygon fill="#FFFFFF" filter="url(#f1pe2xkchbawjp)" points="440,258,543,258,550,280.2969,654,280.2969,654,373,440,373,440,258" style="stroke:#000000;stroke-width:1.5;"/><line style="stroke:#000000;stroke-width:1.5;" x1="440" x2="550" y1="280.2969" y2="280.2969"/><text fill="#000000" font-family="sans-serif" font-size="14" font-weight="bold" lengthAdjust="spacing" textLength="97" x="444" y="272.9951">sklearn.svm</text><!--MD5=[bd3d52b54409f1191bf5879417a98ce9]
cluster sklearn.tree--><polygon fill="#FFFFFF" filter="url(#f1pe2xkchbawjp)" points="694,258,797,258,804,280.2969,1139,280.2969,1139,373,694,373,694,258" style="stroke:#000000;stroke-width:1.5;"/><line style="stroke:#000000;stroke-width:1.5;" x1="694" x2="804" y1="280.2969" y2="280.2969"/><text fill="#000000" font-family="sans-serif" font-size="14" font-weight="bold" lengthAdjust="spacing" textLength="97" x="698" y="272.9951">sklearn.tree</text><!--MD5=[2162495591defd2b4e97034e725eeede]
cluster pandas--><polygon fill="#FFFFFF" filter="url(#f1pe2xkchbawjp)" points="16,435,81,435,88,457.2969,181,457.2969,181,680,16,680,16,435" style="stroke:#000000;stroke-width:1.5;"/><line style="stroke:#000000;stroke-width:1.5;" x1="16" x2="88" y1="457.2969" y2="457.2969"/><text fill="#000000" font-family="sans-serif" font-size="14" font-weight="bold" lengthAdjust="spacing" textLength="59" x="20" y="449.9951">pandas</text><!--MD5=[b501cdf62b71b5aa3fcde3a7d416f7d0]
cluster numpy--><polygon fill="#FFFFFF" filter="url(#f1pe2xkchbawjp)" points="741,435,801,435,808,457.2969,886,457.2969,886,550,741,550,741,435" style="stroke:#000000;stroke-width:1.5;"/><line style="stroke:#000000;stroke-width:1.5;" x1="741" x2="808" y1="457.2969" y2="457.2969"/><text fill="#000000" font-family="sans-serif" font-size="14" font-weight="bold" lengthAdjust="spacing" textLength="54" x="745" y="449.9951">numpy</text><!--MD5=[f9ccf62b6cd5751f3ac579783640e149]
cluster sklearn--><polygon fill="#FFFFFF" filter="url(#f1pe2xkchbawjp)" points="392,413,457,413,464,435.2969,701,435.2969,701,572,392,572,392,413" style="stroke:#000000;stroke-width:1.5;"/><line style="stroke:#000000;stroke-width:1.5;" x1="392" x2="464" y1="435.2969" y2="435.2969"/><text fill="#000000" font-family="sans-serif" font-size="14" font-weight="bold" lengthAdjust="spacing" textLength="59" x="396" y="427.9951">sklearn</text><!--MD5=[ccf8fb0273056b2ab7279000e928a2de]
cluster sklearn.feature_selection--><polygon fill="#FFFFFF" filter="url(#f1pe2xkchbawjp)" points="765,6,976,6,983,28.2969,1078,28.2969,1078,226,765,226,765,6" style="stroke:#000000;stroke-width:1.5;"/><line style="stroke:#000000;stroke-width:1.5;" x1="765" x2="983" y1="28.2969" y2="28.2969"/><text fill="#000000" font-family="sans-serif" font-size="14" font-weight="bold" lengthAdjust="spacing" textLength="205" x="769" y="20.9951">sklearn.feature_selection</text><!--MD5=[0f42f70178462a4e25d47c12db43ff76]
cluster sklearn.model_selection--><polygon fill="#FFFFFF" filter="url(#f1pe2xkchbawjp)" points="63,6,263,6,270,28.2969,396,28.2969,396,226,63,226,63,6" style="stroke:#000000;stroke-width:1.5;"/><line style="stroke:#000000;stroke-width:1.5;" x1="63" x2="270" y1="28.2969" y2="28.2969"/><text fill="#000000" font-family="sans-serif" font-size="14" font-weight="bold" lengthAdjust="spacing" textLength="194" x="67" y="20.9951">sklearn.model_selection</text><!--MD5=[d085121c7f25a8eb8b5ef557c00e22b2]
class LogisticRegression--><rect fill="#FEFECE" filter="url(#f1pe2xkchbawjp)" height="48" id="LogisticRegression" style="stroke:#A80036;stroke-width:1.5;" width="146" x="59" y="301"/><ellipse cx="74" cy="317" fill="#ADD1B2" rx="11" ry="11" style="stroke:#A80036;stroke-width:1.0;"/><path d="M76.3438,312.6719 C75.4063,312.2344 74.8125,312.0938 73.9375,312.0938 C71.3125,312.0938 69.3125,314.1719 69.3125,316.8906 L69.3125,318.0156 C69.3125,320.5938 71.4219,322.4844 74.3125,322.4844 C75.5313,322.4844 76.6875,322.1875 77.4375,321.6406 C78.0156,321.2344 78.3438,320.7813 78.3438,320.3906 C78.3438,319.9375 77.9531,319.5469 77.4844,319.5469 C77.2656,319.5469 77.0625,319.625 76.875,319.8125 C76.4219,320.2969 76.4219,320.2969 76.2344,320.3906 C75.8125,320.6563 75.125,320.7813 74.3594,320.7813 C72.3125,320.7813 71.0156,319.6875 71.0156,317.9844 L71.0156,316.8906 C71.0156,315.1094 72.2656,313.7969 74,313.7969 C74.5781,313.7969 75.1875,313.9531 75.6563,314.2031 C76.1406,314.4844 76.3125,314.7031 76.4063,315.1094 C76.4688,315.5156 76.5,315.6406 76.6406,315.7656 C76.7813,315.9063 77.0156,316.0156 77.2344,316.0156 C77.5,316.0156 77.7656,315.875 77.9375,315.6563 C78.0469,315.5 78.0781,315.3125 78.0781,314.8906 L78.0781,313.4688 C78.0781,313.0313 78.0625,312.9063 77.9688,312.75 C77.8125,312.4844 77.5313,312.3438 77.2344,312.3438 C76.9375,312.3438 76.7344,312.4375 76.5156,312.75 L76.3438,312.6719 Z " fill="#000000"/><text fill="#000000" font-family="sans-serif" font-size="12" lengthAdjust="spacing" textLength="114" x="88" y="321.1543">LogisticRegression</text><line style="stroke:#A80036;stroke-width:1.5;" x1="60" x2="204" y1="333" y2="333"/><line style="stroke:#A80036;stroke-width:1.5;" x1="60" x2="204" y1="341" y2="341"/><!--MD5=[ef340af6512c03d5eeac92509be9c66b]
class LinearRegression--><rect fill="#FEFECE" filter="url(#f1pe2xkchbawjp)" height="48" id="LinearRegression" style="stroke:#A80036;stroke-width:1.5;" width="136" x="240" y="301"/><ellipse cx="255" cy="317" fill="#ADD1B2" rx="11" ry="11" style="stroke:#A80036;stroke-width:1.0;"/><path d="M257.3438,312.6719 C256.4063,312.2344 255.8125,312.0938 254.9375,312.0938 C252.3125,312.0938 250.3125,314.1719 250.3125,316.8906 L250.3125,318.0156 C250.3125,320.5938 252.4219,322.4844 255.3125,322.4844 C256.5313,322.4844 257.6875,322.1875 258.4375,321.6406 C259.0156,321.2344 259.3438,320.7813 259.3438,320.3906 C259.3438,319.9375 258.9531,319.5469 258.4844,319.5469 C258.2656,319.5469 258.0625,319.625 257.875,319.8125 C257.4219,320.2969 257.4219,320.2969 257.2344,320.3906 C256.8125,320.6563 256.125,320.7813 255.3594,320.7813 C253.3125,320.7813 252.0156,319.6875 252.0156,317.9844 L252.0156,316.8906 C252.0156,315.1094 253.2656,313.7969 255,313.7969 C255.5781,313.7969 256.1875,313.9531 256.6563,314.2031 C257.1406,314.4844 257.3125,314.7031 257.4063,315.1094 C257.4688,315.5156 257.5,315.6406 257.6406,315.7656 C257.7813,315.9063 258.0156,316.0156 258.2344,316.0156 C258.5,316.0156 258.7656,315.875 258.9375,315.6563 C259.0469,315.5 259.0781,315.3125 259.0781,314.8906 L259.0781,313.4688 C259.0781,313.0313 259.0625,312.9063 258.9688,312.75 C258.8125,312.4844 258.5313,312.3438 258.2344,312.3438 C257.9375,312.3438 257.7344,312.4375 257.5156,312.75 L257.3438,312.6719 Z " fill="#000000"/><text fill="#000000" font-family="sans-serif" font-size="12" lengthAdjust="spacing" textLength="104" x="269" y="321.1543">LinearRegression</text><line style="stroke:#A80036;stroke-width:1.5;" x1="241" x2="375" y1="333" y2="333"/><line style="stroke:#A80036;stroke-width:1.5;" x1="241" x2="375" y1="341" y2="341"/><!--MD5=[2336b22e3ebc2255a815b84bb9981058]
class SVC--><rect fill="#FEFECE" filter="url(#f1pe2xkchbawjp)" height="48" id="SVC" style="stroke:#A80036;stroke-width:1.5;" width="56" x="483" y="301"/><ellipse cx="498" cy="317" fill="#ADD1B2" rx="11" ry="11" style="stroke:#A80036;stroke-width:1.0;"/><path d="M500.3438,312.6719 C499.4063,312.2344 498.8125,312.0938 497.9375,312.0938 C495.3125,312.0938 493.3125,314.1719 493.3125,316.8906 L493.3125,318.0156 C493.3125,320.5938 495.4219,322.4844 498.3125,322.4844 C499.5313,322.4844 500.6875,322.1875 501.4375,321.6406 C502.0156,321.2344 502.3438,320.7813 502.3438,320.3906 C502.3438,319.9375 501.9531,319.5469 501.4844,319.5469 C501.2656,319.5469 501.0625,319.625 500.875,319.8125 C500.4219,320.2969 500.4219,320.2969 500.2344,320.3906 C499.8125,320.6563 499.125,320.7813 498.3594,320.7813 C496.3125,320.7813 495.0156,319.6875 495.0156,317.9844 L495.0156,316.8906 C495.0156,315.1094 496.2656,313.7969 498,313.7969 C498.5781,313.7969 499.1875,313.9531 499.6563,314.2031 C500.1406,314.4844 500.3125,314.7031 500.4063,315.1094 C500.4688,315.5156 500.5,315.6406 500.6406,315.7656 C500.7813,315.9063 501.0156,316.0156 501.2344,316.0156 C501.5,316.0156 501.7656,315.875 501.9375,315.6563 C502.0469,315.5 502.0781,315.3125 502.0781,314.8906 L502.0781,313.4688 C502.0781,313.0313 502.0625,312.9063 501.9688,312.75 C501.8125,312.4844 501.5313,312.3438 501.2344,312.3438 C500.9375,312.3438 500.7344,312.4375 500.5156,312.75 L500.3438,312.6719 Z " fill="#000000"/><text fill="#000000" font-family="sans-serif" font-size="12" lengthAdjust="spacing" textLength="24" x="512" y="321.1543">SVC</text><line style="stroke:#A80036;stroke-width:1.5;" x1="484" x2="538" y1="333" y2="333"/><line style="stroke:#A80036;stroke-width:1.5;" x1="484" x2="538" y1="341" y2="341"/><!--MD5=[9d2017821581eabf2977b624f393aaeb]
class SVR--><rect fill="#FEFECE" filter="url(#f1pe2xkchbawjp)" height="48" id="SVR" style="stroke:#A80036;stroke-width:1.5;" width="55" x="574.5" y="301"/><ellipse cx="589.5" cy="317" fill="#ADD1B2" rx="11" ry="11" style="stroke:#A80036;stroke-width:1.0;"/><path d="M591.8438,312.6719 C590.9063,312.2344 590.3125,312.0938 589.4375,312.0938 C586.8125,312.0938 584.8125,314.1719 584.8125,316.8906 L584.8125,318.0156 C584.8125,320.5938 586.9219,322.4844 589.8125,322.4844 C591.0313,322.4844 592.1875,322.1875 592.9375,321.6406 C593.5156,321.2344 593.8438,320.7813 593.8438,320.3906 C593.8438,319.9375 593.4531,319.5469 592.9844,319.5469 C592.7656,319.5469 592.5625,319.625 592.375,319.8125 C591.9219,320.2969 591.9219,320.2969 591.7344,320.3906 C591.3125,320.6563 590.625,320.7813 589.8594,320.7813 C587.8125,320.7813 586.5156,319.6875 586.5156,317.9844 L586.5156,316.8906 C586.5156,315.1094 587.7656,313.7969 589.5,313.7969 C590.0781,313.7969 590.6875,313.9531 591.1563,314.2031 C591.6406,314.4844 591.8125,314.7031 591.9063,315.1094 C591.9688,315.5156 592,315.6406 592.1406,315.7656 C592.2813,315.9063 592.5156,316.0156 592.7344,316.0156 C593,316.0156 593.2656,315.875 593.4375,315.6563 C593.5469,315.5 593.5781,315.3125 593.5781,314.8906 L593.5781,313.4688 C593.5781,313.0313 593.5625,312.9063 593.4688,312.75 C593.3125,312.4844 593.0313,312.3438 592.7344,312.3438 C592.4375,312.3438 592.2344,312.4375 592.0156,312.75 L591.8438,312.6719 Z " fill="#000000"/><text fill="#000000" font-family="sans-serif" font-size="12" lengthAdjust="spacing" textLength="23" x="603.5" y="321.1543">SVR</text><line style="stroke:#A80036;stroke-width:1.5;" x1="575.5" x2="628.5" y1="333" y2="333"/><line style="stroke:#A80036;stroke-width:1.5;" x1="575.5" x2="628.5" y1="341" y2="341"/><!--MD5=[2bdd5c76a1ae188991357e15d73817a7]
class DecisionTreeClassifier--><rect fill="#FEFECE" filter="url(#f1pe2xkchbawjp)" height="48" id="DecisionTreeClassifier" style="stroke:#A80036;stroke-width:1.5;" width="167" x="737.5" y="301"/><ellipse cx="752.5" cy="317" fill="#ADD1B2" rx="11" ry="11" style="stroke:#A80036;stroke-width:1.0;"/><path d="M754.8438,312.6719 C753.9063,312.2344 753.3125,312.0938 752.4375,312.0938 C749.8125,312.0938 747.8125,314.1719 747.8125,316.8906 L747.8125,318.0156 C747.8125,320.5938 749.9219,322.4844 752.8125,322.4844 C754.0313,322.4844 755.1875,322.1875 755.9375,321.6406 C756.5156,321.2344 756.8438,320.7813 756.8438,320.3906 C756.8438,319.9375 756.4531,319.5469 755.9844,319.5469 C755.7656,319.5469 755.5625,319.625 755.375,319.8125 C754.9219,320.2969 754.9219,320.2969 754.7344,320.3906 C754.3125,320.6563 753.625,320.7813 752.8594,320.7813 C750.8125,320.7813 749.5156,319.6875 749.5156,317.9844 L749.5156,316.8906 C749.5156,315.1094 750.7656,313.7969 752.5,313.7969 C753.0781,313.7969 753.6875,313.9531 754.1563,314.2031 C754.6406,314.4844 754.8125,314.7031 754.9063,315.1094 C754.9688,315.5156 755,315.6406 755.1406,315.7656 C755.2813,315.9063 755.5156,316.0156 755.7344,316.0156 C756,316.0156 756.2656,315.875 756.4375,315.6563 C756.5469,315.5 756.5781,315.3125 756.5781,314.8906 L756.5781,313.4688 C756.5781,313.0313 756.5625,312.9063 756.4688,312.75 C756.3125,312.4844 756.0313,312.3438 755.7344,312.3438 C755.4375,312.3438 755.2344,312.4375 755.0156,312.75 L754.8438,312.6719 Z " fill="#000000"/><text fill="#000000" font-family="sans-serif" font-size="12" lengthAdjust="spacing" textLength="135" x="766.5" y="321.1543">DecisionTreeClassifier</text><line style="stroke:#A80036;stroke-width:1.5;" x1="738.5" x2="903.5" y1="333" y2="333"/><line style="stroke:#A80036;stroke-width:1.5;" x1="738.5" x2="903.5" y1="341" y2="341"/><!--MD5=[5fc71c2911ab67004f36c298a516e9b0]
class DecisionTreeRegressor--><rect fill="#FEFECE" filter="url(#f1pe2xkchbawjp)" height="48" id="DecisionTreeRegressor" style="stroke:#A80036;stroke-width:1.5;" width="175" x="939.5" y="301"/><ellipse cx="954.5" cy="317" fill="#ADD1B2" rx="11" ry="11" style="stroke:#A80036;stroke-width:1.0;"/><path d="M956.8438,312.6719 C955.9063,312.2344 955.3125,312.0938 954.4375,312.0938 C951.8125,312.0938 949.8125,314.1719 949.8125,316.8906 L949.8125,318.0156 C949.8125,320.5938 951.9219,322.4844 954.8125,322.4844 C956.0313,322.4844 957.1875,322.1875 957.9375,321.6406 C958.5156,321.2344 958.8438,320.7813 958.8438,320.3906 C958.8438,319.9375 958.4531,319.5469 957.9844,319.5469 C957.7656,319.5469 957.5625,319.625 957.375,319.8125 C956.9219,320.2969 956.9219,320.2969 956.7344,320.3906 C956.3125,320.6563 955.625,320.7813 954.8594,320.7813 C952.8125,320.7813 951.5156,319.6875 951.5156,317.9844 L951.5156,316.8906 C951.5156,315.1094 952.7656,313.7969 954.5,313.7969 C955.0781,313.7969 955.6875,313.9531 956.1563,314.2031 C956.6406,314.4844 956.8125,314.7031 956.9063,315.1094 C956.9688,315.5156 957,315.6406 957.1406,315.7656 C957.2813,315.9063 957.5156,316.0156 957.7344,316.0156 C958,316.0156 958.2656,315.875 958.4375,315.6563 C958.5469,315.5 958.5781,315.3125 958.5781,314.8906 L958.5781,313.4688 C958.5781,313.0313 958.5625,312.9063 958.4688,312.75 C958.3125,312.4844 958.0313,312.3438 957.7344,312.3438 C957.4375,312.3438 957.2344,312.4375 957.0156,312.75 L956.8438,312.6719 Z " fill="#000000"/><text fill="#000000" font-family="sans-serif" font-size="12" lengthAdjust="spacing" textLength="143" x="968.5" y="321.1543">DecisionTreeRegressor</text><line style="stroke:#A80036;stroke-width:1.5;" x1="940.5" x2="1113.5" y1="333" y2="333"/><line style="stroke:#A80036;stroke-width:1.5;" x1="940.5" x2="1113.5" y1="341" y2="341"/><!--MD5=[1182380c4c765c1b1c19ec976452f089]
class DataFrame--><rect codeLine="39" fill="#FEFECE" filter="url(#f1pe2xkchbawjp)" height="48" id="DataFrame" style="stroke:#A80036;stroke-width:1.5;" width="97" x="59.5" y="478"/><ellipse cx="74.5" cy="494" fill="#ADD1B2" rx="11" ry="11" style="stroke:#A80036;stroke-width:1.0;"/><path d="M76.8438,489.6719 C75.9063,489.2344 75.3125,489.0938 74.4375,489.0938 C71.8125,489.0938 69.8125,491.1719 69.8125,493.8906 L69.8125,495.0156 C69.8125,497.5938 71.9219,499.4844 74.8125,499.4844 C76.0313,499.4844 77.1875,499.1875 77.9375,498.6406 C78.5156,498.2344 78.8438,497.7813 78.8438,497.3906 C78.8438,496.9375 78.4531,496.5469 77.9844,496.5469 C77.7656,496.5469 77.5625,496.625 77.375,496.8125 C76.9219,497.2969 76.9219,497.2969 76.7344,497.3906 C76.3125,497.6563 75.625,497.7813 74.8594,497.7813 C72.8125,497.7813 71.5156,496.6875 71.5156,494.9844 L71.5156,493.8906 C71.5156,492.1094 72.7656,490.7969 74.5,490.7969 C75.0781,490.7969 75.6875,490.9531 76.1563,491.2031 C76.6406,491.4844 76.8125,491.7031 76.9063,492.1094 C76.9688,492.5156 77,492.6406 77.1406,492.7656 C77.2813,492.9063 77.5156,493.0156 77.7344,493.0156 C78,493.0156 78.2656,492.875 78.4375,492.6563 C78.5469,492.5 78.5781,492.3125 78.5781,491.8906 L78.5781,490.4688 C78.5781,490.0313 78.5625,489.9063 78.4688,489.75 C78.3125,489.4844 78.0313,489.3438 77.7344,489.3438 C77.4375,489.3438 77.2344,489.4375 77.0156,489.75 L76.8438,489.6719 Z " fill="#000000"/><text fill="#000000" font-family="sans-serif" font-size="12" lengthAdjust="spacing" textLength="65" x="88.5" y="498.1543">DataFrame</text><line style="stroke:#A80036;stroke-width:1.5;" x1="60.5" x2="155.5" y1="510" y2="510"/><line style="stroke:#A80036;stroke-width:1.5;" x1="60.5" x2="155.5" y1="518" y2="518"/><!--MD5=[11ce86fd4409221905d4cddf5201631a]
class Series--><rect codeLine="40" fill="#FEFECE" filter="url(#f1pe2xkchbawjp)" height="48" id="Series" style="stroke:#A80036;stroke-width:1.5;" width="71" x="72.5" y="608"/><ellipse cx="87.5" cy="624" fill="#ADD1B2" rx="11" ry="11" style="stroke:#A80036;stroke-width:1.0;"/><path d="M89.8438,619.6719 C88.9063,619.2344 88.3125,619.0938 87.4375,619.0938 C84.8125,619.0938 82.8125,621.1719 82.8125,623.8906 L82.8125,625.0156 C82.8125,627.5938 84.9219,629.4844 87.8125,629.4844 C89.0313,629.4844 90.1875,629.1875 90.9375,628.6406 C91.5156,628.2344 91.8438,627.7813 91.8438,627.3906 C91.8438,626.9375 91.4531,626.5469 90.9844,626.5469 C90.7656,626.5469 90.5625,626.625 90.375,626.8125 C89.9219,627.2969 89.9219,627.2969 89.7344,627.3906 C89.3125,627.6563 88.625,627.7813 87.8594,627.7813 C85.8125,627.7813 84.5156,626.6875 84.5156,624.9844 L84.5156,623.8906 C84.5156,622.1094 85.7656,620.7969 87.5,620.7969 C88.0781,620.7969 88.6875,620.9531 89.1563,621.2031 C89.6406,621.4844 89.8125,621.7031 89.9063,622.1094 C89.9688,622.5156 90,622.6406 90.1406,622.7656 C90.2813,622.9063 90.5156,623.0156 90.7344,623.0156 C91,623.0156 91.2656,622.875 91.4375,622.6563 C91.5469,622.5 91.5781,622.3125 91.5781,621.8906 L91.5781,620.4688 C91.5781,620.0313 91.5625,619.9063 91.4688,619.75 C91.3125,619.4844 91.0313,619.3438 90.7344,619.3438 C90.4375,619.3438 90.2344,619.4375 90.0156,619.75 L89.8438,619.6719 Z " fill="#000000"/><text fill="#000000" font-family="sans-serif" font-size="12" lengthAdjust="spacing" textLength="39" x="101.5" y="628.1543">Series</text><line style="stroke:#A80036;stroke-width:1.5;" x1="73.5" x2="142.5" y1="640" y2="640"/><line style="stroke:#A80036;stroke-width:1.5;" x1="73.5" x2="142.5" y1="648" y2="648"/><!--MD5=[903e31d613f66347c9ea6ec6d2d075a5]
class ndarray--><rect codeLine="48" fill="#FEFECE" filter="url(#f1pe2xkchbawjp)" height="48" id="ndarray" style="stroke:#A80036;stroke-width:1.5;" width="78" x="784" y="478"/><ellipse cx="799" cy="494" fill="#ADD1B2" rx="11" ry="11" style="stroke:#A80036;stroke-width:1.0;"/><path d="M801.3438,489.6719 C800.4063,489.2344 799.8125,489.0938 798.9375,489.0938 C796.3125,489.0938 794.3125,491.1719 794.3125,493.8906 L794.3125,495.0156 C794.3125,497.5938 796.4219,499.4844 799.3125,499.4844 C800.5313,499.4844 801.6875,499.1875 802.4375,498.6406 C803.0156,498.2344 803.3438,497.7813 803.3438,497.3906 C803.3438,496.9375 802.9531,496.5469 802.4844,496.5469 C802.2656,496.5469 802.0625,496.625 801.875,496.8125 C801.4219,497.2969 801.4219,497.2969 801.2344,497.3906 C800.8125,497.6563 800.125,497.7813 799.3594,497.7813 C797.3125,497.7813 796.0156,496.6875 796.0156,494.9844 L796.0156,493.8906 C796.0156,492.1094 797.2656,490.7969 799,490.7969 C799.5781,490.7969 800.1875,490.9531 800.6563,491.2031 C801.1406,491.4844 801.3125,491.7031 801.4063,492.1094 C801.4688,492.5156 801.5,492.6406 801.6406,492.7656 C801.7813,492.9063 802.0156,493.0156 802.2344,493.0156 C802.5,493.0156 802.7656,492.875 802.9375,492.6563 C803.0469,492.5 803.0781,492.3125 803.0781,491.8906 L803.0781,490.4688 C803.0781,490.0313 803.0625,489.9063 802.9688,489.75 C802.8125,489.4844 802.5313,489.3438 802.2344,489.3438 C801.9375,489.3438 801.7344,489.4375 801.5156,489.75 L801.3438,489.6719 Z " fill="#000000"/><text fill="#000000" font-family="sans-serif" font-size="12" lengthAdjust="spacing" textLength="46" x="813" y="498.1543">ndarray</text><line style="stroke:#A80036;stroke-width:1.5;" x1="785" x2="861" y1="510" y2="510"/><line style="stroke:#A80036;stroke-width:1.5;" x1="785" x2="861" y1="518" y2="518"/><!--MD5=[07cd59b856fc985ee1397feb47f84f8d]
class sklearn.metrics--><rect codeLine="54" fill="#FEFECE" filter="url(#f1pe2xkchbawjp)" height="92.3516" id="sklearn.metrics" style="stroke:#A80036;stroke-width:1.5;" width="242" x="435" y="456"/><ellipse cx="518.75" cy="474.9688" fill="#FFFFFF" rx="11" ry="11" style="stroke:#A80036;stroke-width:1.0;"/><path d="M518.8281,474.7344 L521.4063,474.7344 C521.7813,474.7344 521.9844,474.7031 522.1094,474.625 C522.375,474.4531 522.5156,474.1719 522.5156,473.8906 C522.5156,473.625 522.3906,473.3594 522.1719,473.1875 C522,473.0781 521.8594,473.0469 521.4063,473.0469 L518.8281,473.0469 L518.8281,472.4063 C518.8281,471.8438 519.2969,471.5781 520.2656,471.5781 C520.7813,471.5781 521.6094,471.6563 522.1875,471.7656 C522.3906,471.7969 522.5625,471.8125 522.6563,471.8125 C523.0938,471.8125 523.4531,471.4375 523.4531,470.9531 C523.4531,470.5625 523.2031,470.2656 522.75,470.1563 C522.2031,470 521.125,469.875 520.4063,469.875 C518.3906,469.875 517.1406,470.8438 517.1406,472.4063 L517.1406,473.0469 L516.3438,473.0469 C515.8906,473.0469 515.7656,473.0625 515.625,473.1563 C515.3594,473.3125 515.2188,473.5938 515.2188,473.8906 C515.2188,474.1563 515.3438,474.4219 515.5625,474.5625 C515.7188,474.7031 515.9219,474.7344 516.3281,474.7344 L517.1406,474.7344 L517.1406,478.7656 L516.1406,478.7656 C515.7031,478.7656 515.5938,478.7813 515.4375,478.8906 C515.1719,479.0469 515.0313,479.3281 515.0313,479.625 C515.0313,479.875 515.1563,480.1406 515.3594,480.2969 C515.5156,480.4219 515.75,480.4688 516.1406,480.4688 L521.2031,480.4688 C521.5313,480.4688 521.7969,480.4219 521.9063,480.3438 C522.1719,480.1875 522.3125,479.9063 522.3125,479.625 C522.3125,479.3438 522.1875,479.0938 521.9844,478.9219 C521.8125,478.7969 521.6563,478.7656 521.2031,478.7656 L518.8281,478.7656 L518.8281,474.7344 Z " fill="#000000"/><text fill="#000000" font-family="sans-serif" font-size="12" font-style="italic" lengthAdjust="spacing" textLength="70" x="537.25" y="472.1387">«functions»</text><text fill="#000000" font-family="sans-serif" font-size="12" lengthAdjust="spacing" textLength="45" x="549.75" y="486.1074">metrics</text><line style="stroke:#A80036;stroke-width:1.5;" x1="436" x2="676" y1="493.9375" y2="493.9375"/><line style="stroke:#A80036;stroke-width:1.5;" x1="436" x2="676" y1="501.9375" y2="501.9375"/><ellipse cx="446" cy="512.9375" fill="#84BE84" rx="3" ry="3" style="stroke:#038048;stroke-width:1.0;"/><text fill="#000000" font-family="sans-serif" font-size="11" lengthAdjust="spacing" textLength="216" x="455" y="516.1479">accuracy_score(y_true, y_pred, *[, …])</text><ellipse cx="446" cy="525.7422" fill="#84BE84" rx="3" ry="3" style="stroke:#038048;stroke-width:1.0;"/><text fill="#000000" font-family="sans-serif" font-size="11" lengthAdjust="spacing" textLength="177" x="455" y="528.9526">f1_score(y_true, y_pred, *[, …])</text><ellipse cx="446" cy="538.5469" fill="#84BE84" rx="3" ry="3" style="stroke:#038048;stroke-width:1.0;"/><text fill="#000000" font-family="sans-serif" font-size="11" lengthAdjust="spacing" textLength="197" x="455" y="541.7573">recall_score(y_true, y_pred, *[, …])</text><!--MD5=[bec29a9e20d041d21c3e24783e81c6cf]
class SelectFpr--><rect codeLine="63" fill="#FEFECE" filter="url(#f1pe2xkchbawjp)" height="48" id="SelectFpr" style="stroke:#A80036;stroke-width:1.5;" width="90" x="832" y="162"/><ellipse cx="847" cy="178" fill="#ADD1B2" rx="11" ry="11" style="stroke:#A80036;stroke-width:1.0;"/><path d="M849.3438,173.6719 C848.4063,173.2344 847.8125,173.0938 846.9375,173.0938 C844.3125,173.0938 842.3125,175.1719 842.3125,177.8906 L842.3125,179.0156 C842.3125,181.5938 844.4219,183.4844 847.3125,183.4844 C848.5313,183.4844 849.6875,183.1875 850.4375,182.6406 C851.0156,182.2344 851.3438,181.7813 851.3438,181.3906 C851.3438,180.9375 850.9531,180.5469 850.4844,180.5469 C850.2656,180.5469 850.0625,180.625 849.875,180.8125 C849.4219,181.2969 849.4219,181.2969 849.2344,181.3906 C848.8125,181.6563 848.125,181.7813 847.3594,181.7813 C845.3125,181.7813 844.0156,180.6875 844.0156,178.9844 L844.0156,177.8906 C844.0156,176.1094 845.2656,174.7969 847,174.7969 C847.5781,174.7969 848.1875,174.9531 848.6563,175.2031 C849.1406,175.4844 849.3125,175.7031 849.4063,176.1094 C849.4688,176.5156 849.5,176.6406 849.6406,176.7656 C849.7813,176.9063 850.0156,177.0156 850.2344,177.0156 C850.5,177.0156 850.7656,176.875 850.9375,176.6563 C851.0469,176.5 851.0781,176.3125 851.0781,175.8906 L851.0781,174.4688 C851.0781,174.0313 851.0625,173.9063 850.9688,173.75 C850.8125,173.4844 850.5313,173.3438 850.2344,173.3438 C849.9375,173.3438 849.7344,173.4375 849.5156,173.75 L849.3438,173.6719 Z " fill="#000000"/><text fill="#000000" font-family="sans-serif" font-size="12" lengthAdjust="spacing" textLength="58" x="861" y="182.1543">SelectFpr</text><line style="stroke:#A80036;stroke-width:1.5;" x1="833" x2="921" y1="194" y2="194"/><line style="stroke:#A80036;stroke-width:1.5;" x1="833" x2="921" y1="202" y2="202"/><!--MD5=[83cb3bb561314f13cf17f5398044fad1]
class SelectFdr--><rect codeLine="64" fill="#FEFECE" filter="url(#f1pe2xkchbawjp)" height="48" id="SelectFdr" style="stroke:#A80036;stroke-width:1.5;" width="90" x="972" y="162"/><ellipse cx="987" cy="178" fill="#ADD1B2" rx="11" ry="11" style="stroke:#A80036;stroke-width:1.0;"/><path d="M989.3438,173.6719 C988.4063,173.2344 987.8125,173.0938 986.9375,173.0938 C984.3125,173.0938 982.3125,175.1719 982.3125,177.8906 L982.3125,179.0156 C982.3125,181.5938 984.4219,183.4844 987.3125,183.4844 C988.5313,183.4844 989.6875,183.1875 990.4375,182.6406 C991.0156,182.2344 991.3438,181.7813 991.3438,181.3906 C991.3438,180.9375 990.9531,180.5469 990.4844,180.5469 C990.2656,180.5469 990.0625,180.625 989.875,180.8125 C989.4219,181.2969 989.4219,181.2969 989.2344,181.3906 C988.8125,181.6563 988.125,181.7813 987.3594,181.7813 C985.3125,181.7813 984.0156,180.6875 984.0156,178.9844 L984.0156,177.8906 C984.0156,176.1094 985.2656,174.7969 987,174.7969 C987.5781,174.7969 988.1875,174.9531 988.6563,175.2031 C989.1406,175.4844 989.3125,175.7031 989.4063,176.1094 C989.4688,176.5156 989.5,176.6406 989.6406,176.7656 C989.7813,176.9063 990.0156,177.0156 990.2344,177.0156 C990.5,177.0156 990.7656,176.875 990.9375,176.6563 C991.0469,176.5 991.0781,176.3125 991.0781,175.8906 L991.0781,174.4688 C991.0781,174.0313 991.0625,173.9063 990.9688,173.75 C990.8125,173.4844 990.5313,173.3438 990.2344,173.3438 C989.9375,173.3438 989.7344,173.4375 989.5156,173.75 L989.3438,173.6719 Z " fill="#000000"/><text fill="#000000" font-family="sans-serif" font-size="12" lengthAdjust="spacing" textLength="58" x="1001" y="182.1543">SelectFdr</text><line style="stroke:#A80036;stroke-width:1.5;" x1="973" x2="1061" y1="194" y2="194"/><line style="stroke:#A80036;stroke-width:1.5;" x1="973" x2="1061" y1="202" y2="202"/><!--MD5=[1412f8ab33dd701051ae4bb2ad30d927]
class SequentialFeatureSelector--><rect codeLine="65" fill="#FEFECE" filter="url(#f1pe2xkchbawjp)" height="48" id="SequentialFeatureSelector" style="stroke:#A80036;stroke-width:1.5;" width="192" x="781" y="41"/><ellipse cx="796" cy="57" fill="#ADD1B2" rx="11" ry="11" style="stroke:#A80036;stroke-width:1.0;"/><path d="M798.3438,52.6719 C797.4063,52.2344 796.8125,52.0938 795.9375,52.0938 C793.3125,52.0938 791.3125,54.1719 791.3125,56.8906 L791.3125,58.0156 C791.3125,60.5938 793.4219,62.4844 796.3125,62.4844 C797.5313,62.4844 798.6875,62.1875 799.4375,61.6406 C800.0156,61.2344 800.3438,60.7813 800.3438,60.3906 C800.3438,59.9375 799.9531,59.5469 799.4844,59.5469 C799.2656,59.5469 799.0625,59.625 798.875,59.8125 C798.4219,60.2969 798.4219,60.2969 798.2344,60.3906 C797.8125,60.6563 797.125,60.7813 796.3594,60.7813 C794.3125,60.7813 793.0156,59.6875 793.0156,57.9844 L793.0156,56.8906 C793.0156,55.1094 794.2656,53.7969 796,53.7969 C796.5781,53.7969 797.1875,53.9531 797.6563,54.2031 C798.1406,54.4844 798.3125,54.7031 798.4063,55.1094 C798.4688,55.5156 798.5,55.6406 798.6406,55.7656 C798.7813,55.9063 799.0156,56.0156 799.2344,56.0156 C799.5,56.0156 799.7656,55.875 799.9375,55.6563 C800.0469,55.5 800.0781,55.3125 800.0781,54.8906 L800.0781,53.4688 C800.0781,53.0313 800.0625,52.9063 799.9688,52.75 C799.8125,52.4844 799.5313,52.3438 799.2344,52.3438 C798.9375,52.3438 798.7344,52.4375 798.5156,52.75 L798.3438,52.6719 Z " fill="#000000"/><text fill="#000000" font-family="sans-serif" font-size="12" lengthAdjust="spacing" textLength="160" x="810" y="61.1543">SequentialFeatureSelector</text><line style="stroke:#A80036;stroke-width:1.5;" x1="782" x2="972" y1="73" y2="73"/><line style="stroke:#A80036;stroke-width:1.5;" x1="782" x2="972" y1="81" y2="81"/><!--MD5=[3630e1fbbbcd0715ed03ee7125906a08]
class RFE--><rect codeLine="66" fill="#FEFECE" filter="url(#f1pe2xkchbawjp)" height="48" id="RFE" style="stroke:#A80036;stroke-width:1.5;" width="53" x="1008.5" y="41"/><ellipse cx="1023.5" cy="57" fill="#ADD1B2" rx="11" ry="11" style="stroke:#A80036;stroke-width:1.0;"/><path d="M1025.8438,52.6719 C1024.9063,52.2344 1024.3125,52.0938 1023.4375,52.0938 C1020.8125,52.0938 1018.8125,54.1719 1018.8125,56.8906 L1018.8125,58.0156 C1018.8125,60.5938 1020.9219,62.4844 1023.8125,62.4844 C1025.0313,62.4844 1026.1875,62.1875 1026.9375,61.6406 C1027.5156,61.2344 1027.8438,60.7813 1027.8438,60.3906 C1027.8438,59.9375 1027.4531,59.5469 1026.9844,59.5469 C1026.7656,59.5469 1026.5625,59.625 1026.375,59.8125 C1025.9219,60.2969 1025.9219,60.2969 1025.7344,60.3906 C1025.3125,60.6563 1024.625,60.7813 1023.8594,60.7813 C1021.8125,60.7813 1020.5156,59.6875 1020.5156,57.9844 L1020.5156,56.8906 C1020.5156,55.1094 1021.7656,53.7969 1023.5,53.7969 C1024.0781,53.7969 1024.6875,53.9531 1025.1563,54.2031 C1025.6406,54.4844 1025.8125,54.7031 1025.9063,55.1094 C1025.9688,55.5156 1026,55.6406 1026.1406,55.7656 C1026.2813,55.9063 1026.5156,56.0156 1026.7344,56.0156 C1027,56.0156 1027.2656,55.875 1027.4375,55.6563 C1027.5469,55.5 1027.5781,55.3125 1027.5781,54.8906 L1027.5781,53.4688 C1027.5781,53.0313 1027.5625,52.9063 1027.4688,52.75 C1027.3125,52.4844 1027.0313,52.3438 1026.7344,52.3438 C1026.4375,52.3438 1026.2344,52.4375 1026.0156,52.75 L1025.8438,52.6719 Z " fill="#000000"/><text fill="#000000" font-family="sans-serif" font-size="12" lengthAdjust="spacing" textLength="21" x="1037.5" y="61.1543">RFE</text><line style="stroke:#A80036;stroke-width:1.5;" x1="1009.5" x2="1060.5" y1="73" y2="73"/><line style="stroke:#A80036;stroke-width:1.5;" x1="1009.5" x2="1060.5" y1="81" y2="81"/><!--MD5=[83792d8402a2b27cf20f62b6cdb00c32]
class GroupKFold--><rect codeLine="73" fill="#FEFECE" filter="url(#f1pe2xkchbawjp)" height="48" id="GroupKFold" style="stroke:#A80036;stroke-width:1.5;" width="103" x="103.5" y="41"/><ellipse cx="118.5" cy="57" fill="#ADD1B2" rx="11" ry="11" style="stroke:#A80036;stroke-width:1.0;"/><path d="M120.8438,52.6719 C119.9063,52.2344 119.3125,52.0938 118.4375,52.0938 C115.8125,52.0938 113.8125,54.1719 113.8125,56.8906 L113.8125,58.0156 C113.8125,60.5938 115.9219,62.4844 118.8125,62.4844 C120.0313,62.4844 121.1875,62.1875 121.9375,61.6406 C122.5156,61.2344 122.8438,60.7813 122.8438,60.3906 C122.8438,59.9375 122.4531,59.5469 121.9844,59.5469 C121.7656,59.5469 121.5625,59.625 121.375,59.8125 C120.9219,60.2969 120.9219,60.2969 120.7344,60.3906 C120.3125,60.6563 119.625,60.7813 118.8594,60.7813 C116.8125,60.7813 115.5156,59.6875 115.5156,57.9844 L115.5156,56.8906 C115.5156,55.1094 116.7656,53.7969 118.5,53.7969 C119.0781,53.7969 119.6875,53.9531 120.1563,54.2031 C120.6406,54.4844 120.8125,54.7031 120.9063,55.1094 C120.9688,55.5156 121,55.6406 121.1406,55.7656 C121.2813,55.9063 121.5156,56.0156 121.7344,56.0156 C122,56.0156 122.2656,55.875 122.4375,55.6563 C122.5469,55.5 122.5781,55.3125 122.5781,54.8906 L122.5781,53.4688 C122.5781,53.0313 122.5625,52.9063 122.4688,52.75 C122.3125,52.4844 122.0313,52.3438 121.7344,52.3438 C121.4375,52.3438 121.2344,52.4375 121.0156,52.75 L120.8438,52.6719 Z " fill="#000000"/><text fill="#000000" font-family="sans-serif" font-size="12" lengthAdjust="spacing" textLength="71" x="132.5" y="61.1543">GroupKFold</text><line style="stroke:#A80036;stroke-width:1.5;" x1="104.5" x2="205.5" y1="73" y2="73"/><line style="stroke:#A80036;stroke-width:1.5;" x1="104.5" x2="205.5" y1="81" y2="81"/><!--MD5=[d41e6766aebb2a82e7400b0ff2797432]
class KFold--><rect codeLine="74" fill="#FEFECE" filter="url(#f1pe2xkchbawjp)" height="48" id="KFold" style="stroke:#A80036;stroke-width:1.5;" width="66" x="242" y="41"/><ellipse cx="257" cy="57" fill="#ADD1B2" rx="11" ry="11" style="stroke:#A80036;stroke-width:1.0;"/><path d="M259.3438,52.6719 C258.4063,52.2344 257.8125,52.0938 256.9375,52.0938 C254.3125,52.0938 252.3125,54.1719 252.3125,56.8906 L252.3125,58.0156 C252.3125,60.5938 254.4219,62.4844 257.3125,62.4844 C258.5313,62.4844 259.6875,62.1875 260.4375,61.6406 C261.0156,61.2344 261.3438,60.7813 261.3438,60.3906 C261.3438,59.9375 260.9531,59.5469 260.4844,59.5469 C260.2656,59.5469 260.0625,59.625 259.875,59.8125 C259.4219,60.2969 259.4219,60.2969 259.2344,60.3906 C258.8125,60.6563 258.125,60.7813 257.3594,60.7813 C255.3125,60.7813 254.0156,59.6875 254.0156,57.9844 L254.0156,56.8906 C254.0156,55.1094 255.2656,53.7969 257,53.7969 C257.5781,53.7969 258.1875,53.9531 258.6563,54.2031 C259.1406,54.4844 259.3125,54.7031 259.4063,55.1094 C259.4688,55.5156 259.5,55.6406 259.6406,55.7656 C259.7813,55.9063 260.0156,56.0156 260.2344,56.0156 C260.5,56.0156 260.7656,55.875 260.9375,55.6563 C261.0469,55.5 261.0781,55.3125 261.0781,54.8906 L261.0781,53.4688 C261.0781,53.0313 261.0625,52.9063 260.9688,52.75 C260.8125,52.4844 260.5313,52.3438 260.2344,52.3438 C259.9375,52.3438 259.7344,52.4375 259.5156,52.75 L259.3438,52.6719 Z " fill="#000000"/><text fill="#000000" font-family="sans-serif" font-size="12" lengthAdjust="spacing" textLength="34" x="271" y="61.1543">KFold</text><line style="stroke:#A80036;stroke-width:1.5;" x1="243" x2="307" y1="73" y2="73"/><line style="stroke:#A80036;stroke-width:1.5;" x1="243" x2="307" y1="81" y2="81"/><!--MD5=[2882922b6204ca02f3705d1b5d393184]
class LeaveOneGroupOut--><rect codeLine="75" fill="#FEFECE" filter="url(#f1pe2xkchbawjp)" height="48" id="LeaveOneGroupOut" style="stroke:#A80036;stroke-width:1.5;" width="151" x="79.5" y="162"/><ellipse cx="94.5" cy="178" fill="#ADD1B2" rx="11" ry="11" style="stroke:#A80036;stroke-width:1.0;"/><path d="M96.8438,173.6719 C95.9063,173.2344 95.3125,173.0938 94.4375,173.0938 C91.8125,173.0938 89.8125,175.1719 89.8125,177.8906 L89.8125,179.0156 C89.8125,181.5938 91.9219,183.4844 94.8125,183.4844 C96.0313,183.4844 97.1875,183.1875 97.9375,182.6406 C98.5156,182.2344 98.8438,181.7813 98.8438,181.3906 C98.8438,180.9375 98.4531,180.5469 97.9844,180.5469 C97.7656,180.5469 97.5625,180.625 97.375,180.8125 C96.9219,181.2969 96.9219,181.2969 96.7344,181.3906 C96.3125,181.6563 95.625,181.7813 94.8594,181.7813 C92.8125,181.7813 91.5156,180.6875 91.5156,178.9844 L91.5156,177.8906 C91.5156,176.1094 92.7656,174.7969 94.5,174.7969 C95.0781,174.7969 95.6875,174.9531 96.1563,175.2031 C96.6406,175.4844 96.8125,175.7031 96.9063,176.1094 C96.9688,176.5156 97,176.6406 97.1406,176.7656 C97.2813,176.9063 97.5156,177.0156 97.7344,177.0156 C98,177.0156 98.2656,176.875 98.4375,176.6563 C98.5469,176.5 98.5781,176.3125 98.5781,175.8906 L98.5781,174.4688 C98.5781,174.0313 98.5625,173.9063 98.4688,173.75 C98.3125,173.4844 98.0313,173.3438 97.7344,173.3438 C97.4375,173.3438 97.2344,173.4375 97.0156,173.75 L96.8438,173.6719 Z " fill="#000000"/><text fill="#000000" font-family="sans-serif" font-size="12" lengthAdjust="spacing" textLength="119" x="108.5" y="182.1543">LeaveOneGroupOut</text><line style="stroke:#A80036;stroke-width:1.5;" x1="80.5" x2="229.5" y1="194" y2="194"/><line style="stroke:#A80036;stroke-width:1.5;" x1="80.5" x2="229.5" y1="202" y2="202"/><!--MD5=[620fbb7fd1cda6773e03dfd736a901cb]
class LeaveOneOut--><rect codeLine="76" fill="#FEFECE" filter="url(#f1pe2xkchbawjp)" height="48" id="LeaveOneOut" style="stroke:#A80036;stroke-width:1.5;" width="114" x="266" y="162"/><ellipse cx="281" cy="178" fill="#ADD1B2" rx="11" ry="11" style="stroke:#A80036;stroke-width:1.0;"/><path d="M283.3438,173.6719 C282.4063,173.2344 281.8125,173.0938 280.9375,173.0938 C278.3125,173.0938 276.3125,175.1719 276.3125,177.8906 L276.3125,179.0156 C276.3125,181.5938 278.4219,183.4844 281.3125,183.4844 C282.5313,183.4844 283.6875,183.1875 284.4375,182.6406 C285.0156,182.2344 285.3438,181.7813 285.3438,181.3906 C285.3438,180.9375 284.9531,180.5469 284.4844,180.5469 C284.2656,180.5469 284.0625,180.625 283.875,180.8125 C283.4219,181.2969 283.4219,181.2969 283.2344,181.3906 C282.8125,181.6563 282.125,181.7813 281.3594,181.7813 C279.3125,181.7813 278.0156,180.6875 278.0156,178.9844 L278.0156,177.8906 C278.0156,176.1094 279.2656,174.7969 281,174.7969 C281.5781,174.7969 282.1875,174.9531 282.6563,175.2031 C283.1406,175.4844 283.3125,175.7031 283.4063,176.1094 C283.4688,176.5156 283.5,176.6406 283.6406,176.7656 C283.7813,176.9063 284.0156,177.0156 284.2344,177.0156 C284.5,177.0156 284.7656,176.875 284.9375,176.6563 C285.0469,176.5 285.0781,176.3125 285.0781,175.8906 L285.0781,174.4688 C285.0781,174.0313 285.0625,173.9063 284.9688,173.75 C284.8125,173.4844 284.5313,173.3438 284.2344,173.3438 C283.9375,173.3438 283.7344,173.4375 283.5156,173.75 L283.3438,173.6719 Z " fill="#000000"/><text fill="#000000" font-family="sans-serif" font-size="12" lengthAdjust="spacing" textLength="82" x="295" y="182.1543">LeaveOneOut</text><line style="stroke:#A80036;stroke-width:1.5;" x1="267" x2="379" y1="194" y2="194"/><line style="stroke:#A80036;stroke-width:1.5;" x1="267" x2="379" y1="202" y2="202"/><!--MD5=[4b14b1ad0a11b0e65e5cf7d2c67307f1]
class Predictor--><rect codeLine="7" fill="#FEFECE" filter="url(#f1pe2xkchbawjp)" height="73.6094" id="Predictor" style="stroke:#A80036;stroke-width:1.5;" width="86" x="513" y="28"/><ellipse cx="528" cy="44" fill="#B4A7E5" rx="11" ry="11" style="stroke:#A80036;stroke-width:1.0;"/><path d="M528.9531,40.7813 L530.6719,40.7813 C531.0625,40.7813 531.25,40.75 531.375,40.6719 C531.6406,40.5156 531.7813,40.2344 531.7813,39.9375 C531.7813,39.6719 531.6719,39.4063 531.4375,39.2344 C531.2656,39.125 531.125,39.0938 530.6719,39.0938 L525.5313,39.0938 C525.0938,39.0938 524.9688,39.1094 524.8125,39.2031 C524.5625,39.3594 524.4063,39.6563 524.4063,39.9375 C524.4063,40.2188 524.5469,40.4688 524.7656,40.6406 C524.9219,40.75 525.1094,40.7813 525.5313,40.7813 L527.25,40.7813 L527.25,47.2969 L525.5313,47.2969 C525.0938,47.2969 524.9688,47.3125 524.8125,47.4219 C524.5625,47.5781 524.4063,47.8594 524.4063,48.1563 C524.4063,48.4063 524.5469,48.6719 524.7656,48.8281 C524.9219,48.9531 525.125,49 525.5313,49 L530.6719,49 C531.4219,49 531.7813,48.7188 531.7813,48.1563 C531.7813,47.875 531.6719,47.625 531.4375,47.4531 C531.2656,47.3281 531.125,47.2969 530.6719,47.2969 L528.9531,47.2969 L528.9531,40.7813 Z " fill="#000000"/><text fill="#000000" font-family="sans-serif" font-size="12" font-style="italic" lengthAdjust="spacing" textLength="54" x="542" y="48.1543">Predictor</text><line style="stroke:#A80036;stroke-width:1.5;" x1="514" x2="598" y1="60" y2="60"/><line style="stroke:#A80036;stroke-width:1.5;" x1="514" x2="598" y1="68" y2="68"/><ellipse cx="524" cy="79" fill="#84BE84" rx="3" ry="3" style="stroke:#038048;stroke-width:1.0;"/><text fill="#000000" font-family="sans-serif" font-size="11" lengthAdjust="spacing" textLength="41" x="533" y="82.2104">fit(X, y)</text><ellipse cx="524" cy="91.8047" fill="#84BE84" rx="3" ry="3" style="stroke:#038048;stroke-width:1.0;"/><text fill="#000000" font-family="sans-serif" font-size="11" lengthAdjust="spacing" textLength="55" x="533" y="95.0151">predict(X)</text><!--MD5=[e5192d39c070dac6a79b288c93719d10]
class Classifier--><rect codeLine="12" fill="#FEFECE" filter="url(#f1pe2xkchbawjp)" height="48" id="Classifier" style="stroke:#A80036;stroke-width:1.5;" width="84" x="453" y="162"/><ellipse cx="468" cy="178" fill="#B4A7E5" rx="11" ry="11" style="stroke:#A80036;stroke-width:1.0;"/><path d="M468.9531,174.7813 L470.6719,174.7813 C471.0625,174.7813 471.25,174.75 471.375,174.6719 C471.6406,174.5156 471.7813,174.2344 471.7813,173.9375 C471.7813,173.6719 471.6719,173.4063 471.4375,173.2344 C471.2656,173.125 471.125,173.0938 470.6719,173.0938 L465.5313,173.0938 C465.0938,173.0938 464.9688,173.1094 464.8125,173.2031 C464.5625,173.3594 464.4063,173.6563 464.4063,173.9375 C464.4063,174.2188 464.5469,174.4688 464.7656,174.6406 C464.9219,174.75 465.1094,174.7813 465.5313,174.7813 L467.25,174.7813 L467.25,181.2969 L465.5313,181.2969 C465.0938,181.2969 464.9688,181.3125 464.8125,181.4219 C464.5625,181.5781 464.4063,181.8594 464.4063,182.1563 C464.4063,182.4063 464.5469,182.6719 464.7656,182.8281 C464.9219,182.9531 465.125,183 465.5313,183 L470.6719,183 C471.4219,183 471.7813,182.7188 471.7813,182.1563 C471.7813,181.875 471.6719,181.625 471.4375,181.4531 C471.2656,181.3281 471.125,181.2969 470.6719,181.2969 L468.9531,181.2969 L468.9531,174.7813 Z " fill="#000000"/><text fill="#000000" font-family="sans-serif" font-size="12" font-style="italic" lengthAdjust="spacing" textLength="52" x="482" y="182.1543">Classifier</text><line style="stroke:#A80036;stroke-width:1.5;" x1="454" x2="536" y1="194" y2="194"/><line style="stroke:#A80036;stroke-width:1.5;" x1="454" x2="536" y1="202" y2="202"/><!--MD5=[a1003969a41c231021ce83512ea337cd]
class Regressor--><rect codeLine="14" fill="#FEFECE" filter="url(#f1pe2xkchbawjp)" height="48" id="Regressor" style="stroke:#A80036;stroke-width:1.5;" width="91" x="572.5" y="162"/><ellipse cx="587.5" cy="178" fill="#B4A7E5" rx="11" ry="11" style="stroke:#A80036;stroke-width:1.0;"/><path d="M588.4531,174.7813 L590.1719,174.7813 C590.5625,174.7813 590.75,174.75 590.875,174.6719 C591.1406,174.5156 591.2813,174.2344 591.2813,173.9375 C591.2813,173.6719 591.1719,173.4063 590.9375,173.2344 C590.7656,173.125 590.625,173.0938 590.1719,173.0938 L585.0313,173.0938 C584.5938,173.0938 584.4688,173.1094 584.3125,173.2031 C584.0625,173.3594 583.9063,173.6563 583.9063,173.9375 C583.9063,174.2188 584.0469,174.4688 584.2656,174.6406 C584.4219,174.75 584.6094,174.7813 585.0313,174.7813 L586.75,174.7813 L586.75,181.2969 L585.0313,181.2969 C584.5938,181.2969 584.4688,181.3125 584.3125,181.4219 C584.0625,181.5781 583.9063,181.8594 583.9063,182.1563 C583.9063,182.4063 584.0469,182.6719 584.2656,182.8281 C584.4219,182.9531 584.625,183 585.0313,183 L590.1719,183 C590.9219,183 591.2813,182.7188 591.2813,182.1563 C591.2813,181.875 591.1719,181.625 590.9375,181.4531 C590.7656,181.3281 590.625,181.2969 590.1719,181.2969 L588.4531,181.2969 L588.4531,174.7813 Z " fill="#000000"/><text fill="#000000" font-family="sans-serif" font-size="12" font-style="italic" lengthAdjust="spacing" textLength="59" x="601.5" y="182.1543">Regressor</text><line style="stroke:#A80036;stroke-width:1.5;" x1="573.5" x2="662.5" y1="194" y2="194"/><line style="stroke:#A80036;stroke-width:1.5;" x1="573.5" x2="662.5" y1="202" y2="202"/><!--MD5=[d9b11c3c609a9aefb59a80877f08d669]
reverse link Predictor to Classifier--><path codeLine="16" d="M528.263,120.109 C520.74,134.786 512.991,149.903 506.867,161.85 " fill="none" id="Predictor-backto-Classifier" style="stroke:#A80036;stroke-width:1.0;"/><polygon fill="none" points="522.18,116.632,537.532,102.027,534.638,123.018,522.18,116.632" style="stroke:#A80036;stroke-width:1.0;"/><!--MD5=[784e30f151bec541b541ac181bf67a73]
reverse link Predictor to Regressor--><path codeLine="18" d="M584.191,120.109 C591.838,134.786 599.714,149.903 605.939,161.85 " fill="none" id="Predictor-backto-Regressor" style="stroke:#A80036;stroke-width:1.0;"/><polygon fill="none" points="577.804,122.998,574.77,102.027,590.219,116.529,577.804,122.998" style="stroke:#A80036;stroke-width:1.0;"/><!--MD5=[5a9f108d13ddb85542fe466d2d002d49]
reverse link Classifier to LogisticRegression--><path codeLine="21" d="M437.053,219.181 C423.915,225.141 409.767,230.564 396,234 C358.445,243.373 257.765,227.197 222,242 C192.118,254.368 165.807,281.242 149.472,300.866 " fill="none" id="Classifier-backto-LogisticRegression" style="stroke:#A80036;stroke-width:1.0;"/><polygon fill="none" points="434.372,212.7,455.418,210.232,440.505,225.285,434.372,212.7" style="stroke:#A80036;stroke-width:1.0;"/><!--MD5=[c42b07b4062e355d7801e414d3543cd8]
reverse link Regressor to LinearRegression--><path codeLine="23" d="M577.126,222.123 C569.816,226.867 561.975,231.094 554,234 C502.946,252.605 483.496,224.656 432,242 C394.578,254.604 357.595,281.432 333.893,300.98 " fill="none" id="Regressor-backto-LinearRegression" style="stroke:#A80036;stroke-width:1.0;"/><polygon fill="none" points="573.233,216.297,593.5,210.112,581.513,227.586,573.233,216.297" style="stroke:#A80036;stroke-width:1.0;"/><!--MD5=[78fe71cb052f7f0e1fcad4e61fd3989b]
reverse link Classifier to SVC--><path codeLine="27" d="M500.065,230.368 C502.784,253.647 506.027,281.422 508.273,300.646 " fill="none" id="Classifier-backto-SVC" style="stroke:#A80036;stroke-width:1.0;"/><polygon fill="none" points="493.082,230.917,497.714,210.24,506.987,229.293,493.082,230.917" style="stroke:#A80036;stroke-width:1.0;"/><!--MD5=[98da8675b79f89855d08334b084c4b0d]
reverse link Regressor to SVR--><path codeLine="29" d="M612.935,230.368 C610.216,253.647 606.973,281.422 604.727,300.646 " fill="none" id="Regressor-backto-SVR" style="stroke:#A80036;stroke-width:1.0;"/><polygon fill="none" points="606.013,229.293,615.286,210.24,619.918,230.917,606.013,229.293" style="stroke:#A80036;stroke-width:1.0;"/><!--MD5=[3fa9dc39cf1d276ea3a6fa169f54db08]
reverse link Classifier to DecisionTreeClassifier--><path codeLine="33" d="M533.62,222.653 C540.344,227.218 547.575,231.25 555,234 C592.131,247.752 696.492,226.671 733,242 C762.459,254.369 788.138,281.243 804.033,300.866 " fill="none" id="Classifier-backto-DecisionTreeClassifier" style="stroke:#A80036;stroke-width:1.0;"/><polygon fill="none" points="529.164,228.056,517.685,210.244,537.766,217.01,529.164,228.056" style="stroke:#A80036;stroke-width:1.0;"/><!--MD5=[99aeb4cdcee82f850ab8714503dcaf22]
reverse link Regressor to DecisionTreeRegressor--><path codeLine="35" d="M682.447,211.585 C707.805,220.201 737.409,228.974 765,234 C799.369,240.261 889.268,229.793 922,242 C955.157,254.366 986.186,281.24 1005.79,300.864 " fill="none" id="Regressor-backto-DecisionTreeRegressor" style="stroke:#A80036;stroke-width:1.0;"/><polygon fill="none" points="680.106,218.182,663.565,204.938,684.755,204.976,680.106,218.182" style="stroke:#A80036;stroke-width:1.0;"/><!--MD5=[c84e4fd2859e7ab52335c04749188ee6]
reverse link DataFrame to Series--><path codeLine="42" d="M108,539.418 C108,561.469 108,588.923 108,607.9926 " fill="none" id="DataFrame-backto-Series" style="stroke:#A80036;stroke-width:1.0;"/><polygon fill="#FFFFFF" points="108,526.18,104,532.18,108,538.18,112,532.18,108,526.18" style="stroke:#A80036;stroke-width:1.0;"/><text fill="#000000" font-family="sans-serif" font-size="13" lengthAdjust="spacing" textLength="8" x="99.025" y="545.9851">1</text><text fill="#000000" font-family="sans-serif" font-size="13" lengthAdjust="spacing" textLength="9" x="97.8469" y="597.0032">N</text><!--MD5=[c36da669e537cdedbcc91579df386eb8]
link pandas to sklearn.linear_model--><!--MD5=[6a10418a8a140f151e82d88f0f7996c7]
link sklearn.linear_model to pandas--><!--MD5=[8c8ab47250bcd4dcaf7cf8f3d4530adb]
link sklearn.tree to numpy--><!--MD5=[c17ba65a80aa793341540b9c4b6b445e]
link sklearn.svm to sklearn--><!--MD5=[f784f281b180a9d3a21ded4784adcea4]
link SequentialFeatureSelector to SelectFpr--><!--MD5=[516bb18672f467c5717d265eaed24e33]
link RFE to SelectFdr--><!--MD5=[620d239bf748b4b3b11fff2608bc9364]
link GroupKFold to KFold--><!--MD5=[fe4ed01c74ffb1547905a1c05fc63f74]
link GroupKFold to LeaveOneGroupOut--><!--MD5=[a5cba8809dd513a34b7568afb078e4a4]
link LeaveOneGroupOut to LeaveOneOut--><!--MD5=[702634c03f6b4e3a3f8dcf0aa5f801d4]
@startuml
skinparam stereotypeC<<functions>> {
  BackgroundColor #FFF
  'BorderColor #000000
}
skinparam spotChar<<functions>> f

interface Predictor {
  + fit(X, y)
  + predict(X)
}

interface Classifier

interface Regressor

Predictor <|- - Classifier

Predictor <|- - Regressor

package sklearn.linear_model {
  Classifier <|- - LogisticRegression

  Regressor <|- -  LinearRegression
}

package sklearn.svm {
  Classifier <|- - SVC

  Regressor <|- -  SVR
}

package sklearn.tree {
  Classifier <|- - DecisionTreeClassifier

  Regressor <|- -  DecisionTreeRegressor
}

package pandas {
  class DataFrame
  class Series

  DataFrame "1" o- - "N" Series
}

pandas -[hidden]down- sklearn.linear_model

package numpy {
  class ndarray
}

sklearn.linear_model -[hidden]up- pandas
sklearn.tree -[hidden]up- numpy

class "sklearn.metrics" <<functions>> {
   + accuracy_score(y_true, y_pred, *[, …])
   + f1_score(y_true, y_pred, *[, …])
   + recall_score(y_true, y_pred, *[, …])
}

sklearn.svm -[hidden]up- sklearn

package sklearn.feature_selection {
   class SelectFpr
   class SelectFdr
   class SequentialFeatureSelector
   class RFE
   
   SelectFpr -[hidden]up- SequentialFeatureSelector
   SelectFdr -[hidden]up- RFE
}

package sklearn.model_selection {
   class GroupKFold
   class KFold
   class LeaveOneGroupOut
   class LeaveOneOut
}
@enduml

@startuml
skinparam stereotypeC<<functions>> {
  BackgroundColor #FFF
}
skinparam spotChar<<functions>> f

interface Predictor {
  + fit(X, y)
  + predict(X)
}

interface Classifier

interface Regressor

Predictor <|- - Classifier

Predictor <|- - Regressor

package sklearn.linear_model {
  Classifier <|- - LogisticRegression

  Regressor <|- -  LinearRegression
}

package sklearn.svm {
  Classifier <|- - SVC

  Regressor <|- -  SVR
}

package sklearn.tree {
  Classifier <|- - DecisionTreeClassifier

  Regressor <|- -  DecisionTreeRegressor
}

package pandas {
  class DataFrame
  class Series

  DataFrame "1" o- - "N" Series
}

pandas -[hidden]down- sklearn.linear_model

package numpy {
  class ndarray
}

sklearn.linear_model -[hidden]up- pandas
sklearn.tree -[hidden]up- numpy

class "sklearn.metrics" <<functions>> {
   + accuracy_score(y_true, y_pred, *[, …])
   + f1_score(y_true, y_pred, *[, …])
   + recall_score(y_true, y_pred, *[, …])
}

sklearn.svm -[hidden]up- sklearn

package sklearn.feature_selection {
   class SelectFpr
   class SelectFdr
   class SequentialFeatureSelector
   class RFE
   
   SelectFpr -[hidden]up- SequentialFeatureSelector
   SelectFdr -[hidden]up- RFE
}

package sklearn.model_selection {
   class GroupKFold
   class KFold
   class LeaveOneGroupOut
   class LeaveOneOut
}
@enduml

PlantUML version 1.2021.13beta3(Unknown compile time)
(GPL source distribution)
Java Runtime: Java(TM) SE Runtime Environment
JVM: Java HotSpot(TM) 64-Bit Server VM
Default Encoding: UTF-8
Language: en
Country: US
--></g></svg>