<?xml version="1.0" encoding="UTF-8" standalone="no"?>
<svg xmlns="http://www.w3.org/2000/svg" xmlns:xlink="http://www.w3.org/1999/xlink" contentScriptType="application/ecmascript" contentStyleType="text/css" height="685px" preserveAspectRatio="none" style="width:1019px;height:685px;background:#FFFFFF;" version="1.1" viewBox="0 0 1019 685" width="1019px" zoomAndPan="magnify"><defs><filter height="300%" id="f112xzw139bem" width="300%" x="-1" y="-1"><feGaussianBlur result="blurOut" stdDeviation="2.0"/><feColorMatrix in="blurOut" result="blurOut2" type="matrix" values="0 0 0 0 0 0 0 0 0 0 0 0 0 0 0 0 0 0 .4 0"/><feOffset dx="4.0" dy="4.0" in="blurOut2" result="blurOut3"/><feBlend in="SourceGraphic" in2="blurOut3" mode="normal"/></filter></defs><g><!--MD5=[fa0375e3666de1c481f0b3b2039d0db3]
cluster smile.classification--><polygon fill="#FFFFFF" filter="url(#f112xzw139bem)" points="16,6,181,6,188,28.2969,354,28.2969,354,321,16,321,16,6" style="stroke:#000000;stroke-width:1.5;"/><line style="stroke:#000000;stroke-width:1.5;" x1="16" x2="188" y1="28.2969" y2="28.2969"/><text fill="#000000" font-family="sans-serif" font-size="14" font-weight="bold" lengthAdjust="spacing" textLength="159" x="20" y="20.9951">smile.classification</text><!--MD5=[0c311de4a592f3c5f2bed0984ce064df]
cluster java.util.function--><polygon fill="#FFFFFF" filter="url(#f112xzw139bem)" points="378,222,525,222,532,244.2969,562,244.2969,562,321,378,321,378,222" style="stroke:#000000;stroke-width:1.5;"/><line style="stroke:#000000;stroke-width:1.5;" x1="378" x2="532" y1="244.2969" y2="244.2969"/><text fill="#000000" font-family="sans-serif" font-size="14" font-weight="bold" lengthAdjust="spacing" textLength="141" x="382" y="236.9951">java.util.function</text><!--MD5=[81c5f3c22c2d985c8d4984f9563cac54]
cluster smile.regression--><polygon fill="#FFFFFF" filter="url(#f112xzw139bem)" points="586,114,725,114,732,136.2969,1002,136.2969,1002,321,586,321,586,114" style="stroke:#000000;stroke-width:1.5;"/><line style="stroke:#000000;stroke-width:1.5;" x1="586" x2="732" y1="136.2969" y2="136.2969"/><text fill="#000000" font-family="sans-serif" font-size="14" font-weight="bold" lengthAdjust="spacing" textLength="133" x="590" y="128.9951">smile.regression</text><!--MD5=[06fbd82797b0a5b3db63b7bac7772fcc]
cluster smile.base--><polygon fill="#FFFFFF" filter="url(#f112xzw139bem)" points="376,345,468,345,475,367.2969,564,367.2969,564,678,376,678,376,345" style="stroke:#000000;stroke-width:1.5;"/><line style="stroke:#000000;stroke-width:1.5;" x1="376" x2="475" y1="367.2969" y2="367.2969"/><text fill="#000000" font-family="sans-serif" font-size="14" font-weight="bold" lengthAdjust="spacing" textLength="86" x="380" y="359.9951">smile.base</text><!--MD5=[e5192d39c070dac6a79b288c93719d10]
class Classifier--><rect codeLine="2" fill="#FEFECE" filter="url(#f112xzw139bem)" height="48" id="Classifier" style="stroke:#A80036;stroke-width:1.5;" width="95" x="171.5" y="149"/><ellipse cx="186.5" cy="165" fill="#B4A7E5" rx="11" ry="11" style="stroke:#A80036;stroke-width:1.0;"/><path d="M187.4531,161.7813 L189.1719,161.7813 C189.5625,161.7813 189.75,161.75 189.875,161.6719 C190.1406,161.5156 190.2813,161.2344 190.2813,160.9375 C190.2813,160.6719 190.1719,160.4063 189.9375,160.2344 C189.7656,160.125 189.625,160.0938 189.1719,160.0938 L184.0313,160.0938 C183.5938,160.0938 183.4688,160.1094 183.3125,160.2031 C183.0625,160.3594 182.9063,160.6563 182.9063,160.9375 C182.9063,161.2188 183.0469,161.4688 183.2656,161.6406 C183.4219,161.75 183.6094,161.7813 184.0313,161.7813 L185.75,161.7813 L185.75,168.2969 L184.0313,168.2969 C183.5938,168.2969 183.4688,168.3125 183.3125,168.4219 C183.0625,168.5781 182.9063,168.8594 182.9063,169.1563 C182.9063,169.4063 183.0469,169.6719 183.2656,169.8281 C183.4219,169.9531 183.625,170 184.0313,170 L189.1719,170 C189.9219,170 190.2813,169.7188 190.2813,169.1563 C190.2813,168.875 190.1719,168.625 189.9375,168.4531 C189.7656,168.3281 189.625,168.2969 189.1719,168.2969 L187.4531,168.2969 L187.4531,161.7813 Z " fill="#000000"/><text fill="#000000" font-family="sans-serif" font-size="12" font-style="italic" lengthAdjust="spacing" textLength="52" x="200.5" y="169.1543">Classifier</text><rect fill="#FFFFFF" height="15.9688" style="stroke:#000000;stroke-width:1.0;stroke-dasharray:2.0,2.0;" width="9" x="260.5" y="146"/><text fill="#000000" font-family="sans-serif" font-size="12" font-style="italic" lengthAdjust="spacing" textLength="7" x="261.5" y="158.1387">T</text><line style="stroke:#A80036;stroke-width:1.5;" x1="172.5" x2="265.5" y1="181" y2="181"/><line style="stroke:#A80036;stroke-width:1.5;" x1="172.5" x2="265.5" y1="189" y2="189"/><!--MD5=[a3d64c8542d94ecfd2dda2128b7114bd]
class DecisionTree--><rect codeLine="4" fill="#FEFECE" filter="url(#f112xzw139bem)" height="48" id="DecisionTree" style="stroke:#A80036;stroke-width:1.5;" width="112" x="226" y="257"/><ellipse cx="241" cy="273" fill="#ADD1B2" rx="11" ry="11" style="stroke:#A80036;stroke-width:1.0;"/><path d="M243.3438,268.6719 C242.4063,268.2344 241.8125,268.0938 240.9375,268.0938 C238.3125,268.0938 236.3125,270.1719 236.3125,272.8906 L236.3125,274.0156 C236.3125,276.5938 238.4219,278.4844 241.3125,278.4844 C242.5313,278.4844 243.6875,278.1875 244.4375,277.6406 C245.0156,277.2344 245.3438,276.7813 245.3438,276.3906 C245.3438,275.9375 244.9531,275.5469 244.4844,275.5469 C244.2656,275.5469 244.0625,275.625 243.875,275.8125 C243.4219,276.2969 243.4219,276.2969 243.2344,276.3906 C242.8125,276.6563 242.125,276.7813 241.3594,276.7813 C239.3125,276.7813 238.0156,275.6875 238.0156,273.9844 L238.0156,272.8906 C238.0156,271.1094 239.2656,269.7969 241,269.7969 C241.5781,269.7969 242.1875,269.9531 242.6563,270.2031 C243.1406,270.4844 243.3125,270.7031 243.4063,271.1094 C243.4688,271.5156 243.5,271.6406 243.6406,271.7656 C243.7813,271.9063 244.0156,272.0156 244.2344,272.0156 C244.5,272.0156 244.7656,271.875 244.9375,271.6563 C245.0469,271.5 245.0781,271.3125 245.0781,270.8906 L245.0781,269.4688 C245.0781,269.0313 245.0625,268.9063 244.9688,268.75 C244.8125,268.4844 244.5313,268.3438 244.2344,268.3438 C243.9375,268.3438 243.7344,268.4375 243.5156,268.75 L243.3438,268.6719 Z " fill="#000000"/><text fill="#000000" font-family="sans-serif" font-size="12" lengthAdjust="spacing" textLength="80" x="255" y="277.1543">DecisionTree</text><line style="stroke:#A80036;stroke-width:1.5;" x1="227" x2="337" y1="289" y2="289"/><line style="stroke:#A80036;stroke-width:1.5;" x1="227" x2="337" y1="297" y2="297"/><!--MD5=[ee004750a09daee7b8886fa6abb8ade9]
class SVM--><rect codeLine="5" fill="#FEFECE" filter="url(#f112xzw139bem)" height="48" id="SVM" style="stroke:#A80036;stroke-width:1.5;" width="69" x="121.5" y="257"/><ellipse cx="136.5" cy="273" fill="#ADD1B2" rx="11" ry="11" style="stroke:#A80036;stroke-width:1.0;"/><path d="M138.8438,268.6719 C137.9063,268.2344 137.3125,268.0938 136.4375,268.0938 C133.8125,268.0938 131.8125,270.1719 131.8125,272.8906 L131.8125,274.0156 C131.8125,276.5938 133.9219,278.4844 136.8125,278.4844 C138.0313,278.4844 139.1875,278.1875 139.9375,277.6406 C140.5156,277.2344 140.8438,276.7813 140.8438,276.3906 C140.8438,275.9375 140.4531,275.5469 139.9844,275.5469 C139.7656,275.5469 139.5625,275.625 139.375,275.8125 C138.9219,276.2969 138.9219,276.2969 138.7344,276.3906 C138.3125,276.6563 137.625,276.7813 136.8594,276.7813 C134.8125,276.7813 133.5156,275.6875 133.5156,273.9844 L133.5156,272.8906 C133.5156,271.1094 134.7656,269.7969 136.5,269.7969 C137.0781,269.7969 137.6875,269.9531 138.1563,270.2031 C138.6406,270.4844 138.8125,270.7031 138.9063,271.1094 C138.9688,271.5156 139,271.6406 139.1406,271.7656 C139.2813,271.9063 139.5156,272.0156 139.7344,272.0156 C140,272.0156 140.2656,271.875 140.4375,271.6563 C140.5469,271.5 140.5781,271.3125 140.5781,270.8906 L140.5781,269.4688 C140.5781,269.0313 140.5625,268.9063 140.4688,268.75 C140.3125,268.4844 140.0313,268.3438 139.7344,268.3438 C139.4375,268.3438 139.2344,268.4375 139.0156,268.75 L138.8438,268.6719 Z " fill="#000000"/><text fill="#000000" font-family="sans-serif" font-size="12" lengthAdjust="spacing" textLength="26" x="150.5" y="277.1543">SVM</text><rect fill="#FFFFFF" height="15.9688" style="stroke:#000000;stroke-width:1.0;stroke-dasharray:2.0,2.0;" width="9" x="184.5" y="254"/><text fill="#000000" font-family="sans-serif" font-size="12" font-style="italic" lengthAdjust="spacing" textLength="7" x="185.5" y="266.1387">T</text><line style="stroke:#A80036;stroke-width:1.5;" x1="122.5" x2="189.5" y1="289" y2="289"/><line style="stroke:#A80036;stroke-width:1.5;" x1="122.5" x2="189.5" y1="297" y2="297"/><!--MD5=[0d5888d78ccb8d64844c5353a1a7d180]
class MLPc--><rect codeLine="6" fill="#FEFECE" filter="url(#f112xzw139bem)" height="48" id="MLPc" style="stroke:#A80036;stroke-width:1.5;" width="54" x="32" y="257"/><ellipse cx="47" cy="273" fill="#ADD1B2" rx="11" ry="11" style="stroke:#A80036;stroke-width:1.0;"/><path d="M49.3438,268.6719 C48.4063,268.2344 47.8125,268.0938 46.9375,268.0938 C44.3125,268.0938 42.3125,270.1719 42.3125,272.8906 L42.3125,274.0156 C42.3125,276.5938 44.4219,278.4844 47.3125,278.4844 C48.5313,278.4844 49.6875,278.1875 50.4375,277.6406 C51.0156,277.2344 51.3438,276.7813 51.3438,276.3906 C51.3438,275.9375 50.9531,275.5469 50.4844,275.5469 C50.2656,275.5469 50.0625,275.625 49.875,275.8125 C49.4219,276.2969 49.4219,276.2969 49.2344,276.3906 C48.8125,276.6563 48.125,276.7813 47.3594,276.7813 C45.3125,276.7813 44.0156,275.6875 44.0156,273.9844 L44.0156,272.8906 C44.0156,271.1094 45.2656,269.7969 47,269.7969 C47.5781,269.7969 48.1875,269.9531 48.6563,270.2031 C49.1406,270.4844 49.3125,270.7031 49.4063,271.1094 C49.4688,271.5156 49.5,271.6406 49.6406,271.7656 C49.7813,271.9063 50.0156,272.0156 50.2344,272.0156 C50.5,272.0156 50.7656,271.875 50.9375,271.6563 C51.0469,271.5 51.0781,271.3125 51.0781,270.8906 L51.0781,269.4688 C51.0781,269.0313 51.0625,268.9063 50.9688,268.75 C50.8125,268.4844 50.5313,268.3438 50.2344,268.3438 C49.9375,268.3438 49.7344,268.4375 49.5156,268.75 L49.3438,268.6719 Z " fill="#000000"/><text fill="#000000" font-family="sans-serif" font-size="12" lengthAdjust="spacing" textLength="22" x="61" y="277.1543">MLP</text><line style="stroke:#A80036;stroke-width:1.5;" x1="33" x2="85" y1="289" y2="289"/><line style="stroke:#A80036;stroke-width:1.5;" x1="33" x2="85" y1="297" y2="297"/><!--MD5=[5ae717870eb28aeb9e926e7c45b9fd05]
class KNN--><rect codeLine="7" fill="#FEFECE" filter="url(#f112xzw139bem)" height="48" id="KNN" style="stroke:#A80036;stroke-width:1.5;" width="67" x="185.5" y="41"/><ellipse cx="200.5" cy="57" fill="#ADD1B2" rx="11" ry="11" style="stroke:#A80036;stroke-width:1.0;"/><path d="M202.8438,52.6719 C201.9063,52.2344 201.3125,52.0938 200.4375,52.0938 C197.8125,52.0938 195.8125,54.1719 195.8125,56.8906 L195.8125,58.0156 C195.8125,60.5938 197.9219,62.4844 200.8125,62.4844 C202.0313,62.4844 203.1875,62.1875 203.9375,61.6406 C204.5156,61.2344 204.8438,60.7813 204.8438,60.3906 C204.8438,59.9375 204.4531,59.5469 203.9844,59.5469 C203.7656,59.5469 203.5625,59.625 203.375,59.8125 C202.9219,60.2969 202.9219,60.2969 202.7344,60.3906 C202.3125,60.6563 201.625,60.7813 200.8594,60.7813 C198.8125,60.7813 197.5156,59.6875 197.5156,57.9844 L197.5156,56.8906 C197.5156,55.1094 198.7656,53.7969 200.5,53.7969 C201.0781,53.7969 201.6875,53.9531 202.1563,54.2031 C202.6406,54.4844 202.8125,54.7031 202.9063,55.1094 C202.9688,55.5156 203,55.6406 203.1406,55.7656 C203.2813,55.9063 203.5156,56.0156 203.7344,56.0156 C204,56.0156 204.2656,55.875 204.4375,55.6563 C204.5469,55.5 204.5781,55.3125 204.5781,54.8906 L204.5781,53.4688 C204.5781,53.0313 204.5625,52.9063 204.4688,52.75 C204.3125,52.4844 204.0313,52.3438 203.7344,52.3438 C203.4375,52.3438 203.2344,52.4375 203.0156,52.75 L202.8438,52.6719 Z " fill="#000000"/><text fill="#000000" font-family="sans-serif" font-size="12" lengthAdjust="spacing" textLength="24" x="214.5" y="61.1543">KNN</text><rect fill="#FFFFFF" height="15.9688" style="stroke:#000000;stroke-width:1.0;stroke-dasharray:2.0,2.0;" width="9" x="246.5" y="38"/><text fill="#000000" font-family="sans-serif" font-size="12" font-style="italic" lengthAdjust="spacing" textLength="7" x="247.5" y="50.1387">T</text><line style="stroke:#A80036;stroke-width:1.5;" x1="186.5" x2="251.5" y1="73" y2="73"/><line style="stroke:#A80036;stroke-width:1.5;" x1="186.5" x2="251.5" y1="81" y2="81"/><!--MD5=[d5395934ef640565fe748bfaeddfab76]
class ToDoubleFunction--><rect codeLine="16" fill="#FEFECE" filter="url(#f112xzw139bem)" height="48" id="ToDoubleFunction" style="stroke:#A80036;stroke-width:1.5;" width="152" x="394" y="257"/><ellipse cx="409" cy="273" fill="#B4A7E5" rx="11" ry="11" style="stroke:#A80036;stroke-width:1.0;"/><path d="M409.9531,269.7813 L411.6719,269.7813 C412.0625,269.7813 412.25,269.75 412.375,269.6719 C412.6406,269.5156 412.7813,269.2344 412.7813,268.9375 C412.7813,268.6719 412.6719,268.4063 412.4375,268.2344 C412.2656,268.125 412.125,268.0938 411.6719,268.0938 L406.5313,268.0938 C406.0938,268.0938 405.9688,268.1094 405.8125,268.2031 C405.5625,268.3594 405.4063,268.6563 405.4063,268.9375 C405.4063,269.2188 405.5469,269.4688 405.7656,269.6406 C405.9219,269.75 406.1094,269.7813 406.5313,269.7813 L408.25,269.7813 L408.25,276.2969 L406.5313,276.2969 C406.0938,276.2969 405.9688,276.3125 405.8125,276.4219 C405.5625,276.5781 405.4063,276.8594 405.4063,277.1563 C405.4063,277.4063 405.5469,277.6719 405.7656,277.8281 C405.9219,277.9531 406.125,278 406.5313,278 L411.6719,278 C412.4219,278 412.7813,277.7188 412.7813,277.1563 C412.7813,276.875 412.6719,276.625 412.4375,276.4531 C412.2656,276.3281 412.125,276.2969 411.6719,276.2969 L409.9531,276.2969 L409.9531,269.7813 Z " fill="#000000"/><text fill="#000000" font-family="sans-serif" font-size="12" font-style="italic" lengthAdjust="spacing" textLength="109" x="423" y="277.1543">ToDoubleFunction</text><rect fill="#FFFFFF" height="15.9688" style="stroke:#000000;stroke-width:1.0;stroke-dasharray:2.0,2.0;" width="9" x="540" y="254"/><text fill="#000000" font-family="sans-serif" font-size="12" font-style="italic" lengthAdjust="spacing" textLength="7" x="541" y="266.1387">T</text><line style="stroke:#A80036;stroke-width:1.5;" x1="395" x2="545" y1="289" y2="289"/><line style="stroke:#A80036;stroke-width:1.5;" x1="395" x2="545" y1="297" y2="297"/><!--MD5=[d6d03a24ddaddfc757d057c10e8a8b53]
class Regression--><rect codeLine="20" fill="#FEFECE" filter="url(#f112xzw139bem)" height="48" id="Regression" style="stroke:#A80036;stroke-width:1.5;" width="108" x="694" y="149"/><ellipse cx="709" cy="165" fill="#B4A7E5" rx="11" ry="11" style="stroke:#A80036;stroke-width:1.0;"/><path d="M709.9531,161.7813 L711.6719,161.7813 C712.0625,161.7813 712.25,161.75 712.375,161.6719 C712.6406,161.5156 712.7813,161.2344 712.7813,160.9375 C712.7813,160.6719 712.6719,160.4063 712.4375,160.2344 C712.2656,160.125 712.125,160.0938 711.6719,160.0938 L706.5313,160.0938 C706.0938,160.0938 705.9688,160.1094 705.8125,160.2031 C705.5625,160.3594 705.4063,160.6563 705.4063,160.9375 C705.4063,161.2188 705.5469,161.4688 705.7656,161.6406 C705.9219,161.75 706.1094,161.7813 706.5313,161.7813 L708.25,161.7813 L708.25,168.2969 L706.5313,168.2969 C706.0938,168.2969 705.9688,168.3125 705.8125,168.4219 C705.5625,168.5781 705.4063,168.8594 705.4063,169.1563 C705.4063,169.4063 705.5469,169.6719 705.7656,169.8281 C705.9219,169.9531 706.125,170 706.5313,170 L711.6719,170 C712.4219,170 712.7813,169.7188 712.7813,169.1563 C712.7813,168.875 712.6719,168.625 712.4375,168.4531 C712.2656,168.3281 712.125,168.2969 711.6719,168.2969 L709.9531,168.2969 L709.9531,161.7813 Z " fill="#000000"/><text fill="#000000" font-family="sans-serif" font-size="12" font-style="italic" lengthAdjust="spacing" textLength="65" x="723" y="169.1543">Regression</text><rect fill="#FFFFFF" height="15.9688" style="stroke:#000000;stroke-width:1.0;stroke-dasharray:2.0,2.0;" width="9" x="796" y="146"/><text fill="#000000" font-family="sans-serif" font-size="12" font-style="italic" lengthAdjust="spacing" textLength="7" x="797" y="158.1387">T</text><line style="stroke:#A80036;stroke-width:1.5;" x1="695" x2="801" y1="181" y2="181"/><line style="stroke:#A80036;stroke-width:1.5;" x1="695" x2="801" y1="189" y2="189"/><!--MD5=[6c3d7f491c22b9701940828d7c4ed72c]
class RegressionTree--><rect codeLine="22" fill="#FEFECE" filter="url(#f112xzw139bem)" height="48" id="RegressionTree" style="stroke:#A80036;stroke-width:1.5;" width="128" x="602" y="257"/><ellipse cx="617" cy="273" fill="#ADD1B2" rx="11" ry="11" style="stroke:#A80036;stroke-width:1.0;"/><path d="M619.3438,268.6719 C618.4063,268.2344 617.8125,268.0938 616.9375,268.0938 C614.3125,268.0938 612.3125,270.1719 612.3125,272.8906 L612.3125,274.0156 C612.3125,276.5938 614.4219,278.4844 617.3125,278.4844 C618.5313,278.4844 619.6875,278.1875 620.4375,277.6406 C621.0156,277.2344 621.3438,276.7813 621.3438,276.3906 C621.3438,275.9375 620.9531,275.5469 620.4844,275.5469 C620.2656,275.5469 620.0625,275.625 619.875,275.8125 C619.4219,276.2969 619.4219,276.2969 619.2344,276.3906 C618.8125,276.6563 618.125,276.7813 617.3594,276.7813 C615.3125,276.7813 614.0156,275.6875 614.0156,273.9844 L614.0156,272.8906 C614.0156,271.1094 615.2656,269.7969 617,269.7969 C617.5781,269.7969 618.1875,269.9531 618.6563,270.2031 C619.1406,270.4844 619.3125,270.7031 619.4063,271.1094 C619.4688,271.5156 619.5,271.6406 619.6406,271.7656 C619.7813,271.9063 620.0156,272.0156 620.2344,272.0156 C620.5,272.0156 620.7656,271.875 620.9375,271.6563 C621.0469,271.5 621.0781,271.3125 621.0781,270.8906 L621.0781,269.4688 C621.0781,269.0313 621.0625,268.9063 620.9688,268.75 C620.8125,268.4844 620.5313,268.3438 620.2344,268.3438 C619.9375,268.3438 619.7344,268.4375 619.5156,268.75 L619.3438,268.6719 Z " fill="#000000"/><text fill="#000000" font-family="sans-serif" font-size="12" lengthAdjust="spacing" textLength="96" x="631" y="277.1543">RegressionTree</text><line style="stroke:#A80036;stroke-width:1.5;" x1="603" x2="729" y1="289" y2="289"/><line style="stroke:#A80036;stroke-width:1.5;" x1="603" x2="729" y1="297" y2="297"/><!--MD5=[557bf2ec4b9018b5a28f802f13d4ad85]
class MLPr--><rect codeLine="23" fill="#FEFECE" filter="url(#f112xzw139bem)" height="48" id="MLPr" style="stroke:#A80036;stroke-width:1.5;" width="54" x="932" y="257"/><ellipse cx="947" cy="273" fill="#ADD1B2" rx="11" ry="11" style="stroke:#A80036;stroke-width:1.0;"/><path d="M949.3438,268.6719 C948.4063,268.2344 947.8125,268.0938 946.9375,268.0938 C944.3125,268.0938 942.3125,270.1719 942.3125,272.8906 L942.3125,274.0156 C942.3125,276.5938 944.4219,278.4844 947.3125,278.4844 C948.5313,278.4844 949.6875,278.1875 950.4375,277.6406 C951.0156,277.2344 951.3438,276.7813 951.3438,276.3906 C951.3438,275.9375 950.9531,275.5469 950.4844,275.5469 C950.2656,275.5469 950.0625,275.625 949.875,275.8125 C949.4219,276.2969 949.4219,276.2969 949.2344,276.3906 C948.8125,276.6563 948.125,276.7813 947.3594,276.7813 C945.3125,276.7813 944.0156,275.6875 944.0156,273.9844 L944.0156,272.8906 C944.0156,271.1094 945.2656,269.7969 947,269.7969 C947.5781,269.7969 948.1875,269.9531 948.6563,270.2031 C949.1406,270.4844 949.3125,270.7031 949.4063,271.1094 C949.4688,271.5156 949.5,271.6406 949.6406,271.7656 C949.7813,271.9063 950.0156,272.0156 950.2344,272.0156 C950.5,272.0156 950.7656,271.875 950.9375,271.6563 C951.0469,271.5 951.0781,271.3125 951.0781,270.8906 L951.0781,269.4688 C951.0781,269.0313 951.0625,268.9063 950.9688,268.75 C950.8125,268.4844 950.5313,268.3438 950.2344,268.3438 C949.9375,268.3438 949.7344,268.4375 949.5156,268.75 L949.3438,268.6719 Z " fill="#000000"/><text fill="#000000" font-family="sans-serif" font-size="12" lengthAdjust="spacing" textLength="22" x="961" y="277.1543">MLP</text><line style="stroke:#A80036;stroke-width:1.5;" x1="933" x2="985" y1="289" y2="289"/><line style="stroke:#A80036;stroke-width:1.5;" x1="933" x2="985" y1="297" y2="297"/><!--MD5=[acf9e44feeaf0483988ebf80511da332]
class KMr--><rect codeLine="24" fill="#FEFECE" filter="url(#f112xzw139bem)" height="48" id="KMr" style="stroke:#A80036;stroke-width:1.5;" width="131" x="765.5" y="257"/><ellipse cx="780.5" cy="273" fill="#ADD1B2" rx="11" ry="11" style="stroke:#A80036;stroke-width:1.0;"/><path d="M782.8438,268.6719 C781.9063,268.2344 781.3125,268.0938 780.4375,268.0938 C777.8125,268.0938 775.8125,270.1719 775.8125,272.8906 L775.8125,274.0156 C775.8125,276.5938 777.9219,278.4844 780.8125,278.4844 C782.0313,278.4844 783.1875,278.1875 783.9375,277.6406 C784.5156,277.2344 784.8438,276.7813 784.8438,276.3906 C784.8438,275.9375 784.4531,275.5469 783.9844,275.5469 C783.7656,275.5469 783.5625,275.625 783.375,275.8125 C782.9219,276.2969 782.9219,276.2969 782.7344,276.3906 C782.3125,276.6563 781.625,276.7813 780.8594,276.7813 C778.8125,276.7813 777.5156,275.6875 777.5156,273.9844 L777.5156,272.8906 C777.5156,271.1094 778.7656,269.7969 780.5,269.7969 C781.0781,269.7969 781.6875,269.9531 782.1563,270.2031 C782.6406,270.4844 782.8125,270.7031 782.9063,271.1094 C782.9688,271.5156 783,271.6406 783.1406,271.7656 C783.2813,271.9063 783.5156,272.0156 783.7344,272.0156 C784,272.0156 784.2656,271.875 784.4375,271.6563 C784.5469,271.5 784.5781,271.3125 784.5781,270.8906 L784.5781,269.4688 C784.5781,269.0313 784.5625,268.9063 784.4688,268.75 C784.3125,268.4844 784.0313,268.3438 783.7344,268.3438 C783.4375,268.3438 783.2344,268.4375 783.0156,268.75 L782.8438,268.6719 Z " fill="#000000"/><text fill="#000000" font-family="sans-serif" font-size="12" lengthAdjust="spacing" textLength="88" x="794.5" y="277.1543">KernelMachine</text><rect fill="#FFFFFF" height="15.9688" style="stroke:#000000;stroke-width:1.0;stroke-dasharray:2.0,2.0;" width="9" x="890.5" y="254"/><text fill="#000000" font-family="sans-serif" font-size="12" font-style="italic" lengthAdjust="spacing" textLength="7" x="891.5" y="266.1387">T</text><line style="stroke:#A80036;stroke-width:1.5;" x1="766.5" x2="895.5" y1="289" y2="289"/><line style="stroke:#A80036;stroke-width:1.5;" x1="766.5" x2="895.5" y1="297" y2="297"/><!--MD5=[9cc9120fa41b8f8a00f2fc234099541b]
class CART--><rect codeLine="35" fill="#FEFECE" filter="url(#f112xzw139bem)" height="53.9375" id="CART" style="stroke:#A80036;stroke-width:1.5;" width="92" x="424" y="380"/><ellipse cx="439" cy="398.9688" fill="#ADD1B2" rx="11" ry="11" style="stroke:#A80036;stroke-width:1.0;"/><path d="M441.3438,394.6406 C440.4063,394.2031 439.8125,394.0625 438.9375,394.0625 C436.3125,394.0625 434.3125,396.1406 434.3125,398.8594 L434.3125,399.9844 C434.3125,402.5625 436.4219,404.4531 439.3125,404.4531 C440.5313,404.4531 441.6875,404.1563 442.4375,403.6094 C443.0156,403.2031 443.3438,402.75 443.3438,402.3594 C443.3438,401.9063 442.9531,401.5156 442.4844,401.5156 C442.2656,401.5156 442.0625,401.5938 441.875,401.7813 C441.4219,402.2656 441.4219,402.2656 441.2344,402.3594 C440.8125,402.625 440.125,402.75 439.3594,402.75 C437.3125,402.75 436.0156,401.6563 436.0156,399.9531 L436.0156,398.8594 C436.0156,397.0781 437.2656,395.7656 439,395.7656 C439.5781,395.7656 440.1875,395.9219 440.6563,396.1719 C441.1406,396.4531 441.3125,396.6719 441.4063,397.0781 C441.4688,397.4844 441.5,397.6094 441.6406,397.7344 C441.7813,397.875 442.0156,397.9844 442.2344,397.9844 C442.5,397.9844 442.7656,397.8438 442.9375,397.625 C443.0469,397.4688 443.0781,397.2813 443.0781,396.8594 L443.0781,395.4375 C443.0781,395 443.0625,394.875 442.9688,394.7188 C442.8125,394.4531 442.5313,394.3125 442.2344,394.3125 C441.9375,394.3125 441.7344,394.4063 441.5156,394.7188 L441.3438,394.6406 Z " fill="#000000"/><text fill="#000000" font-family="sans-serif" font-size="12" font-style="italic" lengthAdjust="spacing" textLength="64" x="451" y="396.1387">«abstract»</text><text fill="#000000" font-family="sans-serif" font-size="12" lengthAdjust="spacing" textLength="30" x="468" y="410.1074">CART</text><line style="stroke:#A80036;stroke-width:1.5;" x1="425" x2="515" y1="417.9375" y2="417.9375"/><line style="stroke:#A80036;stroke-width:1.5;" x1="425" x2="515" y1="425.9375" y2="425.9375"/><!--MD5=[e600ac8a643247923bc59463103fbdd1]
class KernelMachine--><rect codeLine="36" fill="#FEFECE" filter="url(#f112xzw139bem)" height="53.9375" id="KernelMachine" style="stroke:#A80036;stroke-width:1.5;" width="131" x="404.5" y="494"/><ellipse cx="419.5" cy="512.9688" fill="#ADD1B2" rx="11" ry="11" style="stroke:#A80036;stroke-width:1.0;"/><path d="M421.8438,508.6406 C420.9063,508.2031 420.3125,508.0625 419.4375,508.0625 C416.8125,508.0625 414.8125,510.1406 414.8125,512.8594 L414.8125,513.9844 C414.8125,516.5625 416.9219,518.4531 419.8125,518.4531 C421.0313,518.4531 422.1875,518.1563 422.9375,517.6094 C423.5156,517.2031 423.8438,516.75 423.8438,516.3594 C423.8438,515.9063 423.4531,515.5156 422.9844,515.5156 C422.7656,515.5156 422.5625,515.5938 422.375,515.7813 C421.9219,516.2656 421.9219,516.2656 421.7344,516.3594 C421.3125,516.625 420.625,516.75 419.8594,516.75 C417.8125,516.75 416.5156,515.6563 416.5156,513.9531 L416.5156,512.8594 C416.5156,511.0781 417.7656,509.7656 419.5,509.7656 C420.0781,509.7656 420.6875,509.9219 421.1563,510.1719 C421.6406,510.4531 421.8125,510.6719 421.9063,511.0781 C421.9688,511.4844 422,511.6094 422.1406,511.7344 C422.2813,511.875 422.5156,511.9844 422.7344,511.9844 C423,511.9844 423.2656,511.8438 423.4375,511.625 C423.5469,511.4688 423.5781,511.2813 423.5781,510.8594 L423.5781,509.4375 C423.5781,509 423.5625,508.875 423.4688,508.7188 C423.3125,508.4531 423.0313,508.3125 422.7344,508.3125 C422.4375,508.3125 422.2344,508.4063 422.0156,508.7188 L421.8438,508.6406 Z " fill="#000000"/><text fill="#000000" font-family="sans-serif" font-size="12" font-style="italic" lengthAdjust="spacing" textLength="64" x="445.5" y="510.1387">«abstract»</text><text fill="#000000" font-family="sans-serif" font-size="12" lengthAdjust="spacing" textLength="88" x="433.5" y="524.1074">KernelMachine</text><rect fill="#FFFFFF" height="15.9688" style="stroke:#000000;stroke-width:1.0;stroke-dasharray:2.0,2.0;" width="9" x="529.5" y="491"/><text fill="#000000" font-family="sans-serif" font-size="12" font-style="italic" lengthAdjust="spacing" textLength="7" x="530.5" y="503.1387">T</text><line style="stroke:#A80036;stroke-width:1.5;" x1="405.5" x2="534.5" y1="531.9375" y2="531.9375"/><line style="stroke:#A80036;stroke-width:1.5;" x1="405.5" x2="534.5" y1="539.9375" y2="539.9375"/><!--MD5=[a56474c4afc0063f7b3a4ab296416972]
class MultilayerPerceptron--><rect codeLine="37" fill="#FEFECE" filter="url(#f112xzw139bem)" height="53.9375" id="MultilayerPerceptron" style="stroke:#A80036;stroke-width:1.5;" width="155" x="392.5" y="608"/><ellipse cx="407.5" cy="626.9688" fill="#ADD1B2" rx="11" ry="11" style="stroke:#A80036;stroke-width:1.0;"/><path d="M409.8438,622.6406 C408.9063,622.2031 408.3125,622.0625 407.4375,622.0625 C404.8125,622.0625 402.8125,624.1406 402.8125,626.8594 L402.8125,627.9844 C402.8125,630.5625 404.9219,632.4531 407.8125,632.4531 C409.0313,632.4531 410.1875,632.1563 410.9375,631.6094 C411.5156,631.2031 411.8438,630.75 411.8438,630.3594 C411.8438,629.9063 411.4531,629.5156 410.9844,629.5156 C410.7656,629.5156 410.5625,629.5938 410.375,629.7813 C409.9219,630.2656 409.9219,630.2656 409.7344,630.3594 C409.3125,630.625 408.625,630.75 407.8594,630.75 C405.8125,630.75 404.5156,629.6563 404.5156,627.9531 L404.5156,626.8594 C404.5156,625.0781 405.7656,623.7656 407.5,623.7656 C408.0781,623.7656 408.6875,623.9219 409.1563,624.1719 C409.6406,624.4531 409.8125,624.6719 409.9063,625.0781 C409.9688,625.4844 410,625.6094 410.1406,625.7344 C410.2813,625.875 410.5156,625.9844 410.7344,625.9844 C411,625.9844 411.2656,625.8438 411.4375,625.625 C411.5469,625.4688 411.5781,625.2813 411.5781,624.8594 L411.5781,623.4375 C411.5781,623 411.5625,622.875 411.4688,622.7188 C411.3125,622.4531 411.0313,622.3125 410.7344,622.3125 C410.4375,622.3125 410.2344,622.4063 410.0156,622.7188 L409.8438,622.6406 Z " fill="#000000"/><text fill="#000000" font-family="sans-serif" font-size="12" font-style="italic" lengthAdjust="spacing" textLength="64" x="451" y="624.1387">«abstract»</text><text fill="#000000" font-family="sans-serif" font-size="12" lengthAdjust="spacing" textLength="123" x="421.5" y="638.1074">MultilayerPerceptron</text><line style="stroke:#A80036;stroke-width:1.5;" x1="393.5" x2="546.5" y1="645.9375" y2="645.9375"/><line style="stroke:#A80036;stroke-width:1.5;" x1="393.5" x2="546.5" y1="653.9375" y2="653.9375"/><!--MD5=[45e0b55aa186d15d823b090445354940]
reverse link Classifier to SVM--><path codeLine="9" d="M194.862,214.613 C186.402,228.848 177.191,244.345 169.861,256.678 " fill="none" id="Classifier-backto-SVM" style="stroke:#A80036;stroke-width:1.0;"/><polygon fill="none" points="189.094,210.617,205.33,197,201.129,217.769,189.094,210.617" style="stroke:#A80036;stroke-width:1.0;"/><!--MD5=[ca7f29dc35abdd8d5f7345d28e67b6a7]
reverse link Classifier to MLPc--><path codeLine="10" d="M152.167,189.266 C135.363,195.168 118.113,203.192 104,214 C89.3562,225.215 77.7822,242.591 70.0407,256.699 " fill="none" id="Classifier-backto-MLPc" style="stroke:#A80036;stroke-width:1.0;"/><polygon fill="none" points="150.296,182.517,171.473,183.272,154.448,195.887,150.296,182.517" style="stroke:#A80036;stroke-width:1.0;"/><!--MD5=[e04eb9f2a18fbb7da6c655af30bef421]
link KNN to Classifier--><path codeLine="11" d="M219,89 C219,100.588 219,115.029 219,128.601 " fill="none" id="KNN-to-Classifier" style="stroke:#A80036;stroke-width:1.0;"/><polygon fill="none" points="226,128.678,219,148.678,212,128.678,226,128.678" style="stroke:#A80036;stroke-width:1.0;"/><!--MD5=[a11fa7cb384de1bc6eeb76aa7de61be1]
reverse link Classifier to DecisionTree--><path codeLine="12" d="M243.138,214.613 C251.598,228.848 260.809,244.345 268.139,256.678 " fill="none" id="Classifier-backto-DecisionTree" style="stroke:#A80036;stroke-width:1.0;"/><polygon fill="none" points="236.871,217.769,232.67,197,248.906,210.617,236.871,217.769" style="stroke:#A80036;stroke-width:1.0;"/><!--MD5=[c23aeb13af02833ae71195c3ee091dc8]
reverse link Regression to RegressionTree--><path codeLine="26" d="M717.692,213.178 C706.381,227.8 693.904,243.929 684.041,256.678 " fill="none" id="Regression-backto-RegressionTree" style="stroke:#A80036;stroke-width:1.0;"/><polygon fill="none" points="712.433,208.536,730.207,197,723.506,217.103,712.433,208.536" style="stroke:#A80036;stroke-width:1.0;"/><!--MD5=[440ac98585f6a1497d0363c0757ee81a]
reverse link Regression to MLPr--><path codeLine="27" d="M822.032,180.078 C852.612,185.439 887.116,195.433 914,214 C929.405,224.639 941.077,242.412 948.669,256.835 " fill="none" id="Regression-backto-MLPr" style="stroke:#A80036;stroke-width:1.0;"/><polygon fill="none" points="820.882,186.984,802.128,177.119,822.94,173.136,820.882,186.984" style="stroke:#A80036;stroke-width:1.0;"/><!--MD5=[a52dea5b6d01feb8db6d75a343bf54b3]
reverse link Regression to KMr--><path codeLine="28" d="M778.677,213.178 C790.126,227.8 802.756,243.929 812.739,256.678 " fill="none" id="Regression-backto-KMr" style="stroke:#A80036;stroke-width:1.0;"/><polygon fill="none" points="772.829,217.063,766.01,197,783.851,208.432,772.829,217.063" style="stroke:#A80036;stroke-width:1.0;"/><!--MD5=[73b496dee93fd15a4fe44c7230852ccc]
link Classifier to ToDoubleFunction--><path codeLine="31" d="M266.789,185.296 C293.043,192.208 325.888,202.026 354,214 C375.434,223.13 397.925,235.269 417.337,246.645 " fill="none" id="Classifier-to-ToDoubleFunction" style="stroke:#A80036;stroke-width:1.0;"/><polygon fill="none" points="420.993,240.676,434.523,256.982,413.777,252.673,420.993,240.676" style="stroke:#A80036;stroke-width:1.0;"/><!--MD5=[86935f89a59b037b1e4914cb653b38f1]
link Regression to ToDoubleFunction--><path codeLine="32" d="M693.948,183.463 C661.89,190.023 620.844,200.096 586,214 C564.198,222.7 541.485,234.85 521.997,246.357 " fill="none" id="Regression-to-ToDoubleFunction" style="stroke:#A80036;stroke-width:1.0;"/><polygon fill="none" points="525.504,252.418,504.781,256.842,518.221,240.461,525.504,252.418" style="stroke:#A80036;stroke-width:1.0;"/><!--MD5=[f661a4c7896f786931ea58e06595331d]
link CART to KernelMachine--><!--MD5=[839659bf341ab726b6713fd6dca2d5ab]
link KernelMachine to MultilayerPerceptron--><!--MD5=[613195a1944e73ea431198f83c1c1d3e]
link ToDoubleFunction to CART--><!--MD5=[29862c8cf63b7b1ad454363ac82ca55d]
link DecisionTree to CART--><path codeLine="46" d="M316.921,305.033 C343.943,322.856 381.918,347.904 413.284,368.592 " fill="none" id="DecisionTree-to-CART" style="stroke:#A80036;stroke-width:1.0;"/><polygon fill="none" points="417.544,363.016,430.386,379.871,409.836,374.703,417.544,363.016" style="stroke:#A80036;stroke-width:1.0;"/><!--MD5=[401cc13d883cc20a10a04fe5c315bc2d]
link RegressionTree to CART--><path codeLine="47" d="M629.593,305.033 C601.159,323.022 561.092,348.37 528.218,369.168 " fill="none" id="RegressionTree-to-CART" style="stroke:#A80036;stroke-width:1.0;"/><polygon fill="none" points="531.944,375.094,511.3,379.871,524.459,363.263,531.944,375.094" style="stroke:#A80036;stroke-width:1.0;"/><!--MD5=[457f8386e7b0030c328b6153b2834098]
link SVM to KernelMachine--><path codeLine="49" d="M180.397,305.015 C188.956,312.828 198.745,321.479 208,329 C277.028,385.098 360.664,444.715 414.574,482.133 " fill="none" id="SVM-to-KernelMachine" style="stroke:#A80036;stroke-width:1.0;"/><polygon fill="none" points="418.84,476.572,431.314,493.701,410.881,488.09,418.84,476.572" style="stroke:#A80036;stroke-width:1.0;"/><!--MD5=[86e9c0941701092bf1b45d0b2524380e]
link KMr to KernelMachine--><path codeLine="50" d="M796.058,305.037 C733.562,346.239 602.135,432.886 526.614,482.676 " fill="none" id="KMr-to-KernelMachine" style="stroke:#A80036;stroke-width:1.0;"/><polygon fill="none" points="530.143,488.733,509.593,493.897,522.437,477.045,530.143,488.733" style="stroke:#A80036;stroke-width:1.0;"/><!--MD5=[ae7ad346921be079031b5aa6697cdbaf]
link MLPc to MultilayerPerceptron--><path codeLine="52" d="M80.7684,305.149 C88.079,312.812 96.3257,321.337 104,329 C151.827,376.754 162.863,389.808 214,434 C282.392,493.104 365.487,556.592 418.07,595.8092 " fill="none" id="MLPc-to-MultilayerPerceptron" style="stroke:#A80036;stroke-width:1.0;"/><polygon fill="none" points="422.459,590.35,434.34,607.8951,414.111,601.5881,422.459,590.35" style="stroke:#A80036;stroke-width:1.0;"/><!--MD5=[4ef4e77ce23d6bad6736187f04ccd017]
link MLPr to MultilayerPerceptron--><path codeLine="53" d="M938.374,305.417 C931.007,313.262 922.435,321.83 914,329 C786.31,437.542 619.821,543.578 531.423,597.4291 " fill="none" id="MLPr-to-MultilayerPerceptron" style="stroke:#A80036;stroke-width:1.0;"/><polygon fill="none" points="534.778,603.5807,514.045,607.9551,527.525,591.606,534.778,603.5807" style="stroke:#A80036;stroke-width:1.0;"/><!--MD5=[29b1f0f6a55e5809959093263f9ee032]
@startuml
package smile.classification {
  interface Classifier<T>
  
  class DecisionTree 
  class SVM<T>
  class "MLP" as MLPc
  class KNN<T>
  
  Classifier <|- - SVM
  Classifier <|- - MLPc
  Classifier <|-up- KNN
  Classifier <|- - DecisionTree
}

package java.util.function {
  interface ToDoubleFunction<T>
}

package smile.regression {
  interface Regression<T>
  
  class RegressionTree 
  class "MLP" as MLPr
  class "KernelMachine<T>" as KMr
  
  Regression <|- - RegressionTree
  Regression <|- - MLPr
  Regression <|- - KMr
}

Classifier - -|>  ToDoubleFunction
Regression - -|>  ToDoubleFunction

package smile.base {
  class CART <<abstract>>
  class KernelMachine<T> <<abstract>>
  class MultilayerPerceptron <<abstract>>
  
  CART -[hidden]down- KernelMachine
  KernelMachine -[hidden]down- MultilayerPerceptron
}


ToDoubleFunction -[hidden]down- CART

DecisionTree - -|> CART
RegressionTree - -|> CART

SVM - -|> KernelMachine
KMr - -|> KernelMachine

MLPc - -|> MultilayerPerceptron
MLPr - -|> MultilayerPerceptron
@enduml

PlantUML version 1.2021.9beta2(Unknown compile time)
(GPL source distribution)
Java Runtime: Java(TM) SE Runtime Environment
JVM: Java HotSpot(TM) 64-Bit Server VM
Default Encoding: UTF-8
Language: en
Country: US
--></g></svg>