<?xml version="1.0" encoding="UTF-8" standalone="no"?>
<svg xmlns="http://www.w3.org/2000/svg" xmlns:xlink="http://www.w3.org/1999/xlink" contentScriptType="application/ecmascript" contentStyleType="text/css" height="220px" preserveAspectRatio="none" style="width:1122px;height:220px;background:#FFFFFF;" version="1.1" viewBox="0 0 1122 220" width="1122px" zoomAndPan="magnify"><defs><filter height="300%" id="f1d1ff5i7994k5" width="300%" x="-1" y="-1"><feGaussianBlur result="blurOut" stdDeviation="2.0"/><feColorMatrix in="blurOut" result="blurOut2" type="matrix" values="0 0 0 0 0 0 0 0 0 0 0 0 0 0 0 0 0 0 .4 0"/><feOffset dx="4.0" dy="4.0" in="blurOut2" result="blurOut3"/><feBlend in="SourceGraphic" in2="blurOut3" mode="normal"/></filter></defs><g><!--MD5=[fa0375e3666de1c481f0b3b2039d0db3]
cluster smile.classification--><polygon fill="#FFFFFF" filter="url(#f1d1ff5i7994k5)" points="16,6,181,6,188,28.2969,457,28.2969,457,213,16,213,16,6" style="stroke:#000000;stroke-width:1.5;"/><line style="stroke:#000000;stroke-width:1.5;" x1="16" x2="188" y1="28.2969" y2="28.2969"/><text fill="#000000" font-family="sans-serif" font-size="14" font-weight="bold" lengthAdjust="spacing" textLength="159" x="20" y="20.9951">smile.classification</text><!--MD5=[0c311de4a592f3c5f2bed0984ce064df]
cluster java.util.function--><polygon fill="#FFFFFF" filter="url(#f1d1ff5i7994k5)" points="481,6,628,6,635,28.2969,665,28.2969,665,105,481,105,481,6" style="stroke:#000000;stroke-width:1.5;"/><line style="stroke:#000000;stroke-width:1.5;" x1="481" x2="635" y1="28.2969" y2="28.2969"/><text fill="#000000" font-family="sans-serif" font-size="14" font-weight="bold" lengthAdjust="spacing" textLength="141" x="485" y="20.9951">java.util.function</text><!--MD5=[81c5f3c22c2d985c8d4984f9563cac54]
cluster smile.regression--><polygon fill="#FFFFFF" filter="url(#f1d1ff5i7994k5)" points="689,6,828,6,835,28.2969,1105,28.2969,1105,213,689,213,689,6" style="stroke:#000000;stroke-width:1.5;"/><line style="stroke:#000000;stroke-width:1.5;" x1="689" x2="835" y1="28.2969" y2="28.2969"/><text fill="#000000" font-family="sans-serif" font-size="14" font-weight="bold" lengthAdjust="spacing" textLength="133" x="693" y="20.9951">smile.regression</text><!--MD5=[e5192d39c070dac6a79b288c93719d10]
class Classifier--><rect codeLine="2" fill="#FEFECE" filter="url(#f1d1ff5i7994k5)" height="48" id="Classifier" style="stroke:#A80036;stroke-width:1.5;" width="95" x="263.5" y="41"/><ellipse cx="278.5" cy="57" fill="#B4A7E5" rx="11" ry="11" style="stroke:#A80036;stroke-width:1.0;"/><path d="M279.4531,53.7813 L281.1719,53.7813 C281.5625,53.7813 281.75,53.75 281.875,53.6719 C282.1406,53.5156 282.2813,53.2344 282.2813,52.9375 C282.2813,52.6719 282.1719,52.4063 281.9375,52.2344 C281.7656,52.125 281.625,52.0938 281.1719,52.0938 L276.0313,52.0938 C275.5938,52.0938 275.4688,52.1094 275.3125,52.2031 C275.0625,52.3594 274.9063,52.6563 274.9063,52.9375 C274.9063,53.2188 275.0469,53.4688 275.2656,53.6406 C275.4219,53.75 275.6094,53.7813 276.0313,53.7813 L277.75,53.7813 L277.75,60.2969 L276.0313,60.2969 C275.5938,60.2969 275.4688,60.3125 275.3125,60.4219 C275.0625,60.5781 274.9063,60.8594 274.9063,61.1563 C274.9063,61.4063 275.0469,61.6719 275.2656,61.8281 C275.4219,61.9531 275.625,62 276.0313,62 L281.1719,62 C281.9219,62 282.2813,61.7188 282.2813,61.1563 C282.2813,60.875 282.1719,60.625 281.9375,60.4531 C281.7656,60.3281 281.625,60.2969 281.1719,60.2969 L279.4531,60.2969 L279.4531,53.7813 Z " fill="#000000"/><text fill="#000000" font-family="sans-serif" font-size="12" font-style="italic" lengthAdjust="spacing" textLength="52" x="292.5" y="61.1543">Classifier</text><rect fill="#FFFFFF" height="15.9688" style="stroke:#000000;stroke-width:1.0;stroke-dasharray:2.0,2.0;" width="9" x="352.5" y="38"/><text fill="#000000" font-family="sans-serif" font-size="12" font-style="italic" lengthAdjust="spacing" textLength="7" x="353.5" y="50.1387">T</text><line style="stroke:#A80036;stroke-width:1.5;" x1="264.5" x2="357.5" y1="73" y2="73"/><line style="stroke:#A80036;stroke-width:1.5;" x1="264.5" x2="357.5" y1="81" y2="81"/><!--MD5=[a3d64c8542d94ecfd2dda2128b7114bd]
class DecisionTree--><rect codeLine="4" fill="#FEFECE" filter="url(#f1d1ff5i7994k5)" height="48" id="DecisionTree" style="stroke:#A80036;stroke-width:1.5;" width="112" x="32" y="149"/><ellipse cx="47" cy="165" fill="#ADD1B2" rx="11" ry="11" style="stroke:#A80036;stroke-width:1.0;"/><path d="M49.3438,160.6719 C48.4063,160.2344 47.8125,160.0938 46.9375,160.0938 C44.3125,160.0938 42.3125,162.1719 42.3125,164.8906 L42.3125,166.0156 C42.3125,168.5938 44.4219,170.4844 47.3125,170.4844 C48.5313,170.4844 49.6875,170.1875 50.4375,169.6406 C51.0156,169.2344 51.3438,168.7813 51.3438,168.3906 C51.3438,167.9375 50.9531,167.5469 50.4844,167.5469 C50.2656,167.5469 50.0625,167.625 49.875,167.8125 C49.4219,168.2969 49.4219,168.2969 49.2344,168.3906 C48.8125,168.6563 48.125,168.7813 47.3594,168.7813 C45.3125,168.7813 44.0156,167.6875 44.0156,165.9844 L44.0156,164.8906 C44.0156,163.1094 45.2656,161.7969 47,161.7969 C47.5781,161.7969 48.1875,161.9531 48.6563,162.2031 C49.1406,162.4844 49.3125,162.7031 49.4063,163.1094 C49.4688,163.5156 49.5,163.6406 49.6406,163.7656 C49.7813,163.9063 50.0156,164.0156 50.2344,164.0156 C50.5,164.0156 50.7656,163.875 50.9375,163.6563 C51.0469,163.5 51.0781,163.3125 51.0781,162.8906 L51.0781,161.4688 C51.0781,161.0313 51.0625,160.9063 50.9688,160.75 C50.8125,160.4844 50.5313,160.3438 50.2344,160.3438 C49.9375,160.3438 49.7344,160.4375 49.5156,160.75 L49.3438,160.6719 Z " fill="#000000"/><text fill="#000000" font-family="sans-serif" font-size="12" lengthAdjust="spacing" textLength="80" x="61" y="169.1543">DecisionTree</text><line style="stroke:#A80036;stroke-width:1.5;" x1="33" x2="143" y1="181" y2="181"/><line style="stroke:#A80036;stroke-width:1.5;" x1="33" x2="143" y1="189" y2="189"/><!--MD5=[ee004750a09daee7b8886fa6abb8ade9]
class SVM--><rect codeLine="5" fill="#FEFECE" filter="url(#f1d1ff5i7994k5)" height="48" id="SVM" style="stroke:#A80036;stroke-width:1.5;" width="69" x="179.5" y="149"/><ellipse cx="194.5" cy="165" fill="#ADD1B2" rx="11" ry="11" style="stroke:#A80036;stroke-width:1.0;"/><path d="M196.8438,160.6719 C195.9063,160.2344 195.3125,160.0938 194.4375,160.0938 C191.8125,160.0938 189.8125,162.1719 189.8125,164.8906 L189.8125,166.0156 C189.8125,168.5938 191.9219,170.4844 194.8125,170.4844 C196.0313,170.4844 197.1875,170.1875 197.9375,169.6406 C198.5156,169.2344 198.8438,168.7813 198.8438,168.3906 C198.8438,167.9375 198.4531,167.5469 197.9844,167.5469 C197.7656,167.5469 197.5625,167.625 197.375,167.8125 C196.9219,168.2969 196.9219,168.2969 196.7344,168.3906 C196.3125,168.6563 195.625,168.7813 194.8594,168.7813 C192.8125,168.7813 191.5156,167.6875 191.5156,165.9844 L191.5156,164.8906 C191.5156,163.1094 192.7656,161.7969 194.5,161.7969 C195.0781,161.7969 195.6875,161.9531 196.1563,162.2031 C196.6406,162.4844 196.8125,162.7031 196.9063,163.1094 C196.9688,163.5156 197,163.6406 197.1406,163.7656 C197.2813,163.9063 197.5156,164.0156 197.7344,164.0156 C198,164.0156 198.2656,163.875 198.4375,163.6563 C198.5469,163.5 198.5781,163.3125 198.5781,162.8906 L198.5781,161.4688 C198.5781,161.0313 198.5625,160.9063 198.4688,160.75 C198.3125,160.4844 198.0313,160.3438 197.7344,160.3438 C197.4375,160.3438 197.2344,160.4375 197.0156,160.75 L196.8438,160.6719 Z " fill="#000000"/><text fill="#000000" font-family="sans-serif" font-size="12" lengthAdjust="spacing" textLength="26" x="208.5" y="169.1543">SVM</text><rect fill="#FFFFFF" height="15.9688" style="stroke:#000000;stroke-width:1.0;stroke-dasharray:2.0,2.0;" width="9" x="242.5" y="146"/><text fill="#000000" font-family="sans-serif" font-size="12" font-style="italic" lengthAdjust="spacing" textLength="7" x="243.5" y="158.1387">T</text><line style="stroke:#A80036;stroke-width:1.5;" x1="180.5" x2="247.5" y1="181" y2="181"/><line style="stroke:#A80036;stroke-width:1.5;" x1="180.5" x2="247.5" y1="189" y2="189"/><!--MD5=[0d5888d78ccb8d64844c5353a1a7d180]
class MLPc--><rect codeLine="6" fill="#FEFECE" filter="url(#f1d1ff5i7994k5)" height="48" id="MLPc" style="stroke:#A80036;stroke-width:1.5;" width="54" x="284" y="149"/><ellipse cx="299" cy="165" fill="#ADD1B2" rx="11" ry="11" style="stroke:#A80036;stroke-width:1.0;"/><path d="M301.3438,160.6719 C300.4063,160.2344 299.8125,160.0938 298.9375,160.0938 C296.3125,160.0938 294.3125,162.1719 294.3125,164.8906 L294.3125,166.0156 C294.3125,168.5938 296.4219,170.4844 299.3125,170.4844 C300.5313,170.4844 301.6875,170.1875 302.4375,169.6406 C303.0156,169.2344 303.3438,168.7813 303.3438,168.3906 C303.3438,167.9375 302.9531,167.5469 302.4844,167.5469 C302.2656,167.5469 302.0625,167.625 301.875,167.8125 C301.4219,168.2969 301.4219,168.2969 301.2344,168.3906 C300.8125,168.6563 300.125,168.7813 299.3594,168.7813 C297.3125,168.7813 296.0156,167.6875 296.0156,165.9844 L296.0156,164.8906 C296.0156,163.1094 297.2656,161.7969 299,161.7969 C299.5781,161.7969 300.1875,161.9531 300.6563,162.2031 C301.1406,162.4844 301.3125,162.7031 301.4063,163.1094 C301.4688,163.5156 301.5,163.6406 301.6406,163.7656 C301.7813,163.9063 302.0156,164.0156 302.2344,164.0156 C302.5,164.0156 302.7656,163.875 302.9375,163.6563 C303.0469,163.5 303.0781,163.3125 303.0781,162.8906 L303.0781,161.4688 C303.0781,161.0313 303.0625,160.9063 302.9688,160.75 C302.8125,160.4844 302.5313,160.3438 302.2344,160.3438 C301.9375,160.3438 301.7344,160.4375 301.5156,160.75 L301.3438,160.6719 Z " fill="#000000"/><text fill="#000000" font-family="sans-serif" font-size="12" lengthAdjust="spacing" textLength="22" x="313" y="169.1543">MLP</text><line style="stroke:#A80036;stroke-width:1.5;" x1="285" x2="337" y1="181" y2="181"/><line style="stroke:#A80036;stroke-width:1.5;" x1="285" x2="337" y1="189" y2="189"/><!--MD5=[5ae717870eb28aeb9e926e7c45b9fd05]
class KNN--><rect codeLine="7" fill="#FEFECE" filter="url(#f1d1ff5i7994k5)" height="48" id="KNN" style="stroke:#A80036;stroke-width:1.5;" width="67" x="373.5" y="149"/><ellipse cx="388.5" cy="165" fill="#ADD1B2" rx="11" ry="11" style="stroke:#A80036;stroke-width:1.0;"/><path d="M390.8438,160.6719 C389.9063,160.2344 389.3125,160.0938 388.4375,160.0938 C385.8125,160.0938 383.8125,162.1719 383.8125,164.8906 L383.8125,166.0156 C383.8125,168.5938 385.9219,170.4844 388.8125,170.4844 C390.0313,170.4844 391.1875,170.1875 391.9375,169.6406 C392.5156,169.2344 392.8438,168.7813 392.8438,168.3906 C392.8438,167.9375 392.4531,167.5469 391.9844,167.5469 C391.7656,167.5469 391.5625,167.625 391.375,167.8125 C390.9219,168.2969 390.9219,168.2969 390.7344,168.3906 C390.3125,168.6563 389.625,168.7813 388.8594,168.7813 C386.8125,168.7813 385.5156,167.6875 385.5156,165.9844 L385.5156,164.8906 C385.5156,163.1094 386.7656,161.7969 388.5,161.7969 C389.0781,161.7969 389.6875,161.9531 390.1563,162.2031 C390.6406,162.4844 390.8125,162.7031 390.9063,163.1094 C390.9688,163.5156 391,163.6406 391.1406,163.7656 C391.2813,163.9063 391.5156,164.0156 391.7344,164.0156 C392,164.0156 392.2656,163.875 392.4375,163.6563 C392.5469,163.5 392.5781,163.3125 392.5781,162.8906 L392.5781,161.4688 C392.5781,161.0313 392.5625,160.9063 392.4688,160.75 C392.3125,160.4844 392.0313,160.3438 391.7344,160.3438 C391.4375,160.3438 391.2344,160.4375 391.0156,160.75 L390.8438,160.6719 Z " fill="#000000"/><text fill="#000000" font-family="sans-serif" font-size="12" lengthAdjust="spacing" textLength="24" x="402.5" y="169.1543">KNN</text><rect fill="#FFFFFF" height="15.9688" style="stroke:#000000;stroke-width:1.0;stroke-dasharray:2.0,2.0;" width="9" x="434.5" y="146"/><text fill="#000000" font-family="sans-serif" font-size="12" font-style="italic" lengthAdjust="spacing" textLength="7" x="435.5" y="158.1387">T</text><line style="stroke:#A80036;stroke-width:1.5;" x1="374.5" x2="439.5" y1="181" y2="181"/><line style="stroke:#A80036;stroke-width:1.5;" x1="374.5" x2="439.5" y1="189" y2="189"/><!--MD5=[d5395934ef640565fe748bfaeddfab76]
class ToDoubleFunction--><rect codeLine="16" fill="#FEFECE" filter="url(#f1d1ff5i7994k5)" height="48" id="ToDoubleFunction" style="stroke:#A80036;stroke-width:1.5;" width="152" x="497" y="41"/><ellipse cx="512" cy="57" fill="#B4A7E5" rx="11" ry="11" style="stroke:#A80036;stroke-width:1.0;"/><path d="M512.9531,53.7813 L514.6719,53.7813 C515.0625,53.7813 515.25,53.75 515.375,53.6719 C515.6406,53.5156 515.7813,53.2344 515.7813,52.9375 C515.7813,52.6719 515.6719,52.4063 515.4375,52.2344 C515.2656,52.125 515.125,52.0938 514.6719,52.0938 L509.5313,52.0938 C509.0938,52.0938 508.9688,52.1094 508.8125,52.2031 C508.5625,52.3594 508.4063,52.6563 508.4063,52.9375 C508.4063,53.2188 508.5469,53.4688 508.7656,53.6406 C508.9219,53.75 509.1094,53.7813 509.5313,53.7813 L511.25,53.7813 L511.25,60.2969 L509.5313,60.2969 C509.0938,60.2969 508.9688,60.3125 508.8125,60.4219 C508.5625,60.5781 508.4063,60.8594 508.4063,61.1563 C508.4063,61.4063 508.5469,61.6719 508.7656,61.8281 C508.9219,61.9531 509.125,62 509.5313,62 L514.6719,62 C515.4219,62 515.7813,61.7188 515.7813,61.1563 C515.7813,60.875 515.6719,60.625 515.4375,60.4531 C515.2656,60.3281 515.125,60.2969 514.6719,60.2969 L512.9531,60.2969 L512.9531,53.7813 Z " fill="#000000"/><text fill="#000000" font-family="sans-serif" font-size="12" font-style="italic" lengthAdjust="spacing" textLength="109" x="526" y="61.1543">ToDoubleFunction</text><rect fill="#FFFFFF" height="15.9688" style="stroke:#000000;stroke-width:1.0;stroke-dasharray:2.0,2.0;" width="9" x="643" y="38"/><text fill="#000000" font-family="sans-serif" font-size="12" font-style="italic" lengthAdjust="spacing" textLength="7" x="644" y="50.1387">T</text><line style="stroke:#A80036;stroke-width:1.5;" x1="498" x2="648" y1="73" y2="73"/><line style="stroke:#A80036;stroke-width:1.5;" x1="498" x2="648" y1="81" y2="81"/><!--MD5=[d6d03a24ddaddfc757d057c10e8a8b53]
class Regression--><rect codeLine="20" fill="#FEFECE" filter="url(#f1d1ff5i7994k5)" height="48" id="Regression" style="stroke:#A80036;stroke-width:1.5;" width="108" x="778" y="41"/><ellipse cx="793" cy="57" fill="#B4A7E5" rx="11" ry="11" style="stroke:#A80036;stroke-width:1.0;"/><path d="M793.9531,53.7813 L795.6719,53.7813 C796.0625,53.7813 796.25,53.75 796.375,53.6719 C796.6406,53.5156 796.7813,53.2344 796.7813,52.9375 C796.7813,52.6719 796.6719,52.4063 796.4375,52.2344 C796.2656,52.125 796.125,52.0938 795.6719,52.0938 L790.5313,52.0938 C790.0938,52.0938 789.9688,52.1094 789.8125,52.2031 C789.5625,52.3594 789.4063,52.6563 789.4063,52.9375 C789.4063,53.2188 789.5469,53.4688 789.7656,53.6406 C789.9219,53.75 790.1094,53.7813 790.5313,53.7813 L792.25,53.7813 L792.25,60.2969 L790.5313,60.2969 C790.0938,60.2969 789.9688,60.3125 789.8125,60.4219 C789.5625,60.5781 789.4063,60.8594 789.4063,61.1563 C789.4063,61.4063 789.5469,61.6719 789.7656,61.8281 C789.9219,61.9531 790.125,62 790.5313,62 L795.6719,62 C796.4219,62 796.7813,61.7188 796.7813,61.1563 C796.7813,60.875 796.6719,60.625 796.4375,60.4531 C796.2656,60.3281 796.125,60.2969 795.6719,60.2969 L793.9531,60.2969 L793.9531,53.7813 Z " fill="#000000"/><text fill="#000000" font-family="sans-serif" font-size="12" font-style="italic" lengthAdjust="spacing" textLength="65" x="807" y="61.1543">Regression</text><rect fill="#FFFFFF" height="15.9688" style="stroke:#000000;stroke-width:1.0;stroke-dasharray:2.0,2.0;" width="9" x="880" y="38"/><text fill="#000000" font-family="sans-serif" font-size="12" font-style="italic" lengthAdjust="spacing" textLength="7" x="881" y="50.1387">T</text><line style="stroke:#A80036;stroke-width:1.5;" x1="779" x2="885" y1="73" y2="73"/><line style="stroke:#A80036;stroke-width:1.5;" x1="779" x2="885" y1="81" y2="81"/><!--MD5=[6c3d7f491c22b9701940828d7c4ed72c]
class RegressionTree--><rect codeLine="22" fill="#FEFECE" filter="url(#f1d1ff5i7994k5)" height="48" id="RegressionTree" style="stroke:#A80036;stroke-width:1.5;" width="128" x="705" y="149"/><ellipse cx="720" cy="165" fill="#ADD1B2" rx="11" ry="11" style="stroke:#A80036;stroke-width:1.0;"/><path d="M722.3438,160.6719 C721.4063,160.2344 720.8125,160.0938 719.9375,160.0938 C717.3125,160.0938 715.3125,162.1719 715.3125,164.8906 L715.3125,166.0156 C715.3125,168.5938 717.4219,170.4844 720.3125,170.4844 C721.5313,170.4844 722.6875,170.1875 723.4375,169.6406 C724.0156,169.2344 724.3438,168.7813 724.3438,168.3906 C724.3438,167.9375 723.9531,167.5469 723.4844,167.5469 C723.2656,167.5469 723.0625,167.625 722.875,167.8125 C722.4219,168.2969 722.4219,168.2969 722.2344,168.3906 C721.8125,168.6563 721.125,168.7813 720.3594,168.7813 C718.3125,168.7813 717.0156,167.6875 717.0156,165.9844 L717.0156,164.8906 C717.0156,163.1094 718.2656,161.7969 720,161.7969 C720.5781,161.7969 721.1875,161.9531 721.6563,162.2031 C722.1406,162.4844 722.3125,162.7031 722.4063,163.1094 C722.4688,163.5156 722.5,163.6406 722.6406,163.7656 C722.7813,163.9063 723.0156,164.0156 723.2344,164.0156 C723.5,164.0156 723.7656,163.875 723.9375,163.6563 C724.0469,163.5 724.0781,163.3125 724.0781,162.8906 L724.0781,161.4688 C724.0781,161.0313 724.0625,160.9063 723.9688,160.75 C723.8125,160.4844 723.5313,160.3438 723.2344,160.3438 C722.9375,160.3438 722.7344,160.4375 722.5156,160.75 L722.3438,160.6719 Z " fill="#000000"/><text fill="#000000" font-family="sans-serif" font-size="12" lengthAdjust="spacing" textLength="96" x="734" y="169.1543">RegressionTree</text><line style="stroke:#A80036;stroke-width:1.5;" x1="706" x2="832" y1="181" y2="181"/><line style="stroke:#A80036;stroke-width:1.5;" x1="706" x2="832" y1="189" y2="189"/><!--MD5=[557bf2ec4b9018b5a28f802f13d4ad85]
class MLPr--><rect codeLine="23" fill="#FEFECE" filter="url(#f1d1ff5i7994k5)" height="48" id="MLPr" style="stroke:#A80036;stroke-width:1.5;" width="54" x="868" y="149"/><ellipse cx="883" cy="165" fill="#ADD1B2" rx="11" ry="11" style="stroke:#A80036;stroke-width:1.0;"/><path d="M885.3438,160.6719 C884.4063,160.2344 883.8125,160.0938 882.9375,160.0938 C880.3125,160.0938 878.3125,162.1719 878.3125,164.8906 L878.3125,166.0156 C878.3125,168.5938 880.4219,170.4844 883.3125,170.4844 C884.5313,170.4844 885.6875,170.1875 886.4375,169.6406 C887.0156,169.2344 887.3438,168.7813 887.3438,168.3906 C887.3438,167.9375 886.9531,167.5469 886.4844,167.5469 C886.2656,167.5469 886.0625,167.625 885.875,167.8125 C885.4219,168.2969 885.4219,168.2969 885.2344,168.3906 C884.8125,168.6563 884.125,168.7813 883.3594,168.7813 C881.3125,168.7813 880.0156,167.6875 880.0156,165.9844 L880.0156,164.8906 C880.0156,163.1094 881.2656,161.7969 883,161.7969 C883.5781,161.7969 884.1875,161.9531 884.6563,162.2031 C885.1406,162.4844 885.3125,162.7031 885.4063,163.1094 C885.4688,163.5156 885.5,163.6406 885.6406,163.7656 C885.7813,163.9063 886.0156,164.0156 886.2344,164.0156 C886.5,164.0156 886.7656,163.875 886.9375,163.6563 C887.0469,163.5 887.0781,163.3125 887.0781,162.8906 L887.0781,161.4688 C887.0781,161.0313 887.0625,160.9063 886.9688,160.75 C886.8125,160.4844 886.5313,160.3438 886.2344,160.3438 C885.9375,160.3438 885.7344,160.4375 885.5156,160.75 L885.3438,160.6719 Z " fill="#000000"/><text fill="#000000" font-family="sans-serif" font-size="12" lengthAdjust="spacing" textLength="22" x="897" y="169.1543">MLP</text><line style="stroke:#A80036;stroke-width:1.5;" x1="869" x2="921" y1="181" y2="181"/><line style="stroke:#A80036;stroke-width:1.5;" x1="869" x2="921" y1="189" y2="189"/><!--MD5=[acf9e44feeaf0483988ebf80511da332]
class KMr--><rect codeLine="24" fill="#FEFECE" filter="url(#f1d1ff5i7994k5)" height="48" id="KMr" style="stroke:#A80036;stroke-width:1.5;" width="131" x="957.5" y="149"/><ellipse cx="972.5" cy="165" fill="#ADD1B2" rx="11" ry="11" style="stroke:#A80036;stroke-width:1.0;"/><path d="M974.8438,160.6719 C973.9063,160.2344 973.3125,160.0938 972.4375,160.0938 C969.8125,160.0938 967.8125,162.1719 967.8125,164.8906 L967.8125,166.0156 C967.8125,168.5938 969.9219,170.4844 972.8125,170.4844 C974.0313,170.4844 975.1875,170.1875 975.9375,169.6406 C976.5156,169.2344 976.8438,168.7813 976.8438,168.3906 C976.8438,167.9375 976.4531,167.5469 975.9844,167.5469 C975.7656,167.5469 975.5625,167.625 975.375,167.8125 C974.9219,168.2969 974.9219,168.2969 974.7344,168.3906 C974.3125,168.6563 973.625,168.7813 972.8594,168.7813 C970.8125,168.7813 969.5156,167.6875 969.5156,165.9844 L969.5156,164.8906 C969.5156,163.1094 970.7656,161.7969 972.5,161.7969 C973.0781,161.7969 973.6875,161.9531 974.1563,162.2031 C974.6406,162.4844 974.8125,162.7031 974.9063,163.1094 C974.9688,163.5156 975,163.6406 975.1406,163.7656 C975.2813,163.9063 975.5156,164.0156 975.7344,164.0156 C976,164.0156 976.2656,163.875 976.4375,163.6563 C976.5469,163.5 976.5781,163.3125 976.5781,162.8906 L976.5781,161.4688 C976.5781,161.0313 976.5625,160.9063 976.4688,160.75 C976.3125,160.4844 976.0313,160.3438 975.7344,160.3438 C975.4375,160.3438 975.2344,160.4375 975.0156,160.75 L974.8438,160.6719 Z " fill="#000000"/><text fill="#000000" font-family="sans-serif" font-size="12" lengthAdjust="spacing" textLength="88" x="986.5" y="169.1543">KernelMachine</text><rect fill="#FFFFFF" height="15.9688" style="stroke:#000000;stroke-width:1.0;stroke-dasharray:2.0,2.0;" width="9" x="1082.5" y="146"/><text fill="#000000" font-family="sans-serif" font-size="12" font-style="italic" lengthAdjust="spacing" textLength="7" x="1083.5" y="158.1387">T</text><line style="stroke:#A80036;stroke-width:1.5;" x1="958.5" x2="1087.5" y1="181" y2="181"/><line style="stroke:#A80036;stroke-width:1.5;" x1="958.5" x2="1087.5" y1="189" y2="189"/><!--MD5=[45e0b55aa186d15d823b090445354940]
reverse link Classifier to SVM--><path codeLine="9" d="M276.019,104.227 C262.412,119.097 247.262,135.6523 235.341,148.6784 " fill="none" id="Classifier-backto-SVM" style="stroke:#A80036;stroke-width:1.0;"/><polygon fill="none" points="271.286,99.029,289.952,89,281.615,108.481,271.286,99.029" style="stroke:#A80036;stroke-width:1.0;"/><!--MD5=[ca7f29dc35abdd8d5f7345d28e67b6a7]
reverse link Classifier to MLPc--><path codeLine="10" d="M311,109.024 C311,122.579 311,137.0381 311,148.6784 " fill="none" id="Classifier-backto-MLPc" style="stroke:#A80036;stroke-width:1.0;"/><polygon fill="none" points="304,109,311,89,318,109,304,109" style="stroke:#A80036;stroke-width:1.0;"/><!--MD5=[ad2bfcc4d96f5eea884287f209785077]
reverse link Classifier to KNN--><path codeLine="11" d="M345.621,104.227 C359.088,119.097 374.081,135.6523 385.879,148.6784 " fill="none" id="Classifier-backto-KNN" style="stroke:#A80036;stroke-width:1.0;"/><polygon fill="none" points="340.068,108.524,331.831,89,350.445,99.126,340.068,108.524" style="stroke:#A80036;stroke-width:1.0;"/><!--MD5=[a11fa7cb384de1bc6eeb76aa7de61be1]
reverse link Classifier to DecisionTree--><path codeLine="12" d="M244.976,97.383 C210.239,113.895 168.395,133.7852 136.648,148.876 " fill="none" id="Classifier-backto-DecisionTree" style="stroke:#A80036;stroke-width:1.0;"/><polygon fill="none" points="242.366,90.874,263.434,88.61,248.376,103.518,242.366,90.874" style="stroke:#A80036;stroke-width:1.0;"/><!--MD5=[c23aeb13af02833ae71195c3ee091dc8]
reverse link Regression to RegressionTree--><path codeLine="26" d="M807.862,106.613 C799.402,120.848 790.191,136.3452 782.861,148.6784 " fill="none" id="Regression-backto-RegressionTree" style="stroke:#A80036;stroke-width:1.0;"/><polygon fill="none" points="802.094,102.617,818.33,89,814.129,109.769,802.094,102.617" style="stroke:#A80036;stroke-width:1.0;"/><!--MD5=[440ac98585f6a1497d0363c0757ee81a]
reverse link Regression to MLPr--><path codeLine="27" d="M856.138,106.613 C864.598,120.848 873.809,136.3452 881.139,148.6784 " fill="none" id="Regression-backto-MLPr" style="stroke:#A80036;stroke-width:1.0;"/><polygon fill="none" points="849.871,109.769,845.67,89,861.906,102.617,849.871,109.769" style="stroke:#A80036;stroke-width:1.0;"/><!--MD5=[a52dea5b6d01feb8db6d75a343bf54b3]
reverse link Regression to KMr--><path codeLine="28" d="M891.265,98.89 C920.452,115.089 954.941,134.229 981.307,148.8617 " fill="none" id="Regression-backto-KMr" style="stroke:#A80036;stroke-width:1.0;"/><polygon fill="none" points="887.535,104.826,873.444,89,894.328,92.585,887.535,104.826" style="stroke:#A80036;stroke-width:1.0;"/><!--MD5=[73b496dee93fd15a4fe44c7230852ccc]
link Classifier to ToDoubleFunction--><path codeLine="31" d="M358.59,65 C397.907,65 437.224,65 476.541,65 " fill="none" id="Classifier-to-ToDoubleFunction" style="stroke:#A80036;stroke-width:1.0;"/><polygon fill="none" points="476.784,58,496.784,65,476.784,72,476.784,58" style="stroke:#A80036;stroke-width:1.0;"/><!--MD5=[c2494994d4e93417e84df8e3956b064f]
reverse link ToDoubleFunction to Regression--><path codeLine="32" d="M669.222,65 C705.385,65 741.548,65 777.711,65 " fill="none" id="ToDoubleFunction-backto-Regression" style="stroke:#A80036;stroke-width:1.0;"/><polygon fill="none" points="669.132,72,649.132,65,669.132,58,669.132,72" style="stroke:#A80036;stroke-width:1.0;"/><!--MD5=[0d04a17e2ce47f6a541e7ec4f0deb36a]
@startuml
package smile.classification {
  interface Classifier<T>
  
  class DecisionTree 
  class SVM<T>
  class "MLP" as MLPc
  class KNN<T>
  
  Classifier <|- - SVM
  Classifier <|- - MLPc
  Classifier <|- - KNN
  Classifier <|- - DecisionTree
}

package java.util.function {
  interface ToDoubleFunction<T>
}

package smile.regression {
  interface Regression<T>
  
  class RegressionTree 
  class "MLP" as MLPr
  class "KernelMachine<T>" as KMr
  
  Regression <|- - RegressionTree
  Regression <|- - MLPr
  Regression <|- - KMr
}

Classifier -right-|>  ToDoubleFunction
Regression -left-|>  ToDoubleFunction

'smile.classification -[hidden]right- java.util.function
'java.util.function -[hidden]right- smile.regression
@enduml

@startuml
package smile.classification {
  interface Classifier<T>
  
  class DecisionTree 
  class SVM<T>
  class "MLP" as MLPc
  class KNN<T>
  
  Classifier <|- - SVM
  Classifier <|- - MLPc
  Classifier <|- - KNN
  Classifier <|- - DecisionTree
}

package java.util.function {
  interface ToDoubleFunction<T>
}

package smile.regression {
  interface Regression<T>
  
  class RegressionTree 
  class "MLP" as MLPr
  class "KernelMachine<T>" as KMr
  
  Regression <|- - RegressionTree
  Regression <|- - MLPr
  Regression <|- - KMr
}

Classifier -right-|>  ToDoubleFunction
Regression -left-|>  ToDoubleFunction

@enduml

PlantUML version 1.2021.9beta2(Unknown compile time)
(GPL source distribution)
Java Runtime: Java(TM) SE Runtime Environment
JVM: Java HotSpot(TM) 64-Bit Server VM
Default Encoding: UTF-8
Language: en
Country: US
--></g></svg>