<?xml version="1.0" encoding="UTF-8" standalone="no"?>
<svg
   contentScriptType="application/ecmascript"
   contentStyleType="text/css"
   height="544.23749"
   preserveAspectRatio="none"
   version="1.1"
   viewBox="0 0 1439.4843 544.23749"
   width="1439.4843"
   zoomAndPan="magnify"
   id="svg401"
   sodipodi:docname="smile-simple.svg"
   inkscape:version="1.1.1 (3bf5ae0d25, 2021-09-20)"
   xmlns:inkscape="http://www.inkscape.org/namespaces/inkscape"
   xmlns:sodipodi="http://sodipodi.sourceforge.net/DTD/sodipodi-0.dtd"
   xmlns="http://www.w3.org/2000/svg"
   xmlns:svg="http://www.w3.org/2000/svg">
  <sodipodi:namedview
     id="namedview403"
     pagecolor="#ffffff"
     bordercolor="#666666"
     borderopacity="1.0"
     inkscape:pageshadow="2"
     inkscape:pageopacity="0.0"
     inkscape:pagecheckerboard="0"
     showgrid="false"
     inkscape:zoom="0.3125"
     inkscape:cx="404.8"
     inkscape:cy="190.4"
     inkscape:window-width="1920"
     inkscape:window-height="1126"
     inkscape:window-x="1440"
     inkscape:window-y="0"
     inkscape:window-maximized="1"
     inkscape:current-layer="svg401"
     showguides="true"
     inkscape:guide-bbox="true"
     inkscape:snap-bbox="true"
     inkscape:bbox-paths="true"
     inkscape:bbox-nodes="true"
     inkscape:snap-bbox-edge-midpoints="true"
     inkscape:snap-bbox-midpoints="true"
     fit-margin-top="0"
     fit-margin-left="0"
     fit-margin-right="0"
     fit-margin-bottom="0">
    <sodipodi:guide
       position="741.58566,-197.6034"
       orientation="0,-1"
       id="guide1229" />
    <sodipodi:guide
       position="292.80001,544.23749"
       orientation="0,-1"
       id="guide1253" />
  </sodipodi:namedview>
  <defs
     id="defs11">
    <filter
       height="1.1525253"
       id="f12j7999z2q1nd"
       width="1.0820652"
       x="-0.030163043"
       y="-0.056060606">
      <feGaussianBlur
         result="blurOut"
         stdDeviation="2.0"
         id="feGaussianBlur2" />
      <feColorMatrix
         in="blurOut"
         result="blurOut2"
         type="matrix"
         values="0 0 0 0 0 0 0 0 0 0 0 0 0 0 0 0 0 0 .4 0"
         id="feColorMatrix4" />
      <feOffset
         dx="4.0"
         dy="4.0"
         in="blurOut2"
         result="blurOut3"
         id="feOffset6" />
      <feBlend
         in="SourceGraphic"
         in2="blurOut3"
         mode="normal"
         id="feBlend8" />
    </filter>
  </defs>
  <g
     id="g1196"
     transform="translate(144.25456,17.934375)">
    <polygon
       fill="#ffffff"
       filter="url(#f12j7999z2q1nd)"
       points="457,213 16,213 16,6 181,6 188,28.2969 457,28.2969 "
       style="stroke:#000000;stroke-width:1.5"
       id="polygon13" />
    <line
       style="stroke:#000000;stroke-width:1.5"
       x1="16"
       x2="188"
       y1="28.2969"
       y2="28.2969"
       id="line15" />
    <text
       fill="#000000"
       font-family="sans-serif"
       font-size="14px"
       font-weight="bold"
       lengthAdjust="spacing"
       textLength="159"
       x="20"
       y="20.9951"
       id="text17">smile.classification</text>
    <polygon
       fill="#ffffff"
       filter="url(#f12j7999z2q1nd)"
       points="665,105 481,105 481,6 628,6 635,28.2969 665,28.2969 "
       style="stroke:#000000;stroke-width:1.5"
       id="polygon19" />
    <line
       style="stroke:#000000;stroke-width:1.5"
       x1="481"
       x2="635"
       y1="28.2969"
       y2="28.2969"
       id="line21" />
    <text
       fill="#000000"
       font-family="sans-serif"
       font-size="14px"
       font-weight="bold"
       lengthAdjust="spacing"
       textLength="141"
       x="485"
       y="20.9951"
       id="text23">java.util.function</text>
    <polygon
       fill="#ffffff"
       filter="url(#f12j7999z2q1nd)"
       points="1105,213 689,213 689,6 828,6 835,28.2969 1105,28.2969 "
       style="stroke:#000000;stroke-width:1.5"
       id="polygon25" />
    <line
       style="stroke:#000000;stroke-width:1.5"
       x1="689"
       x2="835"
       y1="28.2969"
       y2="28.2969"
       id="line27" />
    <text
       fill="#000000"
       font-family="sans-serif"
       font-size="14px"
       font-weight="bold"
       lengthAdjust="spacing"
       textLength="133"
       x="693"
       y="20.9951"
       id="text29">smile.regression</text>
    <rect
       codeLine="2"
       fill="#fefece"
       filter="url(#f12j7999z2q1nd)"
       height="48"
       id="Classifier"
       style="stroke:#a80036;stroke-width:1.5"
       width="95"
       x="263.5"
       y="41" />
    <circle
       cx="278.5"
       cy="57"
       fill="#b4a7e5"
       style="stroke:#a80036;stroke-width:1"
       id="ellipse50"
       r="11" />
    <path
       d="m 279.4531,53.7813 h 1.7188 c 0.3906,0 0.5781,-0.0313 0.7031,-0.1094 0.2656,-0.1563 0.4063,-0.4375 0.4063,-0.7344 0,-0.2656 -0.1094,-0.5312 -0.3438,-0.7031 -0.1719,-0.1094 -0.3125,-0.1406 -0.7656,-0.1406 h -5.1406 c -0.4375,0 -0.5625,0.0156 -0.7188,0.1093 -0.25,0.1563 -0.4062,0.4532 -0.4062,0.7344 0,0.2813 0.1406,0.5313 0.3593,0.7031 0.1563,0.1094 0.3438,0.1407 0.7657,0.1407 h 1.7187 v 6.5156 h -1.7187 c -0.4375,0 -0.5625,0.0156 -0.7188,0.125 -0.25,0.1562 -0.4062,0.4375 -0.4062,0.7344 0,0.25 0.1406,0.5156 0.3593,0.6718 0.1563,0.125 0.3594,0.1719 0.7657,0.1719 h 5.1406 c 0.75,0 1.1094,-0.2812 1.1094,-0.8437 0,-0.2813 -0.1094,-0.5313 -0.3438,-0.7032 -0.1719,-0.125 -0.3125,-0.1562 -0.7656,-0.1562 h -1.7188 z"
       fill="#000000"
       id="path52" />
    <text
       fill="#000000"
       font-family="sans-serif"
       font-size="12px"
       font-style="italic"
       lengthAdjust="spacing"
       textLength="52"
       x="292.5"
       y="61.154301"
       id="text54">Classifier</text>
    <rect
       fill="#ffffff"
       height="15.9688"
       style="stroke:#000000;stroke-width:1;stroke-dasharray:2, 2"
       width="9"
       x="352.5"
       y="38"
       id="rect56" />
    <text
       fill="#000000"
       font-family="sans-serif"
       font-size="12px"
       font-style="italic"
       lengthAdjust="spacing"
       textLength="7"
       x="353.5"
       y="50.138699"
       id="text58">T</text>
    <line
       style="stroke:#a80036;stroke-width:1.5"
       x1="264.5"
       x2="357.5"
       y1="73"
       y2="73"
       id="line60" />
    <line
       style="stroke:#a80036;stroke-width:1.5"
       x1="264.5"
       x2="357.5"
       y1="81"
       y2="81"
       id="line62" />
    <rect
       codeLine="4"
       fill="#fefece"
       filter="url(#f12j7999z2q1nd)"
       height="48"
       id="DecisionTree"
       style="stroke:#a80036;stroke-width:1.5"
       width="112"
       x="32"
       y="149" />
    <circle
       cx="47"
       cy="165"
       fill="#add1b2"
       style="stroke:#a80036;stroke-width:1"
       id="ellipse65"
       r="11" />
    <path
       d="m 49.3438,160.6719 c -0.9375,-0.4375 -1.5313,-0.5781 -2.4063,-0.5781 -2.625,0 -4.625,2.0781 -4.625,4.7968 v 1.125 c 0,2.5782 2.1094,4.4688 5,4.4688 1.2188,0 2.375,-0.2969 3.125,-0.8438 0.5781,-0.4062 0.9063,-0.8593 0.9063,-1.25 0,-0.4531 -0.3907,-0.8437 -0.8594,-0.8437 -0.2188,0 -0.4219,0.0781 -0.6094,0.2656 -0.4531,0.4844 -0.4531,0.4844 -0.6406,0.5781 -0.4219,0.2657 -1.1094,0.3907 -1.875,0.3907 -2.0469,0 -3.3438,-1.0938 -3.3438,-2.7969 v -1.0938 c 0,-1.7812 1.25,-3.0937 2.9844,-3.0937 0.5781,0 1.1875,0.1562 1.6563,0.4062 0.4843,0.2813 0.6562,0.5 0.75,0.9063 0.0625,0.4062 0.0937,0.5312 0.2343,0.6562 0.1407,0.1407 0.375,0.25 0.5938,0.25 0.2656,0 0.5312,-0.1406 0.7031,-0.3593 0.1094,-0.1563 0.1406,-0.3438 0.1406,-0.7657 v -1.4218 c 0,-0.4375 -0.0156,-0.5625 -0.1093,-0.7188 -0.1563,-0.2656 -0.4375,-0.4062 -0.7344,-0.4062 -0.2969,0 -0.5,0.0937 -0.7188,0.4062 z"
       fill="#000000"
       id="path67" />
    <text
       fill="#000000"
       font-family="sans-serif"
       font-size="12px"
       lengthAdjust="spacing"
       textLength="80"
       x="61"
       y="169.1543"
       id="text69">DecisionTree</text>
    <line
       style="stroke:#a80036;stroke-width:1.5"
       x1="33"
       x2="143"
       y1="181"
       y2="181"
       id="line71" />
    <line
       style="stroke:#a80036;stroke-width:1.5"
       x1="33"
       x2="143"
       y1="189"
       y2="189"
       id="line73" />
    <rect
       codeLine="5"
       fill="#fefece"
       filter="url(#f12j7999z2q1nd)"
       height="48"
       id="SVM"
       style="stroke:#a80036;stroke-width:1.5"
       width="69"
       x="179.5"
       y="149" />
    <circle
       cx="194.5"
       cy="165"
       fill="#add1b2"
       style="stroke:#a80036;stroke-width:1"
       id="ellipse76"
       r="11" />
    <path
       d="m 196.8438,160.6719 c -0.9375,-0.4375 -1.5313,-0.5781 -2.4063,-0.5781 -2.625,0 -4.625,2.0781 -4.625,4.7968 v 1.125 c 0,2.5782 2.1094,4.4688 5,4.4688 1.2188,0 2.375,-0.2969 3.125,-0.8438 0.5781,-0.4062 0.9063,-0.8593 0.9063,-1.25 0,-0.4531 -0.3907,-0.8437 -0.8594,-0.8437 -0.2188,0 -0.4219,0.0781 -0.6094,0.2656 -0.4531,0.4844 -0.4531,0.4844 -0.6406,0.5781 -0.4219,0.2657 -1.1094,0.3907 -1.875,0.3907 -2.0469,0 -3.3438,-1.0938 -3.3438,-2.7969 v -1.0938 c 0,-1.7812 1.25,-3.0937 2.9844,-3.0937 0.5781,0 1.1875,0.1562 1.6563,0.4062 0.4843,0.2813 0.6562,0.5 0.75,0.9063 0.0625,0.4062 0.0937,0.5312 0.2343,0.6562 0.1407,0.1407 0.375,0.25 0.5938,0.25 0.2656,0 0.5312,-0.1406 0.7031,-0.3593 0.1094,-0.1563 0.1406,-0.3438 0.1406,-0.7657 v -1.4218 c 0,-0.4375 -0.0156,-0.5625 -0.1093,-0.7188 -0.1563,-0.2656 -0.4375,-0.4062 -0.7344,-0.4062 -0.2969,0 -0.5,0.0937 -0.7188,0.4062 z"
       fill="#000000"
       id="path78" />
    <text
       fill="#000000"
       font-family="sans-serif"
       font-size="12px"
       lengthAdjust="spacing"
       textLength="26"
       x="208.5"
       y="169.1543"
       id="text80">SVM</text>
    <rect
       fill="#ffffff"
       height="15.9688"
       style="stroke:#000000;stroke-width:1;stroke-dasharray:2, 2"
       width="9"
       x="242.5"
       y="146"
       id="rect82" />
    <text
       fill="#000000"
       font-family="sans-serif"
       font-size="12px"
       font-style="italic"
       lengthAdjust="spacing"
       textLength="7"
       x="243.5"
       y="158.1387"
       id="text84">T</text>
    <line
       style="stroke:#a80036;stroke-width:1.5"
       x1="180.5"
       x2="247.5"
       y1="181"
       y2="181"
       id="line86" />
    <line
       style="stroke:#a80036;stroke-width:1.5"
       x1="180.5"
       x2="247.5"
       y1="189"
       y2="189"
       id="line88" />
    <rect
       codeLine="6"
       fill="#fefece"
       filter="url(#f12j7999z2q1nd)"
       height="48"
       id="MLPc"
       style="stroke:#a80036;stroke-width:1.5"
       width="54"
       x="284"
       y="149" />
    <circle
       cx="299"
       cy="165"
       fill="#add1b2"
       style="stroke:#a80036;stroke-width:1"
       id="ellipse91"
       r="11" />
    <path
       d="m 301.3438,160.6719 c -0.9375,-0.4375 -1.5313,-0.5781 -2.4063,-0.5781 -2.625,0 -4.625,2.0781 -4.625,4.7968 v 1.125 c 0,2.5782 2.1094,4.4688 5,4.4688 1.2188,0 2.375,-0.2969 3.125,-0.8438 0.5781,-0.4062 0.9063,-0.8593 0.9063,-1.25 0,-0.4531 -0.3907,-0.8437 -0.8594,-0.8437 -0.2188,0 -0.4219,0.0781 -0.6094,0.2656 -0.4531,0.4844 -0.4531,0.4844 -0.6406,0.5781 -0.4219,0.2657 -1.1094,0.3907 -1.875,0.3907 -2.0469,0 -3.3438,-1.0938 -3.3438,-2.7969 v -1.0938 c 0,-1.7812 1.25,-3.0937 2.9844,-3.0937 0.5781,0 1.1875,0.1562 1.6563,0.4062 0.4843,0.2813 0.6562,0.5 0.75,0.9063 0.0625,0.4062 0.0937,0.5312 0.2343,0.6562 0.1407,0.1407 0.375,0.25 0.5938,0.25 0.2656,0 0.5312,-0.1406 0.7031,-0.3593 0.1094,-0.1563 0.1406,-0.3438 0.1406,-0.7657 v -1.4218 c 0,-0.4375 -0.0156,-0.5625 -0.1093,-0.7188 -0.1563,-0.2656 -0.4375,-0.4062 -0.7344,-0.4062 -0.2969,0 -0.5,0.0937 -0.7188,0.4062 z"
       fill="#000000"
       id="path93" />
    <text
       fill="#000000"
       font-family="sans-serif"
       font-size="12px"
       lengthAdjust="spacing"
       textLength="22"
       x="313"
       y="169.1543"
       id="text95">MLP</text>
    <line
       style="stroke:#a80036;stroke-width:1.5"
       x1="285"
       x2="337"
       y1="181"
       y2="181"
       id="line97" />
    <line
       style="stroke:#a80036;stroke-width:1.5"
       x1="285"
       x2="337"
       y1="189"
       y2="189"
       id="line99" />
    <rect
       codeLine="7"
       fill="#fefece"
       filter="url(#f12j7999z2q1nd)"
       height="48"
       id="KNN"
       style="stroke:#a80036;stroke-width:1.5"
       width="67"
       x="373.5"
       y="149" />
    <circle
       cx="388.5"
       cy="165"
       fill="#add1b2"
       style="stroke:#a80036;stroke-width:1"
       id="ellipse102"
       r="11" />
    <path
       d="m 390.8438,160.6719 c -0.9375,-0.4375 -1.5313,-0.5781 -2.4063,-0.5781 -2.625,0 -4.625,2.0781 -4.625,4.7968 v 1.125 c 0,2.5782 2.1094,4.4688 5,4.4688 1.2188,0 2.375,-0.2969 3.125,-0.8438 0.5781,-0.4062 0.9063,-0.8593 0.9063,-1.25 0,-0.4531 -0.3907,-0.8437 -0.8594,-0.8437 -0.2188,0 -0.4219,0.0781 -0.6094,0.2656 -0.4531,0.4844 -0.4531,0.4844 -0.6406,0.5781 -0.4219,0.2657 -1.1094,0.3907 -1.875,0.3907 -2.0469,0 -3.3438,-1.0938 -3.3438,-2.7969 v -1.0938 c 0,-1.7812 1.25,-3.0937 2.9844,-3.0937 0.5781,0 1.1875,0.1562 1.6563,0.4062 0.4843,0.2813 0.6562,0.5 0.75,0.9063 0.0625,0.4062 0.0937,0.5312 0.2343,0.6562 0.1407,0.1407 0.375,0.25 0.5938,0.25 0.2656,0 0.5312,-0.1406 0.7031,-0.3593 0.1094,-0.1563 0.1406,-0.3438 0.1406,-0.7657 v -1.4218 c 0,-0.4375 -0.0156,-0.5625 -0.1093,-0.7188 -0.1563,-0.2656 -0.4375,-0.4062 -0.7344,-0.4062 -0.2969,0 -0.5,0.0937 -0.7188,0.4062 z"
       fill="#000000"
       id="path104" />
    <text
       fill="#000000"
       font-family="sans-serif"
       font-size="12px"
       lengthAdjust="spacing"
       textLength="24"
       x="402.5"
       y="169.1543"
       id="text106">KNN</text>
    <rect
       fill="#ffffff"
       height="15.9688"
       style="stroke:#000000;stroke-width:1;stroke-dasharray:2, 2"
       width="9"
       x="434.5"
       y="146"
       id="rect108" />
    <text
       fill="#000000"
       font-family="sans-serif"
       font-size="12px"
       font-style="italic"
       lengthAdjust="spacing"
       textLength="7"
       x="435.5"
       y="158.1387"
       id="text110">T</text>
    <line
       style="stroke:#a80036;stroke-width:1.5"
       x1="374.5"
       x2="439.5"
       y1="181"
       y2="181"
       id="line112" />
    <line
       style="stroke:#a80036;stroke-width:1.5"
       x1="374.5"
       x2="439.5"
       y1="189"
       y2="189"
       id="line114" />
    <rect
       codeLine="16"
       fill="#fefece"
       filter="url(#f12j7999z2q1nd)"
       height="48"
       id="ToDoubleFunction"
       style="stroke:#a80036;stroke-width:1.5"
       width="152"
       x="497"
       y="41" />
    <circle
       cx="512"
       cy="57"
       fill="#b4a7e5"
       style="stroke:#a80036;stroke-width:1"
       id="ellipse117"
       r="11" />
    <path
       d="m 512.9531,53.7813 h 1.7188 c 0.3906,0 0.5781,-0.0313 0.7031,-0.1094 0.2656,-0.1563 0.4063,-0.4375 0.4063,-0.7344 0,-0.2656 -0.1094,-0.5312 -0.3438,-0.7031 -0.1719,-0.1094 -0.3125,-0.1406 -0.7656,-0.1406 h -5.1406 c -0.4375,0 -0.5625,0.0156 -0.7188,0.1093 -0.25,0.1563 -0.4062,0.4532 -0.4062,0.7344 0,0.2813 0.1406,0.5313 0.3593,0.7031 0.1563,0.1094 0.3438,0.1407 0.7657,0.1407 h 1.7187 v 6.5156 h -1.7187 c -0.4375,0 -0.5625,0.0156 -0.7188,0.125 -0.25,0.1562 -0.4062,0.4375 -0.4062,0.7344 0,0.25 0.1406,0.5156 0.3593,0.6718 0.1563,0.125 0.3594,0.1719 0.7657,0.1719 h 5.1406 c 0.75,0 1.1094,-0.2812 1.1094,-0.8437 0,-0.2813 -0.1094,-0.5313 -0.3438,-0.7032 -0.1719,-0.125 -0.3125,-0.1562 -0.7656,-0.1562 h -1.7188 z"
       fill="#000000"
       id="path119" />
    <text
       fill="#000000"
       font-family="sans-serif"
       font-size="12px"
       font-style="italic"
       lengthAdjust="spacing"
       textLength="109"
       x="526"
       y="61.154301"
       id="text121">ToDoubleFunction</text>
    <rect
       fill="#ffffff"
       height="15.9688"
       style="stroke:#000000;stroke-width:1;stroke-dasharray:2, 2"
       width="9"
       x="643"
       y="38"
       id="rect123" />
    <text
       fill="#000000"
       font-family="sans-serif"
       font-size="12px"
       font-style="italic"
       lengthAdjust="spacing"
       textLength="7"
       x="644"
       y="50.138699"
       id="text125">T</text>
    <line
       style="stroke:#a80036;stroke-width:1.5"
       x1="498"
       x2="648"
       y1="73"
       y2="73"
       id="line127" />
    <line
       style="stroke:#a80036;stroke-width:1.5"
       x1="498"
       x2="648"
       y1="81"
       y2="81"
       id="line129" />
    <rect
       codeLine="20"
       fill="#fefece"
       filter="url(#f12j7999z2q1nd)"
       height="48"
       id="Regression"
       style="stroke:#a80036;stroke-width:1.5"
       width="108"
       x="778"
       y="41" />
    <circle
       cx="793"
       cy="57"
       fill="#b4a7e5"
       style="stroke:#a80036;stroke-width:1"
       id="ellipse132"
       r="11" />
    <path
       d="m 793.9531,53.7813 h 1.7188 c 0.3906,0 0.5781,-0.0313 0.7031,-0.1094 0.2656,-0.1563 0.4063,-0.4375 0.4063,-0.7344 0,-0.2656 -0.1094,-0.5312 -0.3438,-0.7031 -0.1719,-0.1094 -0.3125,-0.1406 -0.7656,-0.1406 h -5.1406 c -0.4375,0 -0.5625,0.0156 -0.7188,0.1093 -0.25,0.1563 -0.4062,0.4532 -0.4062,0.7344 0,0.2813 0.1406,0.5313 0.3593,0.7031 0.1563,0.1094 0.3438,0.1407 0.7657,0.1407 h 1.7187 v 6.5156 h -1.7187 c -0.4375,0 -0.5625,0.0156 -0.7188,0.125 -0.25,0.1562 -0.4062,0.4375 -0.4062,0.7344 0,0.25 0.1406,0.5156 0.3593,0.6718 0.1563,0.125 0.3594,0.1719 0.7657,0.1719 h 5.1406 c 0.75,0 1.1094,-0.2812 1.1094,-0.8437 0,-0.2813 -0.1094,-0.5313 -0.3438,-0.7032 -0.1719,-0.125 -0.3125,-0.1562 -0.7656,-0.1562 h -1.7188 z"
       fill="#000000"
       id="path134" />
    <text
       fill="#000000"
       font-family="sans-serif"
       font-size="12px"
       font-style="italic"
       lengthAdjust="spacing"
       textLength="65"
       x="807"
       y="61.154301"
       id="text136">Regression</text>
    <rect
       fill="#ffffff"
       height="15.9688"
       style="stroke:#000000;stroke-width:1;stroke-dasharray:2, 2"
       width="9"
       x="880"
       y="38"
       id="rect138" />
    <text
       fill="#000000"
       font-family="sans-serif"
       font-size="12px"
       font-style="italic"
       lengthAdjust="spacing"
       textLength="7"
       x="881"
       y="50.138699"
       id="text140">T</text>
    <line
       style="stroke:#a80036;stroke-width:1.5"
       x1="779"
       x2="885"
       y1="73"
       y2="73"
       id="line142" />
    <line
       style="stroke:#a80036;stroke-width:1.5"
       x1="779"
       x2="885"
       y1="81"
       y2="81"
       id="line144" />
    <rect
       codeLine="22"
       fill="#fefece"
       filter="url(#f12j7999z2q1nd)"
       height="48"
       id="RegressionTree"
       style="stroke:#a80036;stroke-width:1.5"
       width="128"
       x="705"
       y="149" />
    <circle
       cx="720"
       cy="165"
       fill="#add1b2"
       style="stroke:#a80036;stroke-width:1"
       id="ellipse147"
       r="11" />
    <path
       d="m 722.3438,160.6719 c -0.9375,-0.4375 -1.5313,-0.5781 -2.4063,-0.5781 -2.625,0 -4.625,2.0781 -4.625,4.7968 v 1.125 c 0,2.5782 2.1094,4.4688 5,4.4688 1.2188,0 2.375,-0.2969 3.125,-0.8438 0.5781,-0.4062 0.9063,-0.8593 0.9063,-1.25 0,-0.4531 -0.3907,-0.8437 -0.8594,-0.8437 -0.2188,0 -0.4219,0.0781 -0.6094,0.2656 -0.4531,0.4844 -0.4531,0.4844 -0.6406,0.5781 -0.4219,0.2657 -1.1094,0.3907 -1.875,0.3907 -2.0469,0 -3.3438,-1.0938 -3.3438,-2.7969 v -1.0938 c 0,-1.7812 1.25,-3.0937 2.9844,-3.0937 0.5781,0 1.1875,0.1562 1.6563,0.4062 0.4843,0.2813 0.6562,0.5 0.75,0.9063 0.0625,0.4062 0.0937,0.5312 0.2343,0.6562 0.1407,0.1407 0.375,0.25 0.5938,0.25 0.2656,0 0.5312,-0.1406 0.7031,-0.3593 0.1094,-0.1563 0.1406,-0.3438 0.1406,-0.7657 v -1.4218 c 0,-0.4375 -0.0156,-0.5625 -0.1093,-0.7188 -0.1563,-0.2656 -0.4375,-0.4062 -0.7344,-0.4062 -0.2969,0 -0.5,0.0937 -0.7188,0.4062 z"
       fill="#000000"
       id="path149" />
    <text
       fill="#000000"
       font-family="sans-serif"
       font-size="12px"
       lengthAdjust="spacing"
       textLength="96"
       x="734"
       y="169.1543"
       id="text151">RegressionTree</text>
    <line
       style="stroke:#a80036;stroke-width:1.5"
       x1="706"
       x2="832"
       y1="181"
       y2="181"
       id="line153" />
    <line
       style="stroke:#a80036;stroke-width:1.5"
       x1="706"
       x2="832"
       y1="189"
       y2="189"
       id="line155" />
    <rect
       codeLine="23"
       fill="#fefece"
       filter="url(#f12j7999z2q1nd)"
       height="48"
       id="MLPr"
       style="stroke:#a80036;stroke-width:1.5"
       width="54"
       x="868"
       y="149" />
    <circle
       cx="883"
       cy="165"
       fill="#add1b2"
       style="stroke:#a80036;stroke-width:1"
       id="ellipse158"
       r="11" />
    <path
       d="m 885.3438,160.6719 c -0.9375,-0.4375 -1.5313,-0.5781 -2.4063,-0.5781 -2.625,0 -4.625,2.0781 -4.625,4.7968 v 1.125 c 0,2.5782 2.1094,4.4688 5,4.4688 1.2188,0 2.375,-0.2969 3.125,-0.8438 0.5781,-0.4062 0.9063,-0.8593 0.9063,-1.25 0,-0.4531 -0.3907,-0.8437 -0.8594,-0.8437 -0.2188,0 -0.4219,0.0781 -0.6094,0.2656 -0.4531,0.4844 -0.4531,0.4844 -0.6406,0.5781 -0.4219,0.2657 -1.1094,0.3907 -1.875,0.3907 -2.0469,0 -3.3438,-1.0938 -3.3438,-2.7969 v -1.0938 c 0,-1.7812 1.25,-3.0937 2.9844,-3.0937 0.5781,0 1.1875,0.1562 1.6563,0.4062 0.4843,0.2813 0.6562,0.5 0.75,0.9063 0.0625,0.4062 0.0937,0.5312 0.2343,0.6562 0.1407,0.1407 0.375,0.25 0.5938,0.25 0.2656,0 0.5312,-0.1406 0.7031,-0.3593 0.1094,-0.1563 0.1406,-0.3438 0.1406,-0.7657 v -1.4218 c 0,-0.4375 -0.0156,-0.5625 -0.1093,-0.7188 -0.1563,-0.2656 -0.4375,-0.4062 -0.7344,-0.4062 -0.2969,0 -0.5,0.0937 -0.7188,0.4062 z"
       fill="#000000"
       id="path160" />
    <text
       fill="#000000"
       font-family="sans-serif"
       font-size="12px"
       lengthAdjust="spacing"
       textLength="22"
       x="897"
       y="169.1543"
       id="text162">MLP</text>
    <line
       style="stroke:#a80036;stroke-width:1.5"
       x1="869"
       x2="921"
       y1="181"
       y2="181"
       id="line164" />
    <line
       style="stroke:#a80036;stroke-width:1.5"
       x1="869"
       x2="921"
       y1="189"
       y2="189"
       id="line166" />
    <rect
       codeLine="24"
       fill="#fefece"
       filter="url(#f12j7999z2q1nd)"
       height="48"
       id="KMr"
       style="stroke:#a80036;stroke-width:1.5"
       width="131"
       x="957.5"
       y="149" />
    <circle
       cx="972.5"
       cy="165"
       fill="#add1b2"
       style="stroke:#a80036;stroke-width:1"
       id="ellipse169"
       r="11" />
    <path
       d="m 974.8438,160.6719 c -0.9375,-0.4375 -1.5313,-0.5781 -2.4063,-0.5781 -2.625,0 -4.625,2.0781 -4.625,4.7968 v 1.125 c 0,2.5782 2.1094,4.4688 5,4.4688 1.2188,0 2.375,-0.2969 3.125,-0.8438 0.5781,-0.4062 0.9063,-0.8593 0.9063,-1.25 0,-0.4531 -0.3907,-0.8437 -0.8594,-0.8437 -0.2188,0 -0.4219,0.0781 -0.6094,0.2656 -0.4531,0.4844 -0.4531,0.4844 -0.6406,0.5781 -0.4219,0.2657 -1.1094,0.3907 -1.875,0.3907 -2.0469,0 -3.3438,-1.0938 -3.3438,-2.7969 v -1.0938 c 0,-1.7812 1.25,-3.0937 2.9844,-3.0937 0.5781,0 1.1875,0.1562 1.6563,0.4062 0.4843,0.2813 0.6562,0.5 0.75,0.9063 0.0625,0.4062 0.0937,0.5312 0.2343,0.6562 0.1407,0.1407 0.375,0.25 0.5938,0.25 0.2656,0 0.5312,-0.1406 0.7031,-0.3593 0.1094,-0.1563 0.1406,-0.3438 0.1406,-0.7657 v -1.4218 c 0,-0.4375 -0.0156,-0.5625 -0.1093,-0.7188 -0.1563,-0.2656 -0.4375,-0.4062 -0.7344,-0.4062 -0.2969,0 -0.5,0.0937 -0.7188,0.4062 z"
       fill="#000000"
       id="path171" />
    <text
       fill="#000000"
       font-family="sans-serif"
       font-size="12px"
       lengthAdjust="spacing"
       textLength="88"
       x="986.5"
       y="169.1543"
       id="text173">KernelMachine</text>
    <rect
       fill="#ffffff"
       height="15.9688"
       style="stroke:#000000;stroke-width:1;stroke-dasharray:2, 2"
       width="9"
       x="1082.5"
       y="146"
       id="rect175" />
    <text
       fill="#000000"
       font-family="sans-serif"
       font-size="12px"
       font-style="italic"
       lengthAdjust="spacing"
       textLength="7"
       x="1083.5"
       y="158.1387"
       id="text177">T</text>
    <line
       style="stroke:#a80036;stroke-width:1.5"
       x1="958.5"
       x2="1087.5"
       y1="181"
       y2="181"
       id="line179" />
    <line
       style="stroke:#a80036;stroke-width:1.5"
       x1="958.5"
       x2="1087.5"
       y1="189"
       y2="189"
       id="line181" />
    <path
       codeLine="9"
       d="m 276.019,104.227 c -13.607,14.87 -28.757,31.4253 -40.678,44.4514"
       fill="none"
       id="Classifier-backto-SVM"
       style="stroke:#a80036;stroke-width:1" />
    <polygon
       fill="none"
       points="289.952,89 281.615,108.481 271.286,99.029 "
       style="stroke:#a80036;stroke-width:1"
       id="polygon338" />
    <path
       codeLine="10"
       d="m 311,109.024 c 0,13.555 0,28.0141 0,39.6544"
       fill="none"
       id="Classifier-backto-MLPc"
       style="stroke:#a80036;stroke-width:1" />
    <polygon
       fill="none"
       points="311,89 318,109 304,109 "
       style="stroke:#a80036;stroke-width:1"
       id="polygon341" />
    <path
       codeLine="11"
       d="m 345.621,104.227 c 13.467,14.87 28.46,31.4253 40.258,44.4514"
       fill="none"
       id="Classifier-backto-KNN"
       style="stroke:#a80036;stroke-width:1" />
    <polygon
       fill="none"
       points="331.831,89 350.445,99.126 340.068,108.524 "
       style="stroke:#a80036;stroke-width:1"
       id="polygon344" />
    <path
       codeLine="12"
       d="m 244.976,97.383 c -34.737,16.512 -76.581,36.4022 -108.328,51.493"
       fill="none"
       id="Classifier-backto-DecisionTree"
       style="stroke:#a80036;stroke-width:1" />
    <polygon
       fill="none"
       points="263.434,88.61 248.376,103.518 242.366,90.874 "
       style="stroke:#a80036;stroke-width:1"
       id="polygon347" />
    <path
       codeLine="26"
       d="m 807.862,106.613 c -8.46,14.235 -17.671,29.7322 -25.001,42.0654"
       fill="none"
       id="Regression-backto-RegressionTree"
       style="stroke:#a80036;stroke-width:1" />
    <polygon
       fill="none"
       points="818.33,89 814.129,109.769 802.094,102.617 "
       style="stroke:#a80036;stroke-width:1"
       id="polygon350" />
    <path
       codeLine="27"
       d="m 856.138,106.613 c 8.46,14.235 17.671,29.7322 25.001,42.0654"
       fill="none"
       id="Regression-backto-MLPr"
       style="stroke:#a80036;stroke-width:1" />
    <polygon
       fill="none"
       points="845.67,89 861.906,102.617 849.871,109.769 "
       style="stroke:#a80036;stroke-width:1"
       id="polygon353" />
    <path
       codeLine="28"
       d="m 891.265,98.89 c 29.187,16.199 63.676,35.339 90.042,49.9717"
       fill="none"
       id="Regression-backto-KMr"
       style="stroke:#a80036;stroke-width:1" />
    <polygon
       fill="none"
       points="873.444,89 894.328,92.585 887.535,104.826 "
       style="stroke:#a80036;stroke-width:1"
       id="polygon356" />
    <path
       codeLine="31"
       d="m 358.59,65 c 39.317,0 78.634,0 117.951,0"
       fill="none"
       id="Classifier-to-ToDoubleFunction"
       style="stroke:#a80036;stroke-width:1" />
    <polygon
       fill="none"
       points="496.784,65 476.784,72 476.784,58 "
       style="stroke:#a80036;stroke-width:1"
       id="polygon359" />
    <path
       codeLine="32"
       d="m 669.222,65 c 36.163,0 72.326,0 108.489,0"
       fill="none"
       id="ToDoubleFunction-backto-Regression"
       style="stroke:#a80036;stroke-width:1" />
    <polygon
       fill="none"
       points="649.132,65 669.132,58 669.132,72 "
       style="stroke:#a80036;stroke-width:1"
       id="polygon362" />
  </g>
  <g
     id="g1227"
     transform="translate(-470.74117,290.05312)">
    <polygon
       fill="#ffffff"
       filter="url(#f12j7999z2q1nd)"
       points="1361,28.2969 1361,213 1129,213 1129,6 1221,6 1228,28.2969 "
       style="stroke:#000000;stroke-width:1.5"
       id="polygon31" />
    <line
       style="stroke:#000000;stroke-width:1.5"
       x1="1129"
       x2="1228"
       y1="28.2969"
       y2="28.2969"
       id="line33" />
    <text
       fill="#000000"
       font-family="sans-serif"
       font-size="14px"
       font-weight="bold"
       lengthAdjust="spacing"
       textLength="86"
       x="1133"
       y="20.9951"
       id="text35">smile.data</text>
    <rect
       codeLine="38"
       fill="#fefece"
       filter="url(#f12j7999z2q1nd)"
       height="48"
       id="DataFrame"
       style="stroke:#a80036;stroke-width:1.5"
       width="98"
       x="1195"
       y="41" />
    <circle
       cx="1210"
       cy="57"
       fill="#b4a7e5"
       style="stroke:#a80036;stroke-width:1"
       id="ellipse184"
       r="11" />
    <path
       d="m 1210.9531,53.7813 h 1.7188 c 0.3906,0 0.5781,-0.0313 0.7031,-0.1094 0.2656,-0.1563 0.4063,-0.4375 0.4063,-0.7344 0,-0.2656 -0.1094,-0.5312 -0.3438,-0.7031 -0.1719,-0.1094 -0.3125,-0.1406 -0.7656,-0.1406 h -5.1406 c -0.4375,0 -0.5625,0.0156 -0.7188,0.1093 -0.25,0.1563 -0.4062,0.4532 -0.4062,0.7344 0,0.2813 0.1406,0.5313 0.3593,0.7031 0.1563,0.1094 0.3438,0.1407 0.7657,0.1407 h 1.7187 v 6.5156 h -1.7187 c -0.4375,0 -0.5625,0.0156 -0.7188,0.125 -0.25,0.1562 -0.4062,0.4375 -0.4062,0.7344 0,0.25 0.1406,0.5156 0.3593,0.6718 0.1563,0.125 0.3594,0.1719 0.7657,0.1719 h 5.1406 c 0.75,0 1.1094,-0.2812 1.1094,-0.8437 0,-0.2813 -0.1094,-0.5313 -0.3438,-0.7032 -0.1719,-0.125 -0.3125,-0.1562 -0.7656,-0.1562 h -1.7188 z"
       fill="#000000"
       id="path186" />
    <text
       fill="#000000"
       font-family="sans-serif"
       font-size="12px"
       font-style="italic"
       lengthAdjust="spacing"
       textLength="66"
       x="1224"
       y="61.154301"
       id="text188">DataFrame</text>
    <line
       style="stroke:#a80036;stroke-width:1.5"
       x1="1196"
       x2="1292"
       y1="73"
       y2="73"
       id="line190" />
    <line
       style="stroke:#a80036;stroke-width:1.5"
       x1="1196"
       x2="1292"
       y1="81"
       y2="81"
       id="line192" />
    <rect
       codeLine="39"
       fill="#fefece"
       filter="url(#f12j7999z2q1nd)"
       height="48"
       id="Tuple"
       style="stroke:#a80036;stroke-width:1.5"
       width="65"
       x="1145.5"
       y="149" />
    <circle
       cx="1160.5"
       cy="165"
       fill="#b4a7e5"
       style="stroke:#a80036;stroke-width:1"
       id="ellipse195"
       r="11" />
    <path
       d="m 1161.4531,161.7813 h 1.7188 c 0.3906,0 0.5781,-0.0313 0.7031,-0.1094 0.2656,-0.1563 0.4063,-0.4375 0.4063,-0.7344 0,-0.2656 -0.1094,-0.5312 -0.3438,-0.7031 -0.1719,-0.1094 -0.3125,-0.1406 -0.7656,-0.1406 h -5.1406 c -0.4375,0 -0.5625,0.0156 -0.7188,0.1093 -0.25,0.1563 -0.4062,0.4532 -0.4062,0.7344 0,0.2813 0.1406,0.5313 0.3593,0.7031 0.1563,0.1094 0.3438,0.1407 0.7657,0.1407 h 1.7187 v 6.5156 h -1.7187 c -0.4375,0 -0.5625,0.0156 -0.7188,0.125 -0.25,0.1562 -0.4062,0.4375 -0.4062,0.7344 0,0.25 0.1406,0.5156 0.3593,0.6718 0.1563,0.125 0.3594,0.1719 0.7657,0.1719 h 5.1406 c 0.75,0 1.1094,-0.2812 1.1094,-0.8437 0,-0.2813 -0.1094,-0.5313 -0.3438,-0.7032 -0.1719,-0.125 -0.3125,-0.1562 -0.7656,-0.1562 h -1.7188 z"
       fill="#000000"
       id="path197" />
    <text
       fill="#000000"
       font-family="sans-serif"
       font-size="12px"
       font-style="italic"
       lengthAdjust="spacing"
       textLength="33"
       x="1174.5"
       y="169.1543"
       id="text199">Tuple</text>
    <line
       style="stroke:#a80036;stroke-width:1.5"
       x1="1146.5"
       x2="1209.5"
       y1="181"
       y2="181"
       id="line201" />
    <line
       style="stroke:#a80036;stroke-width:1.5"
       x1="1146.5"
       x2="1209.5"
       y1="189"
       y2="189"
       id="line203" />
    <rect
       codeLine="40"
       fill="#fefece"
       filter="url(#f12j7999z2q1nd)"
       height="48"
       id="StructType"
       style="stroke:#a80036;stroke-width:1.5"
       width="99"
       x="1245.5"
       y="149" />
    <circle
       cx="1260.5"
       cy="165"
       fill="#b4a7e5"
       style="stroke:#a80036;stroke-width:1"
       id="ellipse206"
       r="11" />
    <path
       d="m 1261.4531,161.7813 h 1.7188 c 0.3906,0 0.5781,-0.0313 0.7031,-0.1094 0.2656,-0.1563 0.4063,-0.4375 0.4063,-0.7344 0,-0.2656 -0.1094,-0.5312 -0.3438,-0.7031 -0.1719,-0.1094 -0.3125,-0.1406 -0.7656,-0.1406 h -5.1406 c -0.4375,0 -0.5625,0.0156 -0.7188,0.1093 -0.25,0.1563 -0.4062,0.4532 -0.4062,0.7344 0,0.2813 0.1406,0.5313 0.3593,0.7031 0.1563,0.1094 0.3438,0.1407 0.7657,0.1407 h 1.7187 v 6.5156 h -1.7187 c -0.4375,0 -0.5625,0.0156 -0.7188,0.125 -0.25,0.1562 -0.4062,0.4375 -0.4062,0.7344 0,0.25 0.1406,0.5156 0.3593,0.6718 0.1563,0.125 0.3594,0.1719 0.7657,0.1719 h 5.1406 c 0.75,0 1.1094,-0.2812 1.1094,-0.8437 0,-0.2813 -0.1094,-0.5313 -0.3438,-0.7032 -0.1719,-0.125 -0.3125,-0.1562 -0.7656,-0.1562 h -1.7188 z"
       fill="#000000"
       id="path208" />
    <text
       fill="#000000"
       font-family="sans-serif"
       font-size="12px"
       font-style="italic"
       lengthAdjust="spacing"
       textLength="67"
       x="1274.5"
       y="169.1543"
       id="text210">StructType</text>
    <line
       style="stroke:#a80036;stroke-width:1.5"
       x1="1246.5"
       x2="1343.5"
       y1="181"
       y2="181"
       id="line212" />
    <line
       style="stroke:#a80036;stroke-width:1.5"
       x1="1246.5"
       x2="1343.5"
       y1="189"
       y2="189"
       id="line214" />
    <path
       codeLine="42"
       d="m 1260.81,100.935 c 7.54,15.676 16.24,33.7473 22.97,47.7434"
       fill="none"
       id="DataFrame-backto-StructType"
       style="stroke:#a80036;stroke-width:1" />
    <polygon
       fill="#ffffff"
       points="1254.0674,96.1411 1260.2735,99.8131 1261.2761,92.6721 1255.07,89 "
       style="stroke:#a80036;stroke-width:1"
       id="polygon365" />
    <text
       fill="#000000"
       font-family="sans-serif"
       font-size="13px"
       lengthAdjust="spacing"
       textLength="8"
       x="1248.8817"
       y="109.1558"
       id="text367">1</text>
    <text
       fill="#000000"
       font-family="sans-serif"
       font-size="13px"
       lengthAdjust="spacing"
       textLength="8"
       x="1272.0701"
       y="138.005"
       id="text369">1</text>
    <path
       codeLine="43"
       d="m 1222.54,100.47 c -9.83,15.783 -21.22,34.0737 -30.02,48.2084"
       fill="none"
       id="DataFrame-backto-Tuple"
       style="stroke:#a80036;stroke-width:1" />
    <polygon
       fill="#a80036"
       points="1223.1122,91.9772 1223.3342,99.1849 1229.9021,96.2077 1229.68,89 "
       style="stroke:#a80036;stroke-width:1"
       id="polygon372" />
    <text
       fill="#000000"
       font-family="sans-serif"
       font-size="13px"
       lengthAdjust="spacing"
       textLength="8"
       x="1216.9855"
       y="109.1558"
       id="text374">0</text>
    <text
       fill="#000000"
       font-family="sans-serif"
       font-size="13px"
       lengthAdjust="spacing"
       textLength="9"
       x="1185.9624"
       y="138.005"
       id="text376">N</text>
  </g>
  <g
     id="g1060"
     transform="translate(-1325.2489,290.05312)">
    <polygon
       fill="#ffffff"
       filter="url(#f12j7999z2q1nd)"
       points="1521,6 1528,28.2969 1891,28.2969 1891,213 1385,213 1385,6 "
       style="stroke:#000000;stroke-width:1.5"
       id="polygon37" />
    <line
       style="stroke:#000000;stroke-width:1.5"
       x1="1385"
       x2="1528"
       y1="28.2969"
       y2="28.2969"
       id="line39" />
    <text
       fill="#000000"
       font-family="sans-serif"
       font-size="14px"
       font-weight="bold"
       lengthAdjust="spacing"
       textLength="130"
       x="1389"
       y="20.9951"
       id="text41">smile.validation</text>
    <rect
       codeLine="47"
       fill="#fefece"
       filter="url(#f12j7999z2q1nd)"
       height="48"
       id="CrossValidation"
       style="stroke:#a80036;stroke-width:1.5"
       width="123"
       x="1751.5"
       y="41" />
    <circle
       cx="1766.5"
       cy="57"
       fill="#b4a7e5"
       style="stroke:#a80036;stroke-width:1"
       id="ellipse217"
       r="11" />
    <path
       d="m 1767.4531,53.7813 h 1.7188 c 0.3906,0 0.5781,-0.0313 0.7031,-0.1094 0.2656,-0.1563 0.4063,-0.4375 0.4063,-0.7344 0,-0.2656 -0.1094,-0.5312 -0.3438,-0.7031 -0.1719,-0.1094 -0.3125,-0.1406 -0.7656,-0.1406 h -5.1406 c -0.4375,0 -0.5625,0.0156 -0.7188,0.1093 -0.25,0.1563 -0.4062,0.4532 -0.4062,0.7344 0,0.2813 0.1406,0.5313 0.3593,0.7031 0.1563,0.1094 0.3438,0.1407 0.7657,0.1407 h 1.7187 v 6.5156 h -1.7187 c -0.4375,0 -0.5625,0.0156 -0.7188,0.125 -0.25,0.1562 -0.4062,0.4375 -0.4062,0.7344 0,0.25 0.1406,0.5156 0.3593,0.6718 0.1563,0.125 0.3594,0.1719 0.7657,0.1719 h 5.1406 c 0.75,0 1.1094,-0.2812 1.1094,-0.8437 0,-0.2813 -0.1094,-0.5313 -0.3438,-0.7032 -0.1719,-0.125 -0.3125,-0.1562 -0.7656,-0.1562 h -1.7188 z"
       fill="#000000"
       id="path219" />
    <text
       fill="#000000"
       font-family="sans-serif"
       font-size="12px"
       font-style="italic"
       lengthAdjust="spacing"
       textLength="91"
       x="1780.5"
       y="61.154301"
       id="text221">CrossValidation</text>
    <line
       style="stroke:#a80036;stroke-width:1.5"
       x1="1752.5"
       x2="1873.5"
       y1="73"
       y2="73"
       id="line223" />
    <line
       style="stroke:#a80036;stroke-width:1.5"
       x1="1752.5"
       x2="1873.5"
       y1="81"
       y2="81"
       id="line225" />
    <rect
       codeLine="49"
       fill="#fefece"
       filter="url(#f12j7999z2q1nd)"
       height="48"
       id="ClassificationMetric"
       style="stroke:#a80036;stroke-width:1.5"
       width="146"
       x="1570"
       y="41" />
    <circle
       cx="1585"
       cy="57"
       fill="#b4a7e5"
       style="stroke:#a80036;stroke-width:1"
       id="ellipse228"
       r="11" />
    <path
       d="m 1585.9531,53.7813 h 1.7188 c 0.3906,0 0.5781,-0.0313 0.7031,-0.1094 0.2656,-0.1563 0.4063,-0.4375 0.4063,-0.7344 0,-0.2656 -0.1094,-0.5312 -0.3438,-0.7031 -0.1719,-0.1094 -0.3125,-0.1406 -0.7656,-0.1406 h -5.1406 c -0.4375,0 -0.5625,0.0156 -0.7188,0.1093 -0.25,0.1563 -0.4062,0.4532 -0.4062,0.7344 0,0.2813 0.1406,0.5313 0.3593,0.7031 0.1563,0.1094 0.3438,0.1407 0.7657,0.1407 h 1.7187 v 6.5156 h -1.7187 c -0.4375,0 -0.5625,0.0156 -0.7188,0.125 -0.25,0.1562 -0.4062,0.4375 -0.4062,0.7344 0,0.25 0.1406,0.5156 0.3593,0.6718 0.1563,0.125 0.3594,0.1719 0.7657,0.1719 h 5.1406 c 0.75,0 1.1094,-0.2812 1.1094,-0.8437 0,-0.2813 -0.1094,-0.5313 -0.3438,-0.7032 -0.1719,-0.125 -0.3125,-0.1562 -0.7656,-0.1562 h -1.7188 z"
       fill="#000000"
       id="path230" />
    <text
       fill="#000000"
       font-family="sans-serif"
       font-size="12px"
       font-style="italic"
       lengthAdjust="spacing"
       textLength="114"
       x="1599"
       y="61.154301"
       id="text232">ClassificationMetric</text>
    <line
       style="stroke:#a80036;stroke-width:1.5"
       x1="1571"
       x2="1715"
       y1="73"
       y2="73"
       id="line234" />
    <line
       style="stroke:#a80036;stroke-width:1.5"
       x1="1571"
       x2="1715"
       y1="81"
       y2="81"
       id="line236" />
    <rect
       codeLine="50"
       fill="#fefece"
       filter="url(#f12j7999z2q1nd)"
       height="48"
       id="RegressionMetric"
       style="stroke:#a80036;stroke-width:1.5"
       width="134"
       x="1401"
       y="41" />
    <circle
       cx="1416"
       cy="57"
       fill="#b4a7e5"
       style="stroke:#a80036;stroke-width:1"
       id="ellipse239"
       r="11" />
    <path
       d="m 1416.9531,53.7813 h 1.7188 c 0.3906,0 0.5781,-0.0313 0.7031,-0.1094 0.2656,-0.1563 0.4063,-0.4375 0.4063,-0.7344 0,-0.2656 -0.1094,-0.5312 -0.3438,-0.7031 -0.1719,-0.1094 -0.3125,-0.1406 -0.7656,-0.1406 h -5.1406 c -0.4375,0 -0.5625,0.0156 -0.7188,0.1093 -0.25,0.1563 -0.4062,0.4532 -0.4062,0.7344 0,0.2813 0.1406,0.5313 0.3593,0.7031 0.1563,0.1094 0.3438,0.1407 0.7657,0.1407 h 1.7187 v 6.5156 h -1.7187 c -0.4375,0 -0.5625,0.0156 -0.7188,0.125 -0.25,0.1562 -0.4062,0.4375 -0.4062,0.7344 0,0.25 0.1406,0.5156 0.3593,0.6718 0.1563,0.125 0.3594,0.1719 0.7657,0.1719 h 5.1406 c 0.75,0 1.1094,-0.2812 1.1094,-0.8437 0,-0.2813 -0.1094,-0.5313 -0.3438,-0.7032 -0.1719,-0.125 -0.3125,-0.1562 -0.7656,-0.1562 h -1.7188 z"
       fill="#000000"
       id="path241" />
    <text
       fill="#000000"
       font-family="sans-serif"
       font-size="12px"
       font-style="italic"
       lengthAdjust="spacing"
       textLength="102"
       x="1430"
       y="61.154301"
       id="text243">RegressionMetric</text>
    <line
       style="stroke:#a80036;stroke-width:1.5"
       x1="1402"
       x2="1534"
       y1="73"
       y2="73"
       id="line245" />
    <line
       style="stroke:#a80036;stroke-width:1.5"
       x1="1402"
       x2="1534"
       y1="81"
       y2="81"
       id="line247" />
    <rect
       fill="#fefece"
       filter="url(#f12j7999z2q1nd)"
       height="48"
       id="Accuracy"
       style="stroke:#a80036;stroke-width:1.5"
       width="87"
       x="1593.5"
       y="149" />
    <circle
       cx="1608.5"
       cy="165"
       fill="#add1b2"
       style="stroke:#a80036;stroke-width:1"
       id="ellipse250"
       r="11" />
    <path
       d="m 1610.8438,160.6719 c -0.9375,-0.4375 -1.5313,-0.5781 -2.4063,-0.5781 -2.625,0 -4.625,2.0781 -4.625,4.7968 v 1.125 c 0,2.5782 2.1094,4.4688 5,4.4688 1.2188,0 2.375,-0.2969 3.125,-0.8438 0.5781,-0.4062 0.9063,-0.8593 0.9063,-1.25 0,-0.4531 -0.3907,-0.8437 -0.8594,-0.8437 -0.2188,0 -0.4219,0.0781 -0.6094,0.2656 -0.4531,0.4844 -0.4531,0.4844 -0.6406,0.5781 -0.4219,0.2657 -1.1094,0.3907 -1.875,0.3907 -2.0469,0 -3.3438,-1.0938 -3.3438,-2.7969 v -1.0938 c 0,-1.7812 1.25,-3.0937 2.9844,-3.0937 0.5781,0 1.1875,0.1562 1.6563,0.4062 0.4843,0.2813 0.6562,0.5 0.75,0.9063 0.062,0.4062 0.094,0.5312 0.2343,0.6562 0.1407,0.1407 0.375,0.25 0.5938,0.25 0.2656,0 0.5312,-0.1406 0.7031,-0.3593 0.1094,-0.1563 0.1406,-0.3438 0.1406,-0.7657 v -1.4218 c 0,-0.4375 -0.016,-0.5625 -0.1093,-0.7188 -0.1563,-0.2656 -0.4375,-0.4062 -0.7344,-0.4062 -0.2969,0 -0.5,0.0937 -0.7188,0.4062 z"
       fill="#000000"
       id="path252" />
    <text
       fill="#000000"
       font-family="sans-serif"
       font-size="12px"
       lengthAdjust="spacing"
       textLength="55"
       x="1622.5"
       y="169.1543"
       id="text254">Accuracy</text>
    <line
       style="stroke:#a80036;stroke-width:1.5"
       x1="1594.5"
       x2="1679.5"
       y1="181"
       y2="181"
       id="line256" />
    <line
       style="stroke:#a80036;stroke-width:1.5"
       x1="1594.5"
       x2="1679.5"
       y1="189"
       y2="189"
       id="line258" />
    <rect
       fill="#fefece"
       filter="url(#f12j7999z2q1nd)"
       height="48"
       id="FScore"
       style="stroke:#a80036;stroke-width:1.5"
       width="75"
       x="1715.5"
       y="149" />
    <circle
       cx="1730.5"
       cy="165"
       fill="#add1b2"
       style="stroke:#a80036;stroke-width:1"
       id="ellipse261"
       r="11" />
    <path
       d="m 1732.8438,160.6719 c -0.9375,-0.4375 -1.5313,-0.5781 -2.4063,-0.5781 -2.625,0 -4.625,2.0781 -4.625,4.7968 v 1.125 c 0,2.5782 2.1094,4.4688 5,4.4688 1.2188,0 2.375,-0.2969 3.125,-0.8438 0.5781,-0.4062 0.9063,-0.8593 0.9063,-1.25 0,-0.4531 -0.3907,-0.8437 -0.8594,-0.8437 -0.2188,0 -0.4219,0.0781 -0.6094,0.2656 -0.4531,0.4844 -0.4531,0.4844 -0.6406,0.5781 -0.4219,0.2657 -1.1094,0.3907 -1.875,0.3907 -2.0469,0 -3.3438,-1.0938 -3.3438,-2.7969 v -1.0938 c 0,-1.7812 1.25,-3.0937 2.9844,-3.0937 0.5781,0 1.1875,0.1562 1.6563,0.4062 0.4843,0.2813 0.6562,0.5 0.75,0.9063 0.062,0.4062 0.094,0.5312 0.2343,0.6562 0.1407,0.1407 0.375,0.25 0.5938,0.25 0.2656,0 0.5312,-0.1406 0.7031,-0.3593 0.1094,-0.1563 0.1406,-0.3438 0.1406,-0.7657 v -1.4218 c 0,-0.4375 -0.016,-0.5625 -0.1093,-0.7188 -0.1563,-0.2656 -0.4375,-0.4062 -0.7344,-0.4062 -0.2969,0 -0.5,0.0937 -0.7188,0.4062 z"
       fill="#000000"
       id="path263" />
    <text
       fill="#000000"
       font-family="sans-serif"
       font-size="12px"
       lengthAdjust="spacing"
       textLength="43"
       x="1744.5"
       y="169.1543"
       id="text265">FScore</text>
    <line
       style="stroke:#a80036;stroke-width:1.5"
       x1="1716.5"
       x2="1789.5"
       y1="181"
       y2="181"
       id="line267" />
    <line
       style="stroke:#a80036;stroke-width:1.5"
       x1="1716.5"
       x2="1789.5"
       y1="189"
       y2="189"
       id="line269" />
    <rect
       fill="#fefece"
       filter="url(#f12j7999z2q1nd)"
       height="48"
       id="MSE"
       style="stroke:#a80036;stroke-width:1.5"
       width="57"
       x="1413.5"
       y="149" />
    <circle
       cx="1428.5"
       cy="165"
       fill="#add1b2"
       style="stroke:#a80036;stroke-width:1"
       id="ellipse272"
       r="11" />
    <path
       d="m 1430.8438,160.6719 c -0.9375,-0.4375 -1.5313,-0.5781 -2.4063,-0.5781 -2.625,0 -4.625,2.0781 -4.625,4.7968 v 1.125 c 0,2.5782 2.1094,4.4688 5,4.4688 1.2188,0 2.375,-0.2969 3.125,-0.8438 0.5781,-0.4062 0.9063,-0.8593 0.9063,-1.25 0,-0.4531 -0.3907,-0.8437 -0.8594,-0.8437 -0.2188,0 -0.4219,0.0781 -0.6094,0.2656 -0.4531,0.4844 -0.4531,0.4844 -0.6406,0.5781 -0.4219,0.2657 -1.1094,0.3907 -1.875,0.3907 -2.0469,0 -3.3438,-1.0938 -3.3438,-2.7969 v -1.0938 c 0,-1.7812 1.25,-3.0937 2.9844,-3.0937 0.5781,0 1.1875,0.1562 1.6563,0.4062 0.4843,0.2813 0.6562,0.5 0.75,0.9063 0.062,0.4062 0.094,0.5312 0.2343,0.6562 0.1407,0.1407 0.375,0.25 0.5938,0.25 0.2656,0 0.5312,-0.1406 0.7031,-0.3593 0.1094,-0.1563 0.1406,-0.3438 0.1406,-0.7657 v -1.4218 c 0,-0.4375 -0.016,-0.5625 -0.1093,-0.7188 -0.1563,-0.2656 -0.4375,-0.4062 -0.7344,-0.4062 -0.2969,0 -0.5,0.0937 -0.7188,0.4062 z"
       fill="#000000"
       id="path274" />
    <text
       fill="#000000"
       font-family="sans-serif"
       font-size="12px"
       lengthAdjust="spacing"
       textLength="25"
       x="1442.5"
       y="169.1543"
       id="text276">MSE</text>
    <line
       style="stroke:#a80036;stroke-width:1.5"
       x1="1414.5"
       x2="1469.5"
       y1="181"
       y2="181"
       id="line278" />
    <line
       style="stroke:#a80036;stroke-width:1.5"
       x1="1414.5"
       x2="1469.5"
       y1="189"
       y2="189"
       id="line280" />
    <rect
       fill="#fefece"
       filter="url(#f12j7999z2q1nd)"
       height="48"
       id="R2"
       style="stroke:#a80036;stroke-width:1.5"
       width="47"
       x="1505.5"
       y="149" />
    <circle
       cx="1520.5"
       cy="165"
       fill="#add1b2"
       style="stroke:#a80036;stroke-width:1"
       id="ellipse283"
       r="11" />
    <path
       d="m 1522.8438,160.6719 c -0.9375,-0.4375 -1.5313,-0.5781 -2.4063,-0.5781 -2.625,0 -4.625,2.0781 -4.625,4.7968 v 1.125 c 0,2.5782 2.1094,4.4688 5,4.4688 1.2188,0 2.375,-0.2969 3.125,-0.8438 0.5781,-0.4062 0.9063,-0.8593 0.9063,-1.25 0,-0.4531 -0.3907,-0.8437 -0.8594,-0.8437 -0.2188,0 -0.4219,0.0781 -0.6094,0.2656 -0.4531,0.4844 -0.4531,0.4844 -0.6406,0.5781 -0.4219,0.2657 -1.1094,0.3907 -1.875,0.3907 -2.0469,0 -3.3438,-1.0938 -3.3438,-2.7969 v -1.0938 c 0,-1.7812 1.25,-3.0937 2.9844,-3.0937 0.5781,0 1.1875,0.1562 1.6563,0.4062 0.4843,0.2813 0.6562,0.5 0.75,0.9063 0.062,0.4062 0.094,0.5312 0.2343,0.6562 0.1407,0.1407 0.375,0.25 0.5938,0.25 0.2656,0 0.5312,-0.1406 0.7031,-0.3593 0.1094,-0.1563 0.1406,-0.3438 0.1406,-0.7657 v -1.4218 c 0,-0.4375 -0.016,-0.5625 -0.1093,-0.7188 -0.1563,-0.2656 -0.4375,-0.4062 -0.7344,-0.4062 -0.2969,0 -0.5,0.0937 -0.7188,0.4062 z"
       fill="#000000"
       id="path285" />
    <text
       fill="#000000"
       font-family="sans-serif"
       font-size="12px"
       lengthAdjust="spacing"
       textLength="15"
       x="1534.5"
       y="169.1543"
       id="text287">R2</text>
    <line
       style="stroke:#a80036;stroke-width:1.5"
       x1="1506.5"
       x2="1551.5"
       y1="181"
       y2="181"
       id="line289" />
    <line
       style="stroke:#a80036;stroke-width:1.5"
       x1="1506.5"
       x2="1551.5"
       y1="189"
       y2="189"
       id="line291" />
    <path
       codeLine="52"
       d="m 1640.56,109.024 c -0.76,13.555 -1.58,28.0141 -2.24,39.6544"
       fill="none"
       id="ClassificationMetric-backto-Accuracy"
       style="stroke:#a80036;stroke-width:1" />
    <polygon
       fill="none"
       points="1641.7,89 1647.56,109.364 1633.58,108.573 "
       style="stroke:#a80036;stroke-width:1"
       id="polygon379" />
    <path
       codeLine="53"
       d="m 1681.69,103.28 c 15.68,15.111 33.3,32.0952 47.11,45.3984"
       fill="none"
       id="ClassificationMetric-backto-FScore"
       style="stroke:#a80036;stroke-width:1" />
    <polygon
       fill="none"
       points="1666.87,89 1686.13,97.838 1676.41,107.919 "
       style="stroke:#a80036;stroke-width:1"
       id="polygon382" />
    <path
       codeLine="55"
       d="m 1457.57,108.54 c -3.36,13.695 -6.96,28.3595 -9.85,40.1384"
       fill="none"
       id="RegressionMetric-backto-MSE"
       style="stroke:#a80036;stroke-width:1" />
    <polygon
       fill="none"
       points="1462.36,89 1464.39,110.092 1450.8,106.757 "
       style="stroke:#a80036;stroke-width:1"
       id="polygon385" />
    <path
       codeLine="56"
       d="m 1491.37,106.613 c 8.19,14.235 17.11,29.7322 24.21,42.0654"
       fill="none"
       id="RegressionMetric-backto-R2"
       style="stroke:#a80036;stroke-width:1" />
    <polygon
       fill="none"
       points="1481.24,89 1497.28,102.844 1485.14,109.826 "
       style="stroke:#a80036;stroke-width:1"
       id="polygon388" />
  </g>
  <g
     id="g1095"
     transform="translate(-932.72843,290.05312)">
    <polygon
       fill="#ffffff"
       filter="url(#f12j7999z2q1nd)"
       points="1915,213 1915,6 2029,6 2036,28.2969 2295,28.2969 2295,213 "
       style="stroke:#000000;stroke-width:1.5"
       id="polygon43" />
    <line
       style="stroke:#000000;stroke-width:1.5"
       x1="1915"
       x2="2036"
       y1="28.2969"
       y2="28.2969"
       id="line45" />
    <text
       fill="#000000"
       font-family="sans-serif"
       font-size="14px"
       font-weight="bold"
       lengthAdjust="spacing"
       textLength="108"
       x="1919"
       y="20.9951"
       id="text47">smile.feature</text>
    <rect
       codeLine="60"
       fill="#fefece"
       filter="url(#f12j7999z2q1nd)"
       height="48"
       id="FeatureTransform"
       style="stroke:#a80036;stroke-width:1.5"
       width="139"
       x="2029.5"
       y="41" />
    <circle
       cx="2044.5"
       cy="57"
       fill="#b4a7e5"
       style="stroke:#a80036;stroke-width:1"
       id="ellipse294"
       r="11" />
    <path
       d="m 2045.4531,53.7813 h 1.7188 c 0.3906,0 0.5781,-0.0313 0.7031,-0.1094 0.2656,-0.1563 0.4063,-0.4375 0.4063,-0.7344 0,-0.2656 -0.1094,-0.5312 -0.3438,-0.7031 -0.1719,-0.1094 -0.3125,-0.1406 -0.7656,-0.1406 h -5.1406 c -0.4375,0 -0.5625,0.0156 -0.7188,0.1093 -0.25,0.1563 -0.4062,0.4532 -0.4062,0.7344 0,0.2813 0.1406,0.5313 0.3593,0.7031 0.1563,0.1094 0.3438,0.1407 0.7657,0.1407 h 1.7187 v 6.5156 h -1.7187 c -0.4375,0 -0.5625,0.0156 -0.7188,0.125 -0.25,0.1562 -0.4062,0.4375 -0.4062,0.7344 0,0.25 0.1406,0.5156 0.3593,0.6718 0.1563,0.125 0.3594,0.1719 0.7657,0.1719 h 5.1406 c 0.75,0 1.1094,-0.2812 1.1094,-0.8437 0,-0.2813 -0.1094,-0.5313 -0.3438,-0.7032 -0.1719,-0.125 -0.3125,-0.1562 -0.7656,-0.1562 h -1.7188 z"
       fill="#000000"
       id="path296" />
    <text
       fill="#000000"
       font-family="sans-serif"
       font-size="12px"
       font-style="italic"
       lengthAdjust="spacing"
       textLength="107"
       x="2058.5"
       y="61.154301"
       id="text298">FeatureTransform</text>
    <line
       style="stroke:#a80036;stroke-width:1.5"
       x1="2030.5"
       x2="2167.5"
       y1="73"
       y2="73"
       id="line300" />
    <line
       style="stroke:#a80036;stroke-width:1.5"
       x1="2030.5"
       x2="2167.5"
       y1="81"
       y2="81"
       id="line302" />
    <rect
       fill="#fefece"
       filter="url(#f12j7999z2q1nd)"
       height="48"
       id="Normalizer"
       style="stroke:#a80036;stroke-width:1.5"
       width="97"
       x="1931.5"
       y="149" />
    <text
       fill="#000000"
       font-family="sans-serif"
       font-size="12px"
       lengthAdjust="spacing"
       textLength="65"
       x="1960.5"
       y="169.1543"
       id="text309">Normalizer</text>
    <line
       style="stroke:#a80036;stroke-width:1.5"
       x1="1932.5"
       x2="2027.5"
       y1="181"
       y2="181"
       id="line311" />
    <line
       style="stroke:#a80036;stroke-width:1.5"
       x1="1932.5"
       x2="2027.5"
       y1="189"
       y2="189"
       id="line313" />
    <rect
       fill="#fefece"
       filter="url(#f12j7999z2q1nd)"
       height="48"
       id="Scaler"
       style="stroke:#a80036;stroke-width:1.5"
       width="70"
       x="2064"
       y="149" />
    <circle
       cx="2079"
       cy="165"
       fill="#add1b2"
       style="stroke:#a80036;stroke-width:1"
       id="ellipse316"
       r="11" />
    <path
       d="m 2081.3438,160.6719 c -0.9375,-0.4375 -1.5313,-0.5781 -2.4063,-0.5781 -2.625,0 -4.625,2.0781 -4.625,4.7968 v 1.125 c 0,2.5782 2.1094,4.4688 5,4.4688 1.2188,0 2.375,-0.2969 3.125,-0.8438 0.5781,-0.4062 0.9063,-0.8593 0.9063,-1.25 0,-0.4531 -0.3907,-0.8437 -0.8594,-0.8437 -0.2188,0 -0.4219,0.0781 -0.6094,0.2656 -0.4531,0.4844 -0.4531,0.4844 -0.6406,0.5781 -0.4219,0.2657 -1.1094,0.3907 -1.875,0.3907 -2.0469,0 -3.3438,-1.0938 -3.3438,-2.7969 v -1.0938 c 0,-1.7812 1.25,-3.0937 2.9844,-3.0937 0.5781,0 1.1875,0.1562 1.6563,0.4062 0.4843,0.2813 0.6562,0.5 0.75,0.9063 0.062,0.4062 0.094,0.5312 0.2343,0.6562 0.1407,0.1407 0.375,0.25 0.5938,0.25 0.2656,0 0.5312,-0.1406 0.7031,-0.3593 0.1094,-0.1563 0.1406,-0.3438 0.1406,-0.7657 v -1.4218 c 0,-0.4375 -0.016,-0.5625 -0.1093,-0.7188 -0.1563,-0.2656 -0.4375,-0.4062 -0.7344,-0.4062 -0.2969,0 -0.5,0.0937 -0.7188,0.4062 z"
       fill="#000000"
       id="path318" />
    <text
       fill="#000000"
       font-family="sans-serif"
       font-size="12px"
       lengthAdjust="spacing"
       textLength="38"
       x="2093"
       y="169.1543"
       id="text320">Scaler</text>
    <line
       style="stroke:#a80036;stroke-width:1.5"
       x1="2065"
       x2="2133"
       y1="181"
       y2="181"
       id="line322" />
    <line
       style="stroke:#a80036;stroke-width:1.5"
       x1="2065"
       x2="2133"
       y1="189"
       y2="189"
       id="line324" />
    <rect
       fill="#fefece"
       filter="url(#f12j7999z2q1nd)"
       height="48"
       id="Standardizer"
       style="stroke:#a80036;stroke-width:1.5"
       width="109"
       x="2169.5"
       y="149" />
    <circle
       cx="2184.5"
       cy="165"
       fill="#add1b2"
       style="stroke:#a80036;stroke-width:1"
       id="ellipse327"
       r="11" />
    <path
       d="m 2186.8438,160.6719 c -0.9375,-0.4375 -1.5313,-0.5781 -2.4063,-0.5781 -2.625,0 -4.625,2.0781 -4.625,4.7968 v 1.125 c 0,2.5782 2.1094,4.4688 5,4.4688 1.2188,0 2.375,-0.2969 3.125,-0.8438 0.5781,-0.4062 0.9063,-0.8593 0.9063,-1.25 0,-0.4531 -0.3907,-0.8437 -0.8594,-0.8437 -0.2188,0 -0.4219,0.0781 -0.6094,0.2656 -0.4531,0.4844 -0.4531,0.4844 -0.6406,0.5781 -0.4219,0.2657 -1.1094,0.3907 -1.875,0.3907 -2.0469,0 -3.3438,-1.0938 -3.3438,-2.7969 v -1.0938 c 0,-1.7812 1.25,-3.0937 2.9844,-3.0937 0.5781,0 1.1875,0.1562 1.6563,0.4062 0.4843,0.2813 0.6562,0.5 0.75,0.9063 0.062,0.4062 0.094,0.5312 0.2343,0.6562 0.1407,0.1407 0.375,0.25 0.5938,0.25 0.2656,0 0.5312,-0.1406 0.7031,-0.3593 0.1094,-0.1563 0.1406,-0.3438 0.1406,-0.7657 v -1.4218 c 0,-0.4375 -0.016,-0.5625 -0.1093,-0.7188 -0.1563,-0.2656 -0.4375,-0.4062 -0.7344,-0.4062 -0.2969,0 -0.5,0.0937 -0.7188,0.4062 z"
       fill="#000000"
       id="path329" />
    <text
       fill="#000000"
       font-family="sans-serif"
       font-size="12px"
       lengthAdjust="spacing"
       textLength="77"
       x="2198.5"
       y="169.1543"
       id="text331">Standardizer</text>
    <line
       style="stroke:#a80036;stroke-width:1.5"
       x1="2170.5"
       x2="2277.5"
       y1="181"
       y2="181"
       id="line333" />
    <line
       style="stroke:#a80036;stroke-width:1.5"
       x1="2170.5"
       x2="2277.5"
       y1="189"
       y2="189"
       id="line335" />
    <circle
       cx="1946.5"
       cy="165"
       fill="#add1b2"
       style="stroke:#a80036;stroke-width:1"
       id="ellipse305"
       r="11" />
    <path
       d="m 1948.8438,160.6719 c -0.9375,-0.4375 -1.5313,-0.5781 -2.4063,-0.5781 -2.625,0 -4.625,2.0781 -4.625,4.7968 v 1.125 c 0,2.5782 2.1094,4.4688 5,4.4688 1.2188,0 2.375,-0.2969 3.125,-0.8438 0.5781,-0.4062 0.9063,-0.8593 0.9063,-1.25 0,-0.4531 -0.3907,-0.8437 -0.8594,-0.8437 -0.2188,0 -0.4219,0.0781 -0.6094,0.2656 -0.4531,0.4844 -0.4531,0.4844 -0.6406,0.5781 -0.4219,0.2657 -1.1094,0.3907 -1.875,0.3907 -2.0469,0 -3.3438,-1.0938 -3.3438,-2.7969 v -1.0938 c 0,-1.7812 1.25,-3.0937 2.9844,-3.0937 0.5781,0 1.1875,0.1562 1.6563,0.4062 0.4843,0.2813 0.6562,0.5 0.75,0.9063 0.062,0.4062 0.094,0.5312 0.2343,0.6562 0.1407,0.1407 0.375,0.25 0.5938,0.25 0.2656,0 0.5312,-0.1406 0.7031,-0.3593 0.1094,-0.1563 0.1406,-0.3438 0.1406,-0.7657 v -1.4218 c 0,-0.4375 -0.016,-0.5625 -0.1093,-0.7188 -0.1563,-0.2656 -0.4375,-0.4062 -0.7344,-0.4062 -0.2969,0 -0.5,0.0937 -0.7188,0.4062 z"
       fill="#000000"
       id="path307" />
    <path
       codeLine="62"
       d="m 2058.21,102.338 c -17.23,15.343 -36.78,32.76 -52.03,46.3404"
       fill="none"
       id="FeatureTransform-backto-Normalizer"
       style="stroke:#a80036;stroke-width:1" />
    <polygon
       fill="none"
       points="2062.9,107.53 2053.59,97.076 2073.18,89 "
       style="stroke:#a80036;stroke-width:1"
       id="polygon391" />
    <path
       codeLine="63"
       d="m 2099,109.024 c 0,13.555 0,28.0141 0,39.6544"
       fill="none"
       id="FeatureTransform-backto-Scaler"
       style="stroke:#a80036;stroke-width:1" />
    <polygon
       fill="none"
       points="2106,109 2092,109 2099,89 "
       style="stroke:#a80036;stroke-width:1"
       id="polygon394" />
    <path
       codeLine="64"
       d="m 2141.58,102.104 c 18.16,15.399 38.82,32.9248 54.92,46.5744"
       fill="none"
       id="FeatureTransform-backto-Standardizer"
       style="stroke:#a80036;stroke-width:1" />
    <polygon
       fill="none"
       points="2145.9,96.597 2136.85,107.275 2126.12,89 "
       style="stroke:#a80036;stroke-width:1"
       id="polygon397" />
  </g>
</svg>
