<?xml version="1.0" encoding="UTF-8" standalone="no"?>
<svg xmlns="http://www.w3.org/2000/svg" xmlns:xlink="http://www.w3.org/1999/xlink" contentScriptType="application/ecmascript" contentStyleType="text/css" height="347px" preserveAspectRatio="none" style="width:387px;height:347px;" version="1.1" viewBox="0 0 387 347" width="387px" zoomAndPan="magnify"><defs><filter height="300%" id="f13dx8ctzgv4gg" width="300%" x="-1" y="-1"><feGaussianBlur result="blurOut" stdDeviation="2.0"/><feColorMatrix in="blurOut" result="blurOut2" type="matrix" values="0 0 0 0 0 0 0 0 0 0 0 0 0 0 0 0 0 0 .4 0"/><feOffset dx="4.0" dy="4.0" in="blurOut2" result="blurOut3"/><feBlend in="SourceGraphic" in2="blurOut3" mode="normal"/></filter></defs><g><rect fill="#FFFFFF" filter="url(#f13dx8ctzgv4gg)" height="231.9297" style="stroke:#A80036;stroke-width:1.0;" width="10" x="33.5" y="98.2969"/><rect fill="#FFFFFF" filter="url(#f13dx8ctzgv4gg)" height="71.2656" style="stroke:#A80036;stroke-width:1.0;" width="10" x="198.5" y="119.4297"/><rect fill="#FFFFFF" filter="url(#f13dx8ctzgv4gg)" height="71.2656" style="stroke:#A80036;stroke-width:1.0;" width="10" x="198.5" y="243.9609"/><rect fill="#FFFFFF" filter="url(#f13dx8ctzgv4gg)" height="117.5313" style="stroke:#000000;stroke-width:2.0;" width="363.5" x="10" y="205.6953"/><line style="stroke:#A80036;stroke-width:1.0;stroke-dasharray:5.0,5.0;" x1="38" x2="38" y1="88.2969" y2="340.2266"/><line style="stroke:#A80036;stroke-width:1.0;stroke-dasharray:5.0,5.0;" x1="203" x2="203" y1="88.2969" y2="340.2266"/><text fill="#000000" font-family="sans-serif" font-size="14" lengthAdjust="spacingAndGlyphs" textLength="31" x="20" y="84.9951">User</text><ellipse cx="38.5" cy="15" fill="#FEFECE" filter="url(#f13dx8ctzgv4gg)" rx="8" ry="8" style="stroke:#A80036;stroke-width:2.0;"/><path d="M38.5,23 L38.5,50 M25.5,31 L51.5,31 M38.5,50 L25.5,65 M38.5,50 L51.5,65 " fill="none" filter="url(#f13dx8ctzgv4gg)" style="stroke:#A80036;stroke-width:2.0;"/><text fill="#000000" font-family="sans-serif" font-size="14" lengthAdjust="spacingAndGlyphs" textLength="45" x="178" y="84.9951">Solver</text><ellipse cx="203.5" cy="56" fill="#FEFECE" filter="url(#f13dx8ctzgv4gg)" rx="12" ry="12" style="stroke:#A80036;stroke-width:2.0;"/><polygon fill="#A80036" points="199.5,44,205.5,39,203.5,44,205.5,49,199.5,44" style="stroke:#A80036;stroke-width:1.0;"/><rect fill="#FFFFFF" filter="url(#f13dx8ctzgv4gg)" height="231.9297" style="stroke:#A80036;stroke-width:1.0;" width="10" x="33.5" y="98.2969"/><rect fill="#FFFFFF" filter="url(#f13dx8ctzgv4gg)" height="71.2656" style="stroke:#A80036;stroke-width:1.0;" width="10" x="198.5" y="119.4297"/><rect fill="#FFFFFF" filter="url(#f13dx8ctzgv4gg)" height="71.2656" style="stroke:#A80036;stroke-width:1.0;" width="10" x="198.5" y="243.9609"/><polygon fill="#A80036" points="186.5,115.4297,196.5,119.4297,186.5,123.4297,190.5,119.4297" style="stroke:#A80036;stroke-width:1.0;"/><line style="stroke:#A80036;stroke-width:1.0;" x1="43.5" x2="192.5" y1="119.4297" y2="119.4297"/><text fill="#000000" font-family="sans-serif" font-size="13" lengthAdjust="spacingAndGlyphs" textLength="73" x="50.5" y="114.3638">solve(Goal)</text><line style="stroke:#A80036;stroke-width:1.0;" x1="208.5" x2="250.5" y1="148.5625" y2="148.5625"/><line style="stroke:#A80036;stroke-width:1.0;" x1="250.5" x2="250.5" y1="148.5625" y2="161.5625"/><line style="stroke:#A80036;stroke-width:1.0;" x1="209.5" x2="250.5" y1="161.5625" y2="161.5625"/><polygon fill="#A80036" points="219.5,157.5625,209.5,161.5625,219.5,165.5625,215.5,161.5625" style="stroke:#A80036;stroke-width:1.0;"/><text fill="#000000" font-family="sans-serif" font-size="13" font-style="italic" lengthAdjust="spacingAndGlyphs" textLength="143" x="215.5" y="143.4966">compute first solution</text><polygon fill="#A80036" points="54.5,186.6953,44.5,190.6953,54.5,194.6953,50.5,190.6953" style="stroke:#A80036;stroke-width:1.0;"/><line style="stroke:#A80036;stroke-width:1.0;stroke-dasharray:2.0,2.0;" x1="48.5" x2="202.5" y1="190.6953" y2="190.6953"/><text fill="#000000" font-family="sans-serif" font-size="13" lengthAdjust="spacingAndGlyphs" textLength="101" x="60.5" y="185.6294">solution(Unifier)</text><path d="M10,205.6953 L88,205.6953 L88,212.6953 L78,222.6953 L10,222.6953 L10,205.6953 " fill="#EEEEEE" style="stroke:#000000;stroke-width:1.0;"/><rect fill="none" height="117.5313" style="stroke:#000000;stroke-width:2.0;" width="363.5" x="10" y="205.6953"/><text fill="#000000" font-family="sans-serif" font-size="13" font-weight="bold" lengthAdjust="spacingAndGlyphs" textLength="33" x="25" y="218.7622">loop</text><text fill="#000000" font-family="sans-serif" font-size="11" font-weight="bold" lengthAdjust="spacingAndGlyphs" textLength="5" x="103" y="217.9058">[</text><text fill="#000000" font-family="sans-serif" font-size="11" font-style="italic" font-weight="bold" lengthAdjust="spacingAndGlyphs" textLength="189" x="108" y="217.9058">do while last Substitution ≠ ⊥</text><text fill="#000000" font-family="sans-serif" font-size="11" font-weight="bold" lengthAdjust="spacingAndGlyphs" textLength="5" x="297" y="217.9058">]</text><polygon fill="#A80036" points="186.5,239.9609,196.5,243.9609,186.5,247.9609,190.5,243.9609" style="stroke:#A80036;stroke-width:1.0;"/><line style="stroke:#A80036;stroke-width:1.0;" x1="43.5" x2="192.5" y1="243.9609" y2="243.9609"/><text fill="#000000" font-family="sans-serif" font-size="13" lengthAdjust="spacingAndGlyphs" textLength="39" x="50.5" y="238.895">next()</text><line style="stroke:#A80036;stroke-width:1.0;" x1="208.5" x2="250.5" y1="273.0938" y2="273.0938"/><line style="stroke:#A80036;stroke-width:1.0;" x1="250.5" x2="250.5" y1="273.0938" y2="286.0938"/><line style="stroke:#A80036;stroke-width:1.0;" x1="209.5" x2="250.5" y1="286.0938" y2="286.0938"/><polygon fill="#A80036" points="219.5,282.0938,209.5,286.0938,219.5,290.0938,215.5,286.0938" style="stroke:#A80036;stroke-width:1.0;"/><text fill="#000000" font-family="sans-serif" font-size="13" font-style="italic" lengthAdjust="spacingAndGlyphs" textLength="146" x="215.5" y="268.0278">compute next solution</text><polygon fill="#A80036" points="54.5,311.2266,44.5,315.2266,54.5,319.2266,50.5,315.2266" style="stroke:#A80036;stroke-width:1.0;"/><line style="stroke:#A80036;stroke-width:1.0;stroke-dasharray:2.0,2.0;" x1="48.5" x2="202.5" y1="315.2266" y2="315.2266"/><text fill="#000000" font-family="sans-serif" font-size="13" lengthAdjust="spacingAndGlyphs" textLength="131" x="60.5" y="310.1606">solution(Substituion)</text><!--MD5=[3587cfb08ff41a854c5030c71dd1657f]
@startuml
hide footbox

actor User
control Solver

activate User
User -> Solver: solve(Goal)
activate Solver

Solver -> Solver: //compute first solution//

Solver - -> User: solution(Unifier)
deactivate Solver

loop //do while last Substitution ≠ ⊥//
User -> Solver: next()
activate Solver
Solver -> Solver: //compute next solution//
Solver - -> User: solution(Substituion)
deactivate Solver
end
deactivate User
@enduml

PlantUML version 1.2020.27beta1(Unknown compile time)
(GPL source distribution)
Java Runtime: Java(TM) SE Runtime Environment
JVM: Java HotSpot(TM) 64-Bit Server VM
Default Encoding: UTF-8
Language: en
Country: US
--></g></svg>