<?xml version="1.0" encoding="UTF-8" standalone="no"?>
<svg xmlns="http://www.w3.org/2000/svg" xmlns:xlink="http://www.w3.org/1999/xlink" contentScriptType="application/ecmascript" contentStyleType="text/css" height="441px" preserveAspectRatio="none" style="width:422px;height:441px;" version="1.1" viewBox="0 0 422 441" width="422px" zoomAndPan="magnify"><defs><filter height="300%" id="f3gqgluz9bacj" width="300%" x="-1" y="-1"><feGaussianBlur result="blurOut" stdDeviation="2.0"/><feColorMatrix in="blurOut" result="blurOut2" type="matrix" values="0 0 0 0 0 0 0 0 0 0 0 0 0 0 0 0 0 0 .4 0"/><feOffset dx="4.0" dy="4.0" in="blurOut2" result="blurOut3"/><feBlend in="SourceGraphic" in2="blurOut3" mode="normal"/></filter></defs><g><rect fill="#FFFFFF" filter="url(#f3gqgluz9bacj)" height="318.1953" style="stroke:#A80036;stroke-width:1.0;" width="10" x="232" y="98.4297"/><line style="stroke:#A80036;stroke-width:1.0;stroke-dasharray:5.0,5.0;" x1="236.5" x2="236.5" y1="67.2969" y2="434.625"/><line style="stroke:#A80036;stroke-width:1.0;stroke-dasharray:5.0,5.0;" x1="392" x2="392" y1="67.2969" y2="434.625"/><text fill="#000000" font-family="sans-serif" font-size="14" lengthAdjust="spacingAndGlyphs" textLength="45" x="211.5" y="63.9951">Solver</text><ellipse cx="237" cy="35" fill="#FEFECE" filter="url(#f3gqgluz9bacj)" rx="12" ry="12" style="stroke:#A80036;stroke-width:2.0;"/><polygon fill="#A80036" points="233,23,239,18,237,23,239,28,233,23" style="stroke:#A80036;stroke-width:1.0;"/><text fill="#000000" font-family="sans-serif" font-size="14" lengthAdjust="spacingAndGlyphs" textLength="20" x="379" y="63.9951">KB</text><path d="M374,15 C374,5 392,5 392,5 C392,5 410,5 410,15 L410,41 C410,51 392,51 392,51 C392,51 374,51 374,41 L374,15 " fill="#FEFECE" filter="url(#f3gqgluz9bacj)" style="stroke:#000000;stroke-width:1.5;"/><path d="M374,15 C374,25 392,25 392,25 C392,25 410,25 410,15 " fill="none" style="stroke:#000000;stroke-width:1.5;"/><rect fill="#FFFFFF" filter="url(#f3gqgluz9bacj)" height="318.1953" style="stroke:#A80036;stroke-width:1.0;" width="10" x="232" y="98.4297"/><polygon fill="#A80036" points="220,94.4297,230,98.4297,220,102.4297,224,98.4297" style="stroke:#A80036;stroke-width:1.0;"/><line style="stroke:#A80036;stroke-width:1.0;" x1="0" x2="226" y1="98.4297" y2="98.4297"/><text fill="#000000" font-family="sans-serif" font-size="13" font-style="italic" lengthAdjust="spacingAndGlyphs" textLength="205" x="11" y="93.3638">request of i-th Solution for Goal</text><rect fill="#EEEEEE" filter="url(#f3gqgluz9bacj)" height="3" style="stroke:#EEEEEE;stroke-width:1.0;" width="415" x="0" y="126.9961"/><line style="stroke:#000000;stroke-width:1.0;" x1="0" x2="415" y1="126.9961" y2="126.9961"/><line style="stroke:#000000;stroke-width:1.0;" x1="0" x2="415" y1="129.9961" y2="129.9961"/><rect fill="#EEEEEE" filter="url(#f3gqgluz9bacj)" height="23.1328" style="stroke:#000000;stroke-width:2.0;" width="156" x="129.5" y="116.4297"/><text fill="#000000" font-family="sans-serif" font-size="13" font-weight="bold" lengthAdjust="spacingAndGlyphs" textLength="137" x="135.5" y="132.4966">Behind the scenes</text><polygon fill="#A80036" points="380,166.6953,390,170.6953,380,174.6953,384,170.6953" style="stroke:#A80036;stroke-width:1.0;"/><line style="stroke:#A80036;stroke-width:1.0;" x1="242" x2="386" y1="170.6953" y2="170.6953"/><text fill="#000000" font-family="sans-serif" font-size="13" lengthAdjust="spacingAndGlyphs" textLength="84" x="249" y="165.6294">get(SubGoal)</text><polygon fill="#A80036" points="253,195.8281,243,199.8281,253,203.8281,249,199.8281" style="stroke:#A80036;stroke-width:1.0;"/><line style="stroke:#A80036;stroke-width:1.0;stroke-dasharray:2.0,2.0;" x1="247" x2="391" y1="199.8281" y2="199.8281"/><text fill="#000000" font-family="sans-serif" font-size="13" font-style="italic" lengthAdjust="spacingAndGlyphs" textLength="118" x="263" y="194.7622">stream of Clauses</text><rect fill="#EEEEEE" filter="url(#f3gqgluz9bacj)" height="3" style="stroke:#EEEEEE;stroke-width:1.0;" width="415" x="0" y="228.3945"/><line style="stroke:#000000;stroke-width:1.0;" x1="0" x2="415" y1="228.3945" y2="228.3945"/><line style="stroke:#000000;stroke-width:1.0;" x1="0" x2="415" y1="231.3945" y2="231.3945"/><rect fill="#EEEEEE" filter="url(#f3gqgluz9bacj)" height="23.1328" style="stroke:#000000;stroke-width:2.0;" width="237" x="89" y="217.8281"/><text fill="#000000" font-family="sans-serif" font-size="13" font-weight="bold" lengthAdjust="spacingAndGlyphs" textLength="218" x="95" y="233.895">If new knowledge is acquired</text><polygon fill="#A80036" points="380,268.0938,390,272.0938,380,276.0938,384,272.0938" style="stroke:#A80036;stroke-width:1.0;"/><line style="stroke:#A80036;stroke-width:1.0;" x1="242" x2="386" y1="272.0938" y2="272.0938"/><text fill="#000000" font-family="sans-serif" font-size="13" lengthAdjust="spacingAndGlyphs" textLength="121" x="249" y="267.0278">assert(NewClause)</text><rect fill="#EEEEEE" filter="url(#f3gqgluz9bacj)" height="3" style="stroke:#EEEEEE;stroke-width:1.0;" width="415" x="0" y="300.6602"/><line style="stroke:#000000;stroke-width:1.0;" x1="0" x2="415" y1="300.6602" y2="300.6602"/><line style="stroke:#000000;stroke-width:1.0;" x1="0" x2="415" y1="303.6602" y2="303.6602"/><rect fill="#EEEEEE" filter="url(#f3gqgluz9bacj)" height="23.1328" style="stroke:#000000;stroke-width:2.0;" width="304" x="55.5" y="290.0938"/><text fill="#000000" font-family="sans-serif" font-size="13" font-weight="bold" lengthAdjust="spacingAndGlyphs" textLength="285" x="61.5" y="306.1606">If prior knowledge must be retracted</text><polygon fill="#A80036" points="380,340.3594,390,344.3594,380,348.3594,384,344.3594" style="stroke:#A80036;stroke-width:1.0;"/><line style="stroke:#A80036;stroke-width:1.0;" x1="242" x2="386" y1="344.3594" y2="344.3594"/><text fill="#000000" font-family="sans-serif" font-size="13" lengthAdjust="spacingAndGlyphs" textLength="117" x="249" y="339.2935">retract(OldClause)</text><rect fill="#EEEEEE" filter="url(#f3gqgluz9bacj)" height="3" style="stroke:#EEEEEE;stroke-width:1.0;" width="415" x="0" y="372.9258"/><line style="stroke:#000000;stroke-width:1.0;" x1="0" x2="415" y1="372.9258" y2="372.9258"/><line style="stroke:#000000;stroke-width:1.0;" x1="0" x2="415" y1="375.9258" y2="375.9258"/><rect fill="#EEEEEE" filter="url(#f3gqgluz9bacj)" height="23.1328" style="stroke:#000000;stroke-width:2.0;" width="203" x="106" y="362.3594"/><text fill="#000000" font-family="sans-serif" font-size="13" font-weight="bold" lengthAdjust="spacingAndGlyphs" textLength="184" x="112" y="378.4263">Once a solution is found</text><polygon fill="#A80036" points="11,412.625,1,416.625,11,420.625,7,416.625" style="stroke:#A80036;stroke-width:1.0;"/><line style="stroke:#A80036;stroke-width:1.0;stroke-dasharray:2.0,2.0;" x1="5" x2="236" y1="416.625" y2="416.625"/><text fill="#000000" font-family="sans-serif" font-size="13" font-style="italic" lengthAdjust="spacingAndGlyphs" textLength="79" x="17" y="411.5591">i-th Solution</text><!--MD5=[67347e3938337857d77407b345db3fc3]
@startuml
hide footbox

control Solver
database KB

[-> Solver: // request of i-th Solution for Goal //
activate Solver

== Behind the scenes ==

Solver -> KB: get(SubGoal)
KB - -> Solver: // stream of Clauses //

== If new knowledge is acquired ==

Solver -> KB: assert(NewClause)

== If prior knowledge must be retracted ==

Solver -> KB: retract(OldClause)

== Once a solution is found ==

[<- - Solver: //i-th Solution//
deactivate Solver
@enduml

PlantUML version 1.2020.27beta1(Unknown compile time)
(GPL source distribution)
Java Runtime: Java(TM) SE Runtime Environment
JVM: Java HotSpot(TM) 64-Bit Server VM
Default Encoding: UTF-8
Language: en
Country: US
--></g></svg>