<?xml version="1.0" encoding="UTF-8" standalone="no"?>
<svg xmlns="http://www.w3.org/2000/svg" xmlns:xlink="http://www.w3.org/1999/xlink" contentScriptType="application/ecmascript" contentStyleType="text/css" height="428px" preserveAspectRatio="none" style="width:436px;height:428px;" version="1.1" viewBox="0 0 436 428" width="436px" zoomAndPan="magnify"><defs><filter height="300%" id="f8fjgdldzirx5" width="300%" x="-1" y="-1"><feGaussianBlur result="blurOut" stdDeviation="2.0"/><feColorMatrix in="blurOut" result="blurOut2" type="matrix" values="0 0 0 0 0 0 0 0 0 0 0 0 0 0 0 0 0 0 .4 0"/><feOffset dx="4.0" dy="4.0" in="blurOut2" result="blurOut3"/><feBlend in="SourceGraphic" in2="blurOut3" mode="normal"/></filter></defs><g><rect fill="#FFFFFF" filter="url(#f8fjgdldzirx5)" height="314.6563" style="stroke:#A80036;stroke-width:1.0;" width="10" x="33.5" y="98.2969"/><rect fill="#FFFFFF" filter="url(#f8fjgdldzirx5)" height="94.7266" style="stroke:#A80036;stroke-width:1.0;" width="10" x="196.5" y="119.4297"/><rect fill="#FFFFFF" filter="url(#f8fjgdldzirx5)" height="71.2656" style="stroke:#A80036;stroke-width:1.0;" width="10" x="196.5" y="296.5547"/><rect fill="#FFFFFF" filter="url(#f8fjgdldzirx5)" height="129.5313" style="stroke:#A80036;stroke-width:1.0;" width="10" x="366.5" y="267.4219"/><rect fill="#FFFFFF" filter="url(#f8fjgdldzirx5)" height="175.7969" style="stroke:#000000;stroke-width:2.0;" width="412" x="10" y="229.1563"/><line style="stroke:#A80036;stroke-width:1.0;stroke-dasharray:5.0,5.0;" x1="38" x2="38" y1="88.2969" y2="421.9531"/><line style="stroke:#A80036;stroke-width:1.0;stroke-dasharray:5.0,5.0;" x1="201" x2="201" y1="88.2969" y2="421.9531"/><line style="stroke:#A80036;stroke-width:1.0;stroke-dasharray:5.0,5.0;" x1="371" x2="371" y1="170.2266" y2="421.9531"/><text fill="#000000" font-family="sans-serif" font-size="14" lengthAdjust="spacingAndGlyphs" textLength="31" x="20" y="84.9951">User</text><ellipse cx="38.5" cy="15" fill="#FEFECE" filter="url(#f8fjgdldzirx5)" rx="8" ry="8" style="stroke:#A80036;stroke-width:2.0;"/><path d="M38.5,23 L38.5,50 M25.5,31 L51.5,31 M38.5,50 L25.5,65 M38.5,50 L51.5,65 " fill="none" filter="url(#f8fjgdldzirx5)" style="stroke:#A80036;stroke-width:2.0;"/><text fill="#000000" font-family="sans-serif" font-size="14" lengthAdjust="spacingAndGlyphs" textLength="45" x="176" y="84.9951">Solver</text><ellipse cx="201.5" cy="56" fill="#FEFECE" filter="url(#f8fjgdldzirx5)" rx="12" ry="12" style="stroke:#A80036;stroke-width:2.0;"/><polygon fill="#A80036" points="197.5,44,203.5,39,201.5,44,203.5,49,197.5,44" style="stroke:#A80036;stroke-width:1.0;"/><rect fill="#FFFFFF" filter="url(#f8fjgdldzirx5)" height="314.6563" style="stroke:#A80036;stroke-width:1.0;" width="10" x="33.5" y="98.2969"/><rect fill="#FFFFFF" filter="url(#f8fjgdldzirx5)" height="94.7266" style="stroke:#A80036;stroke-width:1.0;" width="10" x="196.5" y="119.4297"/><rect fill="#FFFFFF" filter="url(#f8fjgdldzirx5)" height="71.2656" style="stroke:#A80036;stroke-width:1.0;" width="10" x="196.5" y="296.5547"/><rect fill="#FFFFFF" filter="url(#f8fjgdldzirx5)" height="129.5313" style="stroke:#A80036;stroke-width:1.0;" width="10" x="366.5" y="267.4219"/><polygon fill="#A80036" points="184.5,115.4297,194.5,119.4297,184.5,123.4297,188.5,119.4297" style="stroke:#A80036;stroke-width:1.0;"/><line style="stroke:#A80036;stroke-width:1.0;" x1="43.5" x2="190.5" y1="119.4297" y2="119.4297"/><text fill="#000000" font-family="sans-serif" font-size="13" lengthAdjust="spacingAndGlyphs" textLength="73" x="50.5" y="114.3638">solve(Goal)</text><polygon fill="#A80036" points="319,144.5625,329,148.5625,319,152.5625,323,148.5625" style="stroke:#A80036;stroke-width:1.0;"/><line style="stroke:#A80036;stroke-width:1.0;" x1="206.5" x2="325" y1="148.5625" y2="148.5625"/><text fill="#000000" font-family="sans-serif" font-size="13" font-style="italic" lengthAdjust="spacingAndGlyphs" textLength="41" x="213.5" y="143.4966">create</text><rect fill="#FEFECE" filter="url(#f8fjgdldzirx5)" height="46.5938" style="stroke:#A80036;stroke-width:1.5;" width="73" x="335" y="127.4297"/><rect fill="#FEFECE" filter="url(#f8fjgdldzirx5)" height="46.5938" style="stroke:#A80036;stroke-width:1.5;" width="73" x="331" y="131.4297"/><text fill="#000000" font-family="sans-serif" font-size="14" lengthAdjust="spacingAndGlyphs" textLength="59" x="338" y="151.4248">Solution</text><text fill="#000000" font-family="sans-serif" font-size="14" lengthAdjust="spacingAndGlyphs" textLength="53" x="341" y="167.7217">Stream</text><polygon fill="#A80036" points="54.5,210.1563,44.5,214.1563,54.5,218.1563,50.5,214.1563" style="stroke:#A80036;stroke-width:1.0;"/><line style="stroke:#A80036;stroke-width:1.0;stroke-dasharray:2.0,2.0;" x1="48.5" x2="200.5" y1="214.1563" y2="214.1563"/><text fill="#000000" font-family="sans-serif" font-size="13" font-style="italic" lengthAdjust="spacingAndGlyphs" textLength="129" x="60.5" y="209.0903">reference to stream</text><path d="M10,229.1563 L88,229.1563 L88,236.1563 L78,246.1563 L10,246.1563 L10,229.1563 " fill="#EEEEEE" style="stroke:#000000;stroke-width:1.0;"/><rect fill="none" height="175.7969" style="stroke:#000000;stroke-width:2.0;" width="412" x="10" y="229.1563"/><text fill="#000000" font-family="sans-serif" font-size="13" font-weight="bold" lengthAdjust="spacingAndGlyphs" textLength="33" x="25" y="242.2231">loop</text><text fill="#000000" font-family="sans-serif" font-size="11" font-weight="bold" lengthAdjust="spacingAndGlyphs" textLength="5" x="103" y="241.3667">[</text><text fill="#000000" font-family="sans-serif" font-size="11" font-style="italic" font-weight="bold" lengthAdjust="spacingAndGlyphs" textLength="189" x="108" y="241.3667">do while last Substitution ≠ ⊥</text><text fill="#000000" font-family="sans-serif" font-size="11" font-weight="bold" lengthAdjust="spacingAndGlyphs" textLength="5" x="297" y="241.3667">]</text><polygon fill="#A80036" points="354.5,263.4219,364.5,267.4219,354.5,271.4219,358.5,267.4219" style="stroke:#A80036;stroke-width:1.0;"/><line style="stroke:#A80036;stroke-width:1.0;" x1="43.5" x2="360.5" y1="267.4219" y2="267.4219"/><text fill="#000000" font-family="sans-serif" font-size="13" lengthAdjust="spacingAndGlyphs" textLength="39" x="50.5" y="262.356">next()</text><polygon fill="#A80036" points="217.5,292.5547,207.5,296.5547,217.5,300.5547,213.5,296.5547" style="stroke:#A80036;stroke-width:1.0;"/><line style="stroke:#A80036;stroke-width:1.0;" x1="211.5" x2="365.5" y1="296.5547" y2="296.5547"/><text fill="#000000" font-family="sans-serif" font-size="13" lengthAdjust="spacingAndGlyphs" textLength="32" x="223.5" y="291.4888">pull()</text><line style="stroke:#A80036;stroke-width:1.0;" x1="206.5" x2="248.5" y1="325.6875" y2="325.6875"/><line style="stroke:#A80036;stroke-width:1.0;" x1="248.5" x2="248.5" y1="325.6875" y2="338.6875"/><line style="stroke:#A80036;stroke-width:1.0;" x1="207.5" x2="248.5" y1="338.6875" y2="338.6875"/><polygon fill="#A80036" points="217.5,334.6875,207.5,338.6875,217.5,342.6875,213.5,338.6875" style="stroke:#A80036;stroke-width:1.0;"/><text fill="#000000" font-family="sans-serif" font-size="13" font-style="italic" lengthAdjust="spacingAndGlyphs" textLength="146" x="213.5" y="320.6216">compute next solution</text><polygon fill="#A80036" points="354.5,363.8203,364.5,367.8203,354.5,371.8203,358.5,367.8203" style="stroke:#A80036;stroke-width:1.0;"/><line style="stroke:#A80036;stroke-width:1.0;stroke-dasharray:2.0,2.0;" x1="201.5" x2="360.5" y1="367.8203" y2="367.8203"/><text fill="#000000" font-family="sans-serif" font-size="13" lengthAdjust="spacingAndGlyphs" textLength="136" x="208.5" y="362.7544">solution(Substitution)</text><polygon fill="#A80036" points="54.5,392.9531,44.5,396.9531,54.5,400.9531,50.5,396.9531" style="stroke:#A80036;stroke-width:1.0;"/><line style="stroke:#A80036;stroke-width:1.0;" x1="48.5" x2="370.5" y1="396.9531" y2="396.9531"/><text fill="#000000" font-family="sans-serif" font-size="13" lengthAdjust="spacingAndGlyphs" textLength="136" x="60.5" y="391.8872">solution(Substitution)</text><!--MD5=[266bcf8341b96e59cde8b7dfa1fade91]
@startuml
hide footbox

actor User
control Solver
collections "Solution\nStream" as Stream

activate User
User -> Solver: solve(Goal)
activate Solver

create Stream
Solver -> Stream: //create//

Solver - -> User: //reference to stream//
deactivate Solver

loop //do while last Substitution ≠ ⊥//
User -> Stream: next()
activate Stream
Stream -> Solver: pull()
activate Solver
Solver -> Solver: //compute next solution//
Solver - -> Stream: solution(Substitution)
deactivate Solver
Stream -> User: solution(Substitution)
deactivate Stream
end
@enduml

PlantUML version 1.2020.27beta1(Unknown compile time)
(GPL source distribution)
Java Runtime: Java(TM) SE Runtime Environment
JVM: Java HotSpot(TM) 64-Bit Server VM
Default Encoding: UTF-8
Language: en
Country: US
--></g></svg>